G75*
%MOIN*%
%OFA0B0*%
%FSLAX25Y25*%
%IPPOS*%
%LPD*%
%AMOC8*
5,1,8,0,0,1.08239X$1,22.5*
%
%ADD10C,0.06000*%
%ADD11OC8,0.05150*%
%ADD12C,0.02400*%
%ADD13C,0.00600*%
%ADD14C,0.02978*%
D10*
X0047000Y0011700D02*
X0047000Y0017700D01*
X0057000Y0017700D02*
X0057000Y0011700D01*
X0067000Y0011700D02*
X0067000Y0017700D01*
X0077000Y0017700D02*
X0077000Y0011700D01*
X0087000Y0011700D02*
X0087000Y0017700D01*
X0097000Y0017700D02*
X0097000Y0011700D01*
X0136500Y0028700D02*
X0142500Y0028700D01*
X0142500Y0038700D02*
X0136500Y0038700D01*
X0136500Y0048700D02*
X0142500Y0048700D01*
X0142500Y0058700D02*
X0136500Y0058700D01*
X0136500Y0068700D02*
X0142500Y0068700D01*
X0142500Y0078700D02*
X0136500Y0078700D01*
X0136500Y0088700D02*
X0142500Y0088700D01*
X0142500Y0098700D02*
X0136500Y0098700D01*
D11*
X0011000Y0039700D03*
X0011000Y0049700D03*
X0011000Y0059700D03*
X0011000Y0069700D03*
X0011000Y0079700D03*
X0011000Y0089700D03*
X0011000Y0099700D03*
X0011000Y0109700D03*
X0101000Y0109700D03*
X0101000Y0099700D03*
X0101000Y0089700D03*
X0101000Y0079700D03*
X0101000Y0069700D03*
X0101000Y0059700D03*
X0101000Y0049700D03*
X0101000Y0039700D03*
D12*
X0070000Y0039700D01*
X0057000Y0026700D01*
X0057000Y0014700D01*
X0047000Y0014700D02*
X0047000Y0026700D01*
X0034000Y0039700D01*
X0011000Y0039700D01*
D13*
X0077000Y0037600D02*
X0077000Y0032700D01*
X0130500Y0032700D01*
X0130500Y0105743D01*
X0129166Y0103434D01*
X0127266Y0101534D01*
X0124939Y0100190D01*
X0122344Y0099494D01*
X0119656Y0099494D01*
X0117061Y0100190D01*
X0114734Y0101534D01*
X0112834Y0103434D01*
X0111490Y0105761D01*
X0110794Y0108356D01*
X0110794Y0111044D01*
X0111490Y0113639D01*
X0112484Y0115361D01*
X0077000Y0115361D01*
X0077000Y0041800D01*
X0098186Y0041800D01*
X0099561Y0043175D01*
X0102439Y0043175D01*
X0104475Y0041139D01*
X0104475Y0038261D01*
X0102439Y0036225D01*
X0099561Y0036225D01*
X0098186Y0037600D01*
X0077000Y0037600D01*
X0077000Y0037020D02*
X0098766Y0037020D01*
X0099365Y0036421D02*
X0077000Y0036421D01*
X0077000Y0035823D02*
X0130500Y0035823D01*
X0130500Y0036421D02*
X0102635Y0036421D01*
X0103234Y0037020D02*
X0130500Y0037020D01*
X0130500Y0037618D02*
X0103832Y0037618D01*
X0104431Y0038217D02*
X0130500Y0038217D01*
X0130500Y0038815D02*
X0104475Y0038815D01*
X0104475Y0039414D02*
X0130500Y0039414D01*
X0130500Y0040012D02*
X0104475Y0040012D01*
X0104475Y0040611D02*
X0130500Y0040611D01*
X0130500Y0041209D02*
X0104405Y0041209D01*
X0103806Y0041808D02*
X0130500Y0041808D01*
X0130500Y0042406D02*
X0103208Y0042406D01*
X0102609Y0043005D02*
X0130500Y0043005D01*
X0130500Y0043603D02*
X0077000Y0043603D01*
X0077000Y0043005D02*
X0099391Y0043005D01*
X0098792Y0042406D02*
X0077000Y0042406D01*
X0077000Y0041808D02*
X0098194Y0041808D01*
X0099395Y0045825D02*
X0100700Y0045825D01*
X0100700Y0049400D01*
X0101300Y0049400D01*
X0101300Y0050000D01*
X0104875Y0050000D01*
X0104875Y0051305D01*
X0102605Y0053575D01*
X0101300Y0053575D01*
X0101300Y0050000D01*
X0100700Y0050000D01*
X0100700Y0053575D01*
X0099395Y0053575D01*
X0097125Y0051305D01*
X0097125Y0050000D01*
X0100700Y0050000D01*
X0100700Y0049400D01*
X0097125Y0049400D01*
X0097125Y0048095D01*
X0099395Y0045825D01*
X0099223Y0045997D02*
X0077000Y0045997D01*
X0077000Y0045399D02*
X0130500Y0045399D01*
X0130500Y0045997D02*
X0102777Y0045997D01*
X0102605Y0045825D02*
X0104875Y0048095D01*
X0104875Y0049400D01*
X0101300Y0049400D01*
X0101300Y0045825D01*
X0102605Y0045825D01*
X0103376Y0046596D02*
X0130500Y0046596D01*
X0130500Y0047194D02*
X0103974Y0047194D01*
X0104573Y0047793D02*
X0130500Y0047793D01*
X0130500Y0048391D02*
X0104875Y0048391D01*
X0104875Y0048990D02*
X0130500Y0048990D01*
X0130500Y0049588D02*
X0101300Y0049588D01*
X0101300Y0048990D02*
X0100700Y0048990D01*
X0100700Y0049588D02*
X0077000Y0049588D01*
X0077000Y0048990D02*
X0097125Y0048990D01*
X0097125Y0048391D02*
X0077000Y0048391D01*
X0077000Y0047793D02*
X0097427Y0047793D01*
X0098026Y0047194D02*
X0077000Y0047194D01*
X0077000Y0046596D02*
X0098624Y0046596D01*
X0100700Y0046596D02*
X0101300Y0046596D01*
X0101300Y0047194D02*
X0100700Y0047194D01*
X0100700Y0047793D02*
X0101300Y0047793D01*
X0101300Y0048391D02*
X0100700Y0048391D01*
X0100700Y0045997D02*
X0101300Y0045997D01*
X0101300Y0050187D02*
X0100700Y0050187D01*
X0100700Y0050785D02*
X0101300Y0050785D01*
X0101300Y0051384D02*
X0100700Y0051384D01*
X0100700Y0051982D02*
X0101300Y0051982D01*
X0101300Y0052581D02*
X0100700Y0052581D01*
X0100700Y0053179D02*
X0101300Y0053179D01*
X0103000Y0053179D02*
X0130500Y0053179D01*
X0130500Y0052581D02*
X0103599Y0052581D01*
X0104197Y0051982D02*
X0130500Y0051982D01*
X0130500Y0051384D02*
X0104796Y0051384D01*
X0104875Y0050785D02*
X0130500Y0050785D01*
X0130500Y0050187D02*
X0104875Y0050187D01*
X0102439Y0056225D02*
X0099561Y0056225D01*
X0097525Y0058261D01*
X0097525Y0061139D01*
X0099561Y0063175D01*
X0102439Y0063175D01*
X0104475Y0061139D01*
X0104475Y0058261D01*
X0102439Y0056225D01*
X0102985Y0056770D02*
X0130500Y0056770D01*
X0130500Y0056172D02*
X0077000Y0056172D01*
X0077000Y0056770D02*
X0099015Y0056770D01*
X0098417Y0057369D02*
X0077000Y0057369D01*
X0077000Y0057968D02*
X0097818Y0057968D01*
X0097525Y0058566D02*
X0077000Y0058566D01*
X0077000Y0059165D02*
X0097525Y0059165D01*
X0097525Y0059763D02*
X0077000Y0059763D01*
X0077000Y0060362D02*
X0097525Y0060362D01*
X0097525Y0060960D02*
X0077000Y0060960D01*
X0077000Y0061559D02*
X0097944Y0061559D01*
X0098543Y0062157D02*
X0077000Y0062157D01*
X0077000Y0062756D02*
X0099141Y0062756D01*
X0099561Y0066225D02*
X0102439Y0066225D01*
X0104475Y0068261D01*
X0104475Y0071139D01*
X0102439Y0073175D01*
X0099561Y0073175D01*
X0097525Y0071139D01*
X0097525Y0068261D01*
X0099561Y0066225D01*
X0099439Y0066347D02*
X0077000Y0066347D01*
X0077000Y0066945D02*
X0098841Y0066945D01*
X0098242Y0067544D02*
X0077000Y0067544D01*
X0077000Y0068142D02*
X0097644Y0068142D01*
X0097525Y0068741D02*
X0077000Y0068741D01*
X0077000Y0069339D02*
X0097525Y0069339D01*
X0097525Y0069938D02*
X0077000Y0069938D01*
X0077000Y0070536D02*
X0097525Y0070536D01*
X0097525Y0071135D02*
X0077000Y0071135D01*
X0077000Y0071733D02*
X0098119Y0071733D01*
X0098718Y0072332D02*
X0077000Y0072332D01*
X0077000Y0072930D02*
X0099316Y0072930D01*
X0099561Y0076225D02*
X0102439Y0076225D01*
X0104475Y0078261D01*
X0104475Y0081139D01*
X0102439Y0083175D01*
X0099561Y0083175D01*
X0097525Y0081139D01*
X0097525Y0078261D01*
X0099561Y0076225D01*
X0099265Y0076521D02*
X0077000Y0076521D01*
X0077000Y0075923D02*
X0130500Y0075923D01*
X0130500Y0076521D02*
X0102735Y0076521D01*
X0103334Y0077120D02*
X0130500Y0077120D01*
X0130500Y0077718D02*
X0103932Y0077718D01*
X0104475Y0078317D02*
X0130500Y0078317D01*
X0130500Y0078915D02*
X0104475Y0078915D01*
X0104475Y0079514D02*
X0130500Y0079514D01*
X0130500Y0080112D02*
X0104475Y0080112D01*
X0104475Y0080711D02*
X0130500Y0080711D01*
X0130500Y0081309D02*
X0104305Y0081309D01*
X0103706Y0081908D02*
X0130500Y0081908D01*
X0130500Y0082506D02*
X0103108Y0082506D01*
X0102509Y0083105D02*
X0130500Y0083105D01*
X0130500Y0083703D02*
X0077000Y0083703D01*
X0077000Y0083105D02*
X0099491Y0083105D01*
X0098892Y0082506D02*
X0077000Y0082506D01*
X0077000Y0081908D02*
X0098294Y0081908D01*
X0097695Y0081309D02*
X0077000Y0081309D01*
X0077000Y0080711D02*
X0097525Y0080711D01*
X0097525Y0080112D02*
X0077000Y0080112D01*
X0077000Y0079514D02*
X0097525Y0079514D01*
X0097525Y0078915D02*
X0077000Y0078915D01*
X0077000Y0078317D02*
X0097525Y0078317D01*
X0098068Y0077718D02*
X0077000Y0077718D01*
X0077000Y0077120D02*
X0098666Y0077120D01*
X0102684Y0072930D02*
X0130500Y0072930D01*
X0130500Y0072332D02*
X0103282Y0072332D01*
X0103881Y0071733D02*
X0130500Y0071733D01*
X0130500Y0071135D02*
X0104475Y0071135D01*
X0104475Y0070536D02*
X0130500Y0070536D01*
X0130500Y0069938D02*
X0104475Y0069938D01*
X0104475Y0069339D02*
X0130500Y0069339D01*
X0130500Y0068741D02*
X0104475Y0068741D01*
X0104356Y0068142D02*
X0130500Y0068142D01*
X0130500Y0067544D02*
X0103758Y0067544D01*
X0103159Y0066945D02*
X0130500Y0066945D01*
X0130500Y0066347D02*
X0102561Y0066347D01*
X0102858Y0062756D02*
X0130500Y0062756D01*
X0130500Y0063354D02*
X0077000Y0063354D01*
X0077000Y0063953D02*
X0130500Y0063953D01*
X0130500Y0064551D02*
X0077000Y0064551D01*
X0077000Y0065150D02*
X0130500Y0065150D01*
X0130500Y0065748D02*
X0077000Y0065748D01*
X0077000Y0073529D02*
X0130500Y0073529D01*
X0130500Y0074127D02*
X0077000Y0074127D01*
X0077000Y0074726D02*
X0130500Y0074726D01*
X0130500Y0075324D02*
X0077000Y0075324D01*
X0077000Y0084302D02*
X0130500Y0084302D01*
X0130500Y0084901D02*
X0077000Y0084901D01*
X0077000Y0085499D02*
X0130500Y0085499D01*
X0130500Y0086098D02*
X0077000Y0086098D01*
X0077000Y0086696D02*
X0099090Y0086696D01*
X0099561Y0086225D02*
X0102439Y0086225D01*
X0104475Y0088261D01*
X0104475Y0091139D01*
X0102439Y0093175D01*
X0099561Y0093175D01*
X0097525Y0091139D01*
X0097525Y0088261D01*
X0099561Y0086225D01*
X0098491Y0087295D02*
X0077000Y0087295D01*
X0077000Y0087893D02*
X0097893Y0087893D01*
X0097525Y0088492D02*
X0077000Y0088492D01*
X0077000Y0089090D02*
X0097525Y0089090D01*
X0097525Y0089689D02*
X0077000Y0089689D01*
X0077000Y0090287D02*
X0097525Y0090287D01*
X0097525Y0090886D02*
X0077000Y0090886D01*
X0077000Y0091484D02*
X0097870Y0091484D01*
X0098469Y0092083D02*
X0077000Y0092083D01*
X0077000Y0092681D02*
X0099067Y0092681D01*
X0102933Y0092681D02*
X0130500Y0092681D01*
X0130500Y0092083D02*
X0103531Y0092083D01*
X0104130Y0091484D02*
X0130500Y0091484D01*
X0130500Y0090886D02*
X0104475Y0090886D01*
X0104475Y0090287D02*
X0130500Y0090287D01*
X0130500Y0089689D02*
X0104475Y0089689D01*
X0104475Y0089090D02*
X0130500Y0089090D01*
X0130500Y0088492D02*
X0104475Y0088492D01*
X0104107Y0087893D02*
X0130500Y0087893D01*
X0130500Y0087295D02*
X0103509Y0087295D01*
X0102910Y0086696D02*
X0130500Y0086696D01*
X0130500Y0093280D02*
X0077000Y0093280D01*
X0077000Y0093878D02*
X0130500Y0093878D01*
X0130500Y0094477D02*
X0077000Y0094477D01*
X0077000Y0095075D02*
X0130500Y0095075D01*
X0130500Y0095674D02*
X0077000Y0095674D01*
X0077000Y0096272D02*
X0099514Y0096272D01*
X0099561Y0096225D02*
X0102439Y0096225D01*
X0104475Y0098261D01*
X0104475Y0101139D01*
X0102439Y0103175D01*
X0099561Y0103175D01*
X0097525Y0101139D01*
X0097525Y0098261D01*
X0099561Y0096225D01*
X0098915Y0096871D02*
X0077000Y0096871D01*
X0077000Y0097469D02*
X0098317Y0097469D01*
X0097718Y0098068D02*
X0077000Y0098068D01*
X0077000Y0098666D02*
X0097525Y0098666D01*
X0097525Y0099265D02*
X0077000Y0099265D01*
X0077000Y0099863D02*
X0097525Y0099863D01*
X0097525Y0100462D02*
X0077000Y0100462D01*
X0077000Y0101060D02*
X0097525Y0101060D01*
X0098045Y0101659D02*
X0077000Y0101659D01*
X0077000Y0102257D02*
X0098643Y0102257D01*
X0099242Y0102856D02*
X0077000Y0102856D01*
X0077000Y0103454D02*
X0112822Y0103454D01*
X0112476Y0104053D02*
X0077000Y0104053D01*
X0077000Y0104651D02*
X0112130Y0104651D01*
X0111785Y0105250D02*
X0077000Y0105250D01*
X0077000Y0105848D02*
X0111466Y0105848D01*
X0111306Y0106447D02*
X0102661Y0106447D01*
X0102439Y0106225D02*
X0104475Y0108261D01*
X0104475Y0111139D01*
X0102439Y0113175D01*
X0099561Y0113175D01*
X0097525Y0111139D01*
X0097525Y0108261D01*
X0099561Y0106225D01*
X0102439Y0106225D01*
X0103260Y0107045D02*
X0111146Y0107045D01*
X0110985Y0107644D02*
X0103858Y0107644D01*
X0104457Y0108242D02*
X0110825Y0108242D01*
X0110794Y0108841D02*
X0104475Y0108841D01*
X0104475Y0109439D02*
X0110794Y0109439D01*
X0110794Y0110038D02*
X0104475Y0110038D01*
X0104475Y0110637D02*
X0110794Y0110637D01*
X0110846Y0111235D02*
X0104379Y0111235D01*
X0103781Y0111834D02*
X0111006Y0111834D01*
X0111167Y0112432D02*
X0103182Y0112432D01*
X0102584Y0113031D02*
X0111327Y0113031D01*
X0111487Y0113629D02*
X0077000Y0113629D01*
X0077000Y0113031D02*
X0099416Y0113031D01*
X0098818Y0112432D02*
X0077000Y0112432D01*
X0077000Y0111834D02*
X0098219Y0111834D01*
X0097621Y0111235D02*
X0077000Y0111235D01*
X0077000Y0110637D02*
X0097525Y0110637D01*
X0097525Y0110038D02*
X0077000Y0110038D01*
X0077000Y0109439D02*
X0097525Y0109439D01*
X0097525Y0108841D02*
X0077000Y0108841D01*
X0077000Y0108242D02*
X0097543Y0108242D01*
X0098142Y0107644D02*
X0077000Y0107644D01*
X0077000Y0107045D02*
X0098740Y0107045D01*
X0099339Y0106447D02*
X0077000Y0106447D01*
X0077000Y0114228D02*
X0111830Y0114228D01*
X0112175Y0114826D02*
X0077000Y0114826D01*
X0102758Y0102856D02*
X0113411Y0102856D01*
X0114010Y0102257D02*
X0103357Y0102257D01*
X0103955Y0101659D02*
X0114608Y0101659D01*
X0115553Y0101060D02*
X0104475Y0101060D01*
X0104475Y0100462D02*
X0116590Y0100462D01*
X0118280Y0099863D02*
X0104475Y0099863D01*
X0104475Y0099265D02*
X0130500Y0099265D01*
X0130500Y0099863D02*
X0123720Y0099863D01*
X0125410Y0100462D02*
X0130500Y0100462D01*
X0130500Y0101060D02*
X0126447Y0101060D01*
X0127392Y0101659D02*
X0130500Y0101659D01*
X0130500Y0102257D02*
X0127990Y0102257D01*
X0128589Y0102856D02*
X0130500Y0102856D01*
X0130500Y0103454D02*
X0129178Y0103454D01*
X0129524Y0104053D02*
X0130500Y0104053D01*
X0130500Y0104651D02*
X0129869Y0104651D01*
X0130215Y0105250D02*
X0130500Y0105250D01*
X0130500Y0098666D02*
X0104475Y0098666D01*
X0104282Y0098068D02*
X0130500Y0098068D01*
X0130500Y0097469D02*
X0103683Y0097469D01*
X0103085Y0096871D02*
X0130500Y0096871D01*
X0130500Y0096272D02*
X0102486Y0096272D01*
X0103457Y0062157D02*
X0130500Y0062157D01*
X0130500Y0061559D02*
X0104056Y0061559D01*
X0104475Y0060960D02*
X0130500Y0060960D01*
X0130500Y0060362D02*
X0104475Y0060362D01*
X0104475Y0059763D02*
X0130500Y0059763D01*
X0130500Y0059165D02*
X0104475Y0059165D01*
X0104475Y0058566D02*
X0130500Y0058566D01*
X0130500Y0057968D02*
X0104182Y0057968D01*
X0103583Y0057369D02*
X0130500Y0057369D01*
X0130500Y0055573D02*
X0077000Y0055573D01*
X0077000Y0054975D02*
X0130500Y0054975D01*
X0130500Y0054376D02*
X0077000Y0054376D01*
X0077000Y0053778D02*
X0130500Y0053778D01*
X0130500Y0044800D02*
X0077000Y0044800D01*
X0077000Y0044202D02*
X0130500Y0044202D01*
X0130500Y0035224D02*
X0077000Y0035224D01*
X0077000Y0034626D02*
X0130500Y0034626D01*
X0130500Y0034027D02*
X0077000Y0034027D01*
X0077000Y0033429D02*
X0130500Y0033429D01*
X0130500Y0032830D02*
X0077000Y0032830D01*
X0077000Y0050187D02*
X0097125Y0050187D01*
X0097125Y0050785D02*
X0077000Y0050785D01*
X0077000Y0051384D02*
X0097204Y0051384D01*
X0097803Y0051982D02*
X0077000Y0051982D01*
X0077000Y0052581D02*
X0098401Y0052581D01*
X0099000Y0053179D02*
X0077000Y0053179D01*
D14*
X0089000Y0071200D03*
X0089500Y0086200D03*
X0089500Y0102200D03*
X0108500Y0092700D03*
X0108500Y0081200D03*
X0109000Y0060200D03*
X0126000Y0050700D03*
M02*
