%
M48
M72
T01C0.01378
T02C0.03150
T03C0.04000
T04C0.11811
%
T01
X89000Y71200
X89500Y86200
X89500Y102200
X108500Y92700
X108500Y81200
X109000Y60200
X126000Y50700
T02
X101000Y49700
X101000Y39700
X101000Y59700
X101000Y69700
X101000Y79700
X101000Y89700
X101000Y99700
X101000Y109700
X11000Y109700
X11000Y99700
X11000Y89700
X11000Y79700
X11000Y69700
X11000Y59700
X11000Y49700
X11000Y39700
T03
X47000Y14700
X57000Y14700
X67000Y14700
X77000Y14700
X87000Y14700
X97000Y14700
X139500Y28700
X139500Y38700
X139500Y48700
X139500Y58700
X139500Y68700
X139500Y78700
X139500Y88700
X139500Y98700
T04
X21000Y19700
X41000Y109700
X121000Y109700
X121000Y19700
M30
