G75*
%MOIN*%
%OFA0B0*%
%FSLAX25Y25*%
%IPPOS*%
%LPD*%
%AMOC8*
5,1,8,0,0,1.08239X$1,22.5*
%
%ADD10C,0.00000*%
%ADD11C,0.00600*%
%ADD12C,0.00300*%
D10*
X0001000Y0004700D02*
X0001000Y0119661D01*
X0149701Y0119661D01*
X0149701Y0004700D01*
X0001000Y0004700D01*
X0015094Y0019700D02*
X0015096Y0019853D01*
X0015102Y0020007D01*
X0015112Y0020160D01*
X0015126Y0020312D01*
X0015144Y0020465D01*
X0015166Y0020616D01*
X0015191Y0020767D01*
X0015221Y0020918D01*
X0015255Y0021068D01*
X0015292Y0021216D01*
X0015333Y0021364D01*
X0015378Y0021510D01*
X0015427Y0021656D01*
X0015480Y0021800D01*
X0015536Y0021942D01*
X0015596Y0022083D01*
X0015660Y0022223D01*
X0015727Y0022361D01*
X0015798Y0022497D01*
X0015873Y0022631D01*
X0015950Y0022763D01*
X0016032Y0022893D01*
X0016116Y0023021D01*
X0016204Y0023147D01*
X0016295Y0023270D01*
X0016389Y0023391D01*
X0016487Y0023509D01*
X0016587Y0023625D01*
X0016691Y0023738D01*
X0016797Y0023849D01*
X0016906Y0023957D01*
X0017018Y0024062D01*
X0017132Y0024163D01*
X0017250Y0024262D01*
X0017369Y0024358D01*
X0017491Y0024451D01*
X0017616Y0024540D01*
X0017743Y0024627D01*
X0017872Y0024709D01*
X0018003Y0024789D01*
X0018136Y0024865D01*
X0018271Y0024938D01*
X0018408Y0025007D01*
X0018547Y0025072D01*
X0018687Y0025134D01*
X0018829Y0025192D01*
X0018972Y0025247D01*
X0019117Y0025298D01*
X0019263Y0025345D01*
X0019410Y0025388D01*
X0019558Y0025427D01*
X0019707Y0025463D01*
X0019857Y0025494D01*
X0020008Y0025522D01*
X0020159Y0025546D01*
X0020312Y0025566D01*
X0020464Y0025582D01*
X0020617Y0025594D01*
X0020770Y0025602D01*
X0020923Y0025606D01*
X0021077Y0025606D01*
X0021230Y0025602D01*
X0021383Y0025594D01*
X0021536Y0025582D01*
X0021688Y0025566D01*
X0021841Y0025546D01*
X0021992Y0025522D01*
X0022143Y0025494D01*
X0022293Y0025463D01*
X0022442Y0025427D01*
X0022590Y0025388D01*
X0022737Y0025345D01*
X0022883Y0025298D01*
X0023028Y0025247D01*
X0023171Y0025192D01*
X0023313Y0025134D01*
X0023453Y0025072D01*
X0023592Y0025007D01*
X0023729Y0024938D01*
X0023864Y0024865D01*
X0023997Y0024789D01*
X0024128Y0024709D01*
X0024257Y0024627D01*
X0024384Y0024540D01*
X0024509Y0024451D01*
X0024631Y0024358D01*
X0024750Y0024262D01*
X0024868Y0024163D01*
X0024982Y0024062D01*
X0025094Y0023957D01*
X0025203Y0023849D01*
X0025309Y0023738D01*
X0025413Y0023625D01*
X0025513Y0023509D01*
X0025611Y0023391D01*
X0025705Y0023270D01*
X0025796Y0023147D01*
X0025884Y0023021D01*
X0025968Y0022893D01*
X0026050Y0022763D01*
X0026127Y0022631D01*
X0026202Y0022497D01*
X0026273Y0022361D01*
X0026340Y0022223D01*
X0026404Y0022083D01*
X0026464Y0021942D01*
X0026520Y0021800D01*
X0026573Y0021656D01*
X0026622Y0021510D01*
X0026667Y0021364D01*
X0026708Y0021216D01*
X0026745Y0021068D01*
X0026779Y0020918D01*
X0026809Y0020767D01*
X0026834Y0020616D01*
X0026856Y0020465D01*
X0026874Y0020312D01*
X0026888Y0020160D01*
X0026898Y0020007D01*
X0026904Y0019853D01*
X0026906Y0019700D01*
X0026904Y0019547D01*
X0026898Y0019393D01*
X0026888Y0019240D01*
X0026874Y0019088D01*
X0026856Y0018935D01*
X0026834Y0018784D01*
X0026809Y0018633D01*
X0026779Y0018482D01*
X0026745Y0018332D01*
X0026708Y0018184D01*
X0026667Y0018036D01*
X0026622Y0017890D01*
X0026573Y0017744D01*
X0026520Y0017600D01*
X0026464Y0017458D01*
X0026404Y0017317D01*
X0026340Y0017177D01*
X0026273Y0017039D01*
X0026202Y0016903D01*
X0026127Y0016769D01*
X0026050Y0016637D01*
X0025968Y0016507D01*
X0025884Y0016379D01*
X0025796Y0016253D01*
X0025705Y0016130D01*
X0025611Y0016009D01*
X0025513Y0015891D01*
X0025413Y0015775D01*
X0025309Y0015662D01*
X0025203Y0015551D01*
X0025094Y0015443D01*
X0024982Y0015338D01*
X0024868Y0015237D01*
X0024750Y0015138D01*
X0024631Y0015042D01*
X0024509Y0014949D01*
X0024384Y0014860D01*
X0024257Y0014773D01*
X0024128Y0014691D01*
X0023997Y0014611D01*
X0023864Y0014535D01*
X0023729Y0014462D01*
X0023592Y0014393D01*
X0023453Y0014328D01*
X0023313Y0014266D01*
X0023171Y0014208D01*
X0023028Y0014153D01*
X0022883Y0014102D01*
X0022737Y0014055D01*
X0022590Y0014012D01*
X0022442Y0013973D01*
X0022293Y0013937D01*
X0022143Y0013906D01*
X0021992Y0013878D01*
X0021841Y0013854D01*
X0021688Y0013834D01*
X0021536Y0013818D01*
X0021383Y0013806D01*
X0021230Y0013798D01*
X0021077Y0013794D01*
X0020923Y0013794D01*
X0020770Y0013798D01*
X0020617Y0013806D01*
X0020464Y0013818D01*
X0020312Y0013834D01*
X0020159Y0013854D01*
X0020008Y0013878D01*
X0019857Y0013906D01*
X0019707Y0013937D01*
X0019558Y0013973D01*
X0019410Y0014012D01*
X0019263Y0014055D01*
X0019117Y0014102D01*
X0018972Y0014153D01*
X0018829Y0014208D01*
X0018687Y0014266D01*
X0018547Y0014328D01*
X0018408Y0014393D01*
X0018271Y0014462D01*
X0018136Y0014535D01*
X0018003Y0014611D01*
X0017872Y0014691D01*
X0017743Y0014773D01*
X0017616Y0014860D01*
X0017491Y0014949D01*
X0017369Y0015042D01*
X0017250Y0015138D01*
X0017132Y0015237D01*
X0017018Y0015338D01*
X0016906Y0015443D01*
X0016797Y0015551D01*
X0016691Y0015662D01*
X0016587Y0015775D01*
X0016487Y0015891D01*
X0016389Y0016009D01*
X0016295Y0016130D01*
X0016204Y0016253D01*
X0016116Y0016379D01*
X0016032Y0016507D01*
X0015950Y0016637D01*
X0015873Y0016769D01*
X0015798Y0016903D01*
X0015727Y0017039D01*
X0015660Y0017177D01*
X0015596Y0017317D01*
X0015536Y0017458D01*
X0015480Y0017600D01*
X0015427Y0017744D01*
X0015378Y0017890D01*
X0015333Y0018036D01*
X0015292Y0018184D01*
X0015255Y0018332D01*
X0015221Y0018482D01*
X0015191Y0018633D01*
X0015166Y0018784D01*
X0015144Y0018935D01*
X0015126Y0019088D01*
X0015112Y0019240D01*
X0015102Y0019393D01*
X0015096Y0019547D01*
X0015094Y0019700D01*
X0035094Y0109700D02*
X0035096Y0109853D01*
X0035102Y0110007D01*
X0035112Y0110160D01*
X0035126Y0110312D01*
X0035144Y0110465D01*
X0035166Y0110616D01*
X0035191Y0110767D01*
X0035221Y0110918D01*
X0035255Y0111068D01*
X0035292Y0111216D01*
X0035333Y0111364D01*
X0035378Y0111510D01*
X0035427Y0111656D01*
X0035480Y0111800D01*
X0035536Y0111942D01*
X0035596Y0112083D01*
X0035660Y0112223D01*
X0035727Y0112361D01*
X0035798Y0112497D01*
X0035873Y0112631D01*
X0035950Y0112763D01*
X0036032Y0112893D01*
X0036116Y0113021D01*
X0036204Y0113147D01*
X0036295Y0113270D01*
X0036389Y0113391D01*
X0036487Y0113509D01*
X0036587Y0113625D01*
X0036691Y0113738D01*
X0036797Y0113849D01*
X0036906Y0113957D01*
X0037018Y0114062D01*
X0037132Y0114163D01*
X0037250Y0114262D01*
X0037369Y0114358D01*
X0037491Y0114451D01*
X0037616Y0114540D01*
X0037743Y0114627D01*
X0037872Y0114709D01*
X0038003Y0114789D01*
X0038136Y0114865D01*
X0038271Y0114938D01*
X0038408Y0115007D01*
X0038547Y0115072D01*
X0038687Y0115134D01*
X0038829Y0115192D01*
X0038972Y0115247D01*
X0039117Y0115298D01*
X0039263Y0115345D01*
X0039410Y0115388D01*
X0039558Y0115427D01*
X0039707Y0115463D01*
X0039857Y0115494D01*
X0040008Y0115522D01*
X0040159Y0115546D01*
X0040312Y0115566D01*
X0040464Y0115582D01*
X0040617Y0115594D01*
X0040770Y0115602D01*
X0040923Y0115606D01*
X0041077Y0115606D01*
X0041230Y0115602D01*
X0041383Y0115594D01*
X0041536Y0115582D01*
X0041688Y0115566D01*
X0041841Y0115546D01*
X0041992Y0115522D01*
X0042143Y0115494D01*
X0042293Y0115463D01*
X0042442Y0115427D01*
X0042590Y0115388D01*
X0042737Y0115345D01*
X0042883Y0115298D01*
X0043028Y0115247D01*
X0043171Y0115192D01*
X0043313Y0115134D01*
X0043453Y0115072D01*
X0043592Y0115007D01*
X0043729Y0114938D01*
X0043864Y0114865D01*
X0043997Y0114789D01*
X0044128Y0114709D01*
X0044257Y0114627D01*
X0044384Y0114540D01*
X0044509Y0114451D01*
X0044631Y0114358D01*
X0044750Y0114262D01*
X0044868Y0114163D01*
X0044982Y0114062D01*
X0045094Y0113957D01*
X0045203Y0113849D01*
X0045309Y0113738D01*
X0045413Y0113625D01*
X0045513Y0113509D01*
X0045611Y0113391D01*
X0045705Y0113270D01*
X0045796Y0113147D01*
X0045884Y0113021D01*
X0045968Y0112893D01*
X0046050Y0112763D01*
X0046127Y0112631D01*
X0046202Y0112497D01*
X0046273Y0112361D01*
X0046340Y0112223D01*
X0046404Y0112083D01*
X0046464Y0111942D01*
X0046520Y0111800D01*
X0046573Y0111656D01*
X0046622Y0111510D01*
X0046667Y0111364D01*
X0046708Y0111216D01*
X0046745Y0111068D01*
X0046779Y0110918D01*
X0046809Y0110767D01*
X0046834Y0110616D01*
X0046856Y0110465D01*
X0046874Y0110312D01*
X0046888Y0110160D01*
X0046898Y0110007D01*
X0046904Y0109853D01*
X0046906Y0109700D01*
X0046904Y0109547D01*
X0046898Y0109393D01*
X0046888Y0109240D01*
X0046874Y0109088D01*
X0046856Y0108935D01*
X0046834Y0108784D01*
X0046809Y0108633D01*
X0046779Y0108482D01*
X0046745Y0108332D01*
X0046708Y0108184D01*
X0046667Y0108036D01*
X0046622Y0107890D01*
X0046573Y0107744D01*
X0046520Y0107600D01*
X0046464Y0107458D01*
X0046404Y0107317D01*
X0046340Y0107177D01*
X0046273Y0107039D01*
X0046202Y0106903D01*
X0046127Y0106769D01*
X0046050Y0106637D01*
X0045968Y0106507D01*
X0045884Y0106379D01*
X0045796Y0106253D01*
X0045705Y0106130D01*
X0045611Y0106009D01*
X0045513Y0105891D01*
X0045413Y0105775D01*
X0045309Y0105662D01*
X0045203Y0105551D01*
X0045094Y0105443D01*
X0044982Y0105338D01*
X0044868Y0105237D01*
X0044750Y0105138D01*
X0044631Y0105042D01*
X0044509Y0104949D01*
X0044384Y0104860D01*
X0044257Y0104773D01*
X0044128Y0104691D01*
X0043997Y0104611D01*
X0043864Y0104535D01*
X0043729Y0104462D01*
X0043592Y0104393D01*
X0043453Y0104328D01*
X0043313Y0104266D01*
X0043171Y0104208D01*
X0043028Y0104153D01*
X0042883Y0104102D01*
X0042737Y0104055D01*
X0042590Y0104012D01*
X0042442Y0103973D01*
X0042293Y0103937D01*
X0042143Y0103906D01*
X0041992Y0103878D01*
X0041841Y0103854D01*
X0041688Y0103834D01*
X0041536Y0103818D01*
X0041383Y0103806D01*
X0041230Y0103798D01*
X0041077Y0103794D01*
X0040923Y0103794D01*
X0040770Y0103798D01*
X0040617Y0103806D01*
X0040464Y0103818D01*
X0040312Y0103834D01*
X0040159Y0103854D01*
X0040008Y0103878D01*
X0039857Y0103906D01*
X0039707Y0103937D01*
X0039558Y0103973D01*
X0039410Y0104012D01*
X0039263Y0104055D01*
X0039117Y0104102D01*
X0038972Y0104153D01*
X0038829Y0104208D01*
X0038687Y0104266D01*
X0038547Y0104328D01*
X0038408Y0104393D01*
X0038271Y0104462D01*
X0038136Y0104535D01*
X0038003Y0104611D01*
X0037872Y0104691D01*
X0037743Y0104773D01*
X0037616Y0104860D01*
X0037491Y0104949D01*
X0037369Y0105042D01*
X0037250Y0105138D01*
X0037132Y0105237D01*
X0037018Y0105338D01*
X0036906Y0105443D01*
X0036797Y0105551D01*
X0036691Y0105662D01*
X0036587Y0105775D01*
X0036487Y0105891D01*
X0036389Y0106009D01*
X0036295Y0106130D01*
X0036204Y0106253D01*
X0036116Y0106379D01*
X0036032Y0106507D01*
X0035950Y0106637D01*
X0035873Y0106769D01*
X0035798Y0106903D01*
X0035727Y0107039D01*
X0035660Y0107177D01*
X0035596Y0107317D01*
X0035536Y0107458D01*
X0035480Y0107600D01*
X0035427Y0107744D01*
X0035378Y0107890D01*
X0035333Y0108036D01*
X0035292Y0108184D01*
X0035255Y0108332D01*
X0035221Y0108482D01*
X0035191Y0108633D01*
X0035166Y0108784D01*
X0035144Y0108935D01*
X0035126Y0109088D01*
X0035112Y0109240D01*
X0035102Y0109393D01*
X0035096Y0109547D01*
X0035094Y0109700D01*
X0115094Y0109700D02*
X0115096Y0109853D01*
X0115102Y0110007D01*
X0115112Y0110160D01*
X0115126Y0110312D01*
X0115144Y0110465D01*
X0115166Y0110616D01*
X0115191Y0110767D01*
X0115221Y0110918D01*
X0115255Y0111068D01*
X0115292Y0111216D01*
X0115333Y0111364D01*
X0115378Y0111510D01*
X0115427Y0111656D01*
X0115480Y0111800D01*
X0115536Y0111942D01*
X0115596Y0112083D01*
X0115660Y0112223D01*
X0115727Y0112361D01*
X0115798Y0112497D01*
X0115873Y0112631D01*
X0115950Y0112763D01*
X0116032Y0112893D01*
X0116116Y0113021D01*
X0116204Y0113147D01*
X0116295Y0113270D01*
X0116389Y0113391D01*
X0116487Y0113509D01*
X0116587Y0113625D01*
X0116691Y0113738D01*
X0116797Y0113849D01*
X0116906Y0113957D01*
X0117018Y0114062D01*
X0117132Y0114163D01*
X0117250Y0114262D01*
X0117369Y0114358D01*
X0117491Y0114451D01*
X0117616Y0114540D01*
X0117743Y0114627D01*
X0117872Y0114709D01*
X0118003Y0114789D01*
X0118136Y0114865D01*
X0118271Y0114938D01*
X0118408Y0115007D01*
X0118547Y0115072D01*
X0118687Y0115134D01*
X0118829Y0115192D01*
X0118972Y0115247D01*
X0119117Y0115298D01*
X0119263Y0115345D01*
X0119410Y0115388D01*
X0119558Y0115427D01*
X0119707Y0115463D01*
X0119857Y0115494D01*
X0120008Y0115522D01*
X0120159Y0115546D01*
X0120312Y0115566D01*
X0120464Y0115582D01*
X0120617Y0115594D01*
X0120770Y0115602D01*
X0120923Y0115606D01*
X0121077Y0115606D01*
X0121230Y0115602D01*
X0121383Y0115594D01*
X0121536Y0115582D01*
X0121688Y0115566D01*
X0121841Y0115546D01*
X0121992Y0115522D01*
X0122143Y0115494D01*
X0122293Y0115463D01*
X0122442Y0115427D01*
X0122590Y0115388D01*
X0122737Y0115345D01*
X0122883Y0115298D01*
X0123028Y0115247D01*
X0123171Y0115192D01*
X0123313Y0115134D01*
X0123453Y0115072D01*
X0123592Y0115007D01*
X0123729Y0114938D01*
X0123864Y0114865D01*
X0123997Y0114789D01*
X0124128Y0114709D01*
X0124257Y0114627D01*
X0124384Y0114540D01*
X0124509Y0114451D01*
X0124631Y0114358D01*
X0124750Y0114262D01*
X0124868Y0114163D01*
X0124982Y0114062D01*
X0125094Y0113957D01*
X0125203Y0113849D01*
X0125309Y0113738D01*
X0125413Y0113625D01*
X0125513Y0113509D01*
X0125611Y0113391D01*
X0125705Y0113270D01*
X0125796Y0113147D01*
X0125884Y0113021D01*
X0125968Y0112893D01*
X0126050Y0112763D01*
X0126127Y0112631D01*
X0126202Y0112497D01*
X0126273Y0112361D01*
X0126340Y0112223D01*
X0126404Y0112083D01*
X0126464Y0111942D01*
X0126520Y0111800D01*
X0126573Y0111656D01*
X0126622Y0111510D01*
X0126667Y0111364D01*
X0126708Y0111216D01*
X0126745Y0111068D01*
X0126779Y0110918D01*
X0126809Y0110767D01*
X0126834Y0110616D01*
X0126856Y0110465D01*
X0126874Y0110312D01*
X0126888Y0110160D01*
X0126898Y0110007D01*
X0126904Y0109853D01*
X0126906Y0109700D01*
X0126904Y0109547D01*
X0126898Y0109393D01*
X0126888Y0109240D01*
X0126874Y0109088D01*
X0126856Y0108935D01*
X0126834Y0108784D01*
X0126809Y0108633D01*
X0126779Y0108482D01*
X0126745Y0108332D01*
X0126708Y0108184D01*
X0126667Y0108036D01*
X0126622Y0107890D01*
X0126573Y0107744D01*
X0126520Y0107600D01*
X0126464Y0107458D01*
X0126404Y0107317D01*
X0126340Y0107177D01*
X0126273Y0107039D01*
X0126202Y0106903D01*
X0126127Y0106769D01*
X0126050Y0106637D01*
X0125968Y0106507D01*
X0125884Y0106379D01*
X0125796Y0106253D01*
X0125705Y0106130D01*
X0125611Y0106009D01*
X0125513Y0105891D01*
X0125413Y0105775D01*
X0125309Y0105662D01*
X0125203Y0105551D01*
X0125094Y0105443D01*
X0124982Y0105338D01*
X0124868Y0105237D01*
X0124750Y0105138D01*
X0124631Y0105042D01*
X0124509Y0104949D01*
X0124384Y0104860D01*
X0124257Y0104773D01*
X0124128Y0104691D01*
X0123997Y0104611D01*
X0123864Y0104535D01*
X0123729Y0104462D01*
X0123592Y0104393D01*
X0123453Y0104328D01*
X0123313Y0104266D01*
X0123171Y0104208D01*
X0123028Y0104153D01*
X0122883Y0104102D01*
X0122737Y0104055D01*
X0122590Y0104012D01*
X0122442Y0103973D01*
X0122293Y0103937D01*
X0122143Y0103906D01*
X0121992Y0103878D01*
X0121841Y0103854D01*
X0121688Y0103834D01*
X0121536Y0103818D01*
X0121383Y0103806D01*
X0121230Y0103798D01*
X0121077Y0103794D01*
X0120923Y0103794D01*
X0120770Y0103798D01*
X0120617Y0103806D01*
X0120464Y0103818D01*
X0120312Y0103834D01*
X0120159Y0103854D01*
X0120008Y0103878D01*
X0119857Y0103906D01*
X0119707Y0103937D01*
X0119558Y0103973D01*
X0119410Y0104012D01*
X0119263Y0104055D01*
X0119117Y0104102D01*
X0118972Y0104153D01*
X0118829Y0104208D01*
X0118687Y0104266D01*
X0118547Y0104328D01*
X0118408Y0104393D01*
X0118271Y0104462D01*
X0118136Y0104535D01*
X0118003Y0104611D01*
X0117872Y0104691D01*
X0117743Y0104773D01*
X0117616Y0104860D01*
X0117491Y0104949D01*
X0117369Y0105042D01*
X0117250Y0105138D01*
X0117132Y0105237D01*
X0117018Y0105338D01*
X0116906Y0105443D01*
X0116797Y0105551D01*
X0116691Y0105662D01*
X0116587Y0105775D01*
X0116487Y0105891D01*
X0116389Y0106009D01*
X0116295Y0106130D01*
X0116204Y0106253D01*
X0116116Y0106379D01*
X0116032Y0106507D01*
X0115950Y0106637D01*
X0115873Y0106769D01*
X0115798Y0106903D01*
X0115727Y0107039D01*
X0115660Y0107177D01*
X0115596Y0107317D01*
X0115536Y0107458D01*
X0115480Y0107600D01*
X0115427Y0107744D01*
X0115378Y0107890D01*
X0115333Y0108036D01*
X0115292Y0108184D01*
X0115255Y0108332D01*
X0115221Y0108482D01*
X0115191Y0108633D01*
X0115166Y0108784D01*
X0115144Y0108935D01*
X0115126Y0109088D01*
X0115112Y0109240D01*
X0115102Y0109393D01*
X0115096Y0109547D01*
X0115094Y0109700D01*
X0115094Y0019700D02*
X0115096Y0019853D01*
X0115102Y0020007D01*
X0115112Y0020160D01*
X0115126Y0020312D01*
X0115144Y0020465D01*
X0115166Y0020616D01*
X0115191Y0020767D01*
X0115221Y0020918D01*
X0115255Y0021068D01*
X0115292Y0021216D01*
X0115333Y0021364D01*
X0115378Y0021510D01*
X0115427Y0021656D01*
X0115480Y0021800D01*
X0115536Y0021942D01*
X0115596Y0022083D01*
X0115660Y0022223D01*
X0115727Y0022361D01*
X0115798Y0022497D01*
X0115873Y0022631D01*
X0115950Y0022763D01*
X0116032Y0022893D01*
X0116116Y0023021D01*
X0116204Y0023147D01*
X0116295Y0023270D01*
X0116389Y0023391D01*
X0116487Y0023509D01*
X0116587Y0023625D01*
X0116691Y0023738D01*
X0116797Y0023849D01*
X0116906Y0023957D01*
X0117018Y0024062D01*
X0117132Y0024163D01*
X0117250Y0024262D01*
X0117369Y0024358D01*
X0117491Y0024451D01*
X0117616Y0024540D01*
X0117743Y0024627D01*
X0117872Y0024709D01*
X0118003Y0024789D01*
X0118136Y0024865D01*
X0118271Y0024938D01*
X0118408Y0025007D01*
X0118547Y0025072D01*
X0118687Y0025134D01*
X0118829Y0025192D01*
X0118972Y0025247D01*
X0119117Y0025298D01*
X0119263Y0025345D01*
X0119410Y0025388D01*
X0119558Y0025427D01*
X0119707Y0025463D01*
X0119857Y0025494D01*
X0120008Y0025522D01*
X0120159Y0025546D01*
X0120312Y0025566D01*
X0120464Y0025582D01*
X0120617Y0025594D01*
X0120770Y0025602D01*
X0120923Y0025606D01*
X0121077Y0025606D01*
X0121230Y0025602D01*
X0121383Y0025594D01*
X0121536Y0025582D01*
X0121688Y0025566D01*
X0121841Y0025546D01*
X0121992Y0025522D01*
X0122143Y0025494D01*
X0122293Y0025463D01*
X0122442Y0025427D01*
X0122590Y0025388D01*
X0122737Y0025345D01*
X0122883Y0025298D01*
X0123028Y0025247D01*
X0123171Y0025192D01*
X0123313Y0025134D01*
X0123453Y0025072D01*
X0123592Y0025007D01*
X0123729Y0024938D01*
X0123864Y0024865D01*
X0123997Y0024789D01*
X0124128Y0024709D01*
X0124257Y0024627D01*
X0124384Y0024540D01*
X0124509Y0024451D01*
X0124631Y0024358D01*
X0124750Y0024262D01*
X0124868Y0024163D01*
X0124982Y0024062D01*
X0125094Y0023957D01*
X0125203Y0023849D01*
X0125309Y0023738D01*
X0125413Y0023625D01*
X0125513Y0023509D01*
X0125611Y0023391D01*
X0125705Y0023270D01*
X0125796Y0023147D01*
X0125884Y0023021D01*
X0125968Y0022893D01*
X0126050Y0022763D01*
X0126127Y0022631D01*
X0126202Y0022497D01*
X0126273Y0022361D01*
X0126340Y0022223D01*
X0126404Y0022083D01*
X0126464Y0021942D01*
X0126520Y0021800D01*
X0126573Y0021656D01*
X0126622Y0021510D01*
X0126667Y0021364D01*
X0126708Y0021216D01*
X0126745Y0021068D01*
X0126779Y0020918D01*
X0126809Y0020767D01*
X0126834Y0020616D01*
X0126856Y0020465D01*
X0126874Y0020312D01*
X0126888Y0020160D01*
X0126898Y0020007D01*
X0126904Y0019853D01*
X0126906Y0019700D01*
X0126904Y0019547D01*
X0126898Y0019393D01*
X0126888Y0019240D01*
X0126874Y0019088D01*
X0126856Y0018935D01*
X0126834Y0018784D01*
X0126809Y0018633D01*
X0126779Y0018482D01*
X0126745Y0018332D01*
X0126708Y0018184D01*
X0126667Y0018036D01*
X0126622Y0017890D01*
X0126573Y0017744D01*
X0126520Y0017600D01*
X0126464Y0017458D01*
X0126404Y0017317D01*
X0126340Y0017177D01*
X0126273Y0017039D01*
X0126202Y0016903D01*
X0126127Y0016769D01*
X0126050Y0016637D01*
X0125968Y0016507D01*
X0125884Y0016379D01*
X0125796Y0016253D01*
X0125705Y0016130D01*
X0125611Y0016009D01*
X0125513Y0015891D01*
X0125413Y0015775D01*
X0125309Y0015662D01*
X0125203Y0015551D01*
X0125094Y0015443D01*
X0124982Y0015338D01*
X0124868Y0015237D01*
X0124750Y0015138D01*
X0124631Y0015042D01*
X0124509Y0014949D01*
X0124384Y0014860D01*
X0124257Y0014773D01*
X0124128Y0014691D01*
X0123997Y0014611D01*
X0123864Y0014535D01*
X0123729Y0014462D01*
X0123592Y0014393D01*
X0123453Y0014328D01*
X0123313Y0014266D01*
X0123171Y0014208D01*
X0123028Y0014153D01*
X0122883Y0014102D01*
X0122737Y0014055D01*
X0122590Y0014012D01*
X0122442Y0013973D01*
X0122293Y0013937D01*
X0122143Y0013906D01*
X0121992Y0013878D01*
X0121841Y0013854D01*
X0121688Y0013834D01*
X0121536Y0013818D01*
X0121383Y0013806D01*
X0121230Y0013798D01*
X0121077Y0013794D01*
X0120923Y0013794D01*
X0120770Y0013798D01*
X0120617Y0013806D01*
X0120464Y0013818D01*
X0120312Y0013834D01*
X0120159Y0013854D01*
X0120008Y0013878D01*
X0119857Y0013906D01*
X0119707Y0013937D01*
X0119558Y0013973D01*
X0119410Y0014012D01*
X0119263Y0014055D01*
X0119117Y0014102D01*
X0118972Y0014153D01*
X0118829Y0014208D01*
X0118687Y0014266D01*
X0118547Y0014328D01*
X0118408Y0014393D01*
X0118271Y0014462D01*
X0118136Y0014535D01*
X0118003Y0014611D01*
X0117872Y0014691D01*
X0117743Y0014773D01*
X0117616Y0014860D01*
X0117491Y0014949D01*
X0117369Y0015042D01*
X0117250Y0015138D01*
X0117132Y0015237D01*
X0117018Y0015338D01*
X0116906Y0015443D01*
X0116797Y0015551D01*
X0116691Y0015662D01*
X0116587Y0015775D01*
X0116487Y0015891D01*
X0116389Y0016009D01*
X0116295Y0016130D01*
X0116204Y0016253D01*
X0116116Y0016379D01*
X0116032Y0016507D01*
X0115950Y0016637D01*
X0115873Y0016769D01*
X0115798Y0016903D01*
X0115727Y0017039D01*
X0115660Y0017177D01*
X0115596Y0017317D01*
X0115536Y0017458D01*
X0115480Y0017600D01*
X0115427Y0017744D01*
X0115378Y0017890D01*
X0115333Y0018036D01*
X0115292Y0018184D01*
X0115255Y0018332D01*
X0115221Y0018482D01*
X0115191Y0018633D01*
X0115166Y0018784D01*
X0115144Y0018935D01*
X0115126Y0019088D01*
X0115112Y0019240D01*
X0115102Y0019393D01*
X0115096Y0019547D01*
X0115094Y0019700D01*
D11*
X0115300Y0035500D02*
X0115300Y0041900D01*
X0117078Y0041900D01*
X0117161Y0041898D01*
X0117244Y0041892D01*
X0117327Y0041882D01*
X0117410Y0041869D01*
X0117491Y0041851D01*
X0117572Y0041830D01*
X0117651Y0041805D01*
X0117729Y0041776D01*
X0117806Y0041744D01*
X0117881Y0041708D01*
X0117955Y0041669D01*
X0118026Y0041626D01*
X0118096Y0041580D01*
X0118163Y0041530D01*
X0118228Y0041478D01*
X0118290Y0041423D01*
X0118350Y0041364D01*
X0118407Y0041303D01*
X0118461Y0041240D01*
X0118512Y0041174D01*
X0118559Y0041105D01*
X0118604Y0041035D01*
X0118645Y0040962D01*
X0118682Y0040888D01*
X0118717Y0040812D01*
X0118747Y0040734D01*
X0118774Y0040656D01*
X0118797Y0040575D01*
X0118817Y0040494D01*
X0118832Y0040412D01*
X0118844Y0040330D01*
X0118852Y0040247D01*
X0118856Y0040164D01*
X0118856Y0040080D01*
X0118852Y0039997D01*
X0118844Y0039914D01*
X0118832Y0039832D01*
X0118817Y0039750D01*
X0118797Y0039669D01*
X0118774Y0039588D01*
X0118747Y0039510D01*
X0118717Y0039432D01*
X0118682Y0039356D01*
X0118645Y0039282D01*
X0118604Y0039209D01*
X0118559Y0039139D01*
X0118512Y0039070D01*
X0118461Y0039004D01*
X0118407Y0038941D01*
X0118350Y0038880D01*
X0118290Y0038821D01*
X0118228Y0038766D01*
X0118163Y0038714D01*
X0118096Y0038664D01*
X0118026Y0038618D01*
X0117955Y0038575D01*
X0117881Y0038536D01*
X0117806Y0038500D01*
X0117729Y0038468D01*
X0117651Y0038439D01*
X0117572Y0038414D01*
X0117491Y0038393D01*
X0117410Y0038375D01*
X0117327Y0038362D01*
X0117244Y0038352D01*
X0117161Y0038346D01*
X0117078Y0038344D01*
X0115300Y0038344D01*
X0115300Y0045500D02*
X0115300Y0051900D01*
X0117078Y0051900D01*
X0117161Y0051898D01*
X0117244Y0051892D01*
X0117327Y0051882D01*
X0117410Y0051869D01*
X0117491Y0051851D01*
X0117572Y0051830D01*
X0117651Y0051805D01*
X0117729Y0051776D01*
X0117806Y0051744D01*
X0117881Y0051708D01*
X0117955Y0051669D01*
X0118026Y0051626D01*
X0118096Y0051580D01*
X0118163Y0051530D01*
X0118228Y0051478D01*
X0118290Y0051423D01*
X0118350Y0051364D01*
X0118407Y0051303D01*
X0118461Y0051240D01*
X0118512Y0051174D01*
X0118559Y0051105D01*
X0118604Y0051035D01*
X0118645Y0050962D01*
X0118682Y0050888D01*
X0118717Y0050812D01*
X0118747Y0050734D01*
X0118774Y0050656D01*
X0118797Y0050575D01*
X0118817Y0050494D01*
X0118832Y0050412D01*
X0118844Y0050330D01*
X0118852Y0050247D01*
X0118856Y0050164D01*
X0118856Y0050080D01*
X0118852Y0049997D01*
X0118844Y0049914D01*
X0118832Y0049832D01*
X0118817Y0049750D01*
X0118797Y0049669D01*
X0118774Y0049588D01*
X0118747Y0049510D01*
X0118717Y0049432D01*
X0118682Y0049356D01*
X0118645Y0049282D01*
X0118604Y0049209D01*
X0118559Y0049139D01*
X0118512Y0049070D01*
X0118461Y0049004D01*
X0118407Y0048941D01*
X0118350Y0048880D01*
X0118290Y0048821D01*
X0118228Y0048766D01*
X0118163Y0048714D01*
X0118096Y0048664D01*
X0118026Y0048618D01*
X0117955Y0048575D01*
X0117881Y0048536D01*
X0117806Y0048500D01*
X0117729Y0048468D01*
X0117651Y0048439D01*
X0117572Y0048414D01*
X0117491Y0048393D01*
X0117410Y0048375D01*
X0117327Y0048362D01*
X0117244Y0048352D01*
X0117161Y0048346D01*
X0117078Y0048344D01*
X0115300Y0048344D01*
X0121166Y0051189D02*
X0121166Y0051900D01*
X0124721Y0051900D01*
X0122944Y0045500D01*
X0121522Y0040478D02*
X0121524Y0040404D01*
X0121530Y0040329D01*
X0121540Y0040256D01*
X0121553Y0040182D01*
X0121570Y0040110D01*
X0121592Y0040039D01*
X0121616Y0039968D01*
X0121645Y0039900D01*
X0121677Y0039832D01*
X0121713Y0039767D01*
X0121751Y0039704D01*
X0121794Y0039642D01*
X0121839Y0039583D01*
X0121887Y0039526D01*
X0121938Y0039472D01*
X0121992Y0039421D01*
X0122049Y0039373D01*
X0122108Y0039328D01*
X0122170Y0039285D01*
X0122233Y0039247D01*
X0122298Y0039211D01*
X0122366Y0039179D01*
X0122434Y0039150D01*
X0122505Y0039126D01*
X0122576Y0039104D01*
X0122648Y0039087D01*
X0122722Y0039074D01*
X0122795Y0039064D01*
X0122870Y0039058D01*
X0122944Y0039056D01*
X0123018Y0039058D01*
X0123093Y0039064D01*
X0123166Y0039074D01*
X0123240Y0039087D01*
X0123312Y0039104D01*
X0123383Y0039126D01*
X0123454Y0039150D01*
X0123522Y0039179D01*
X0123590Y0039211D01*
X0123655Y0039247D01*
X0123718Y0039285D01*
X0123780Y0039328D01*
X0123839Y0039373D01*
X0123896Y0039421D01*
X0123950Y0039472D01*
X0124001Y0039526D01*
X0124049Y0039583D01*
X0124094Y0039642D01*
X0124137Y0039704D01*
X0124175Y0039767D01*
X0124211Y0039832D01*
X0124243Y0039900D01*
X0124272Y0039968D01*
X0124296Y0040039D01*
X0124318Y0040110D01*
X0124335Y0040182D01*
X0124348Y0040256D01*
X0124358Y0040329D01*
X0124364Y0040404D01*
X0124366Y0040478D01*
X0124364Y0040552D01*
X0124358Y0040627D01*
X0124348Y0040700D01*
X0124335Y0040774D01*
X0124318Y0040846D01*
X0124296Y0040917D01*
X0124272Y0040988D01*
X0124243Y0041056D01*
X0124211Y0041124D01*
X0124175Y0041189D01*
X0124137Y0041252D01*
X0124094Y0041314D01*
X0124049Y0041373D01*
X0124001Y0041430D01*
X0123950Y0041484D01*
X0123896Y0041535D01*
X0123839Y0041583D01*
X0123780Y0041628D01*
X0123718Y0041671D01*
X0123655Y0041709D01*
X0123590Y0041745D01*
X0123522Y0041777D01*
X0123454Y0041806D01*
X0123383Y0041830D01*
X0123312Y0041852D01*
X0123240Y0041869D01*
X0123166Y0041882D01*
X0123093Y0041892D01*
X0123018Y0041898D01*
X0122944Y0041900D01*
X0122870Y0041898D01*
X0122795Y0041892D01*
X0122722Y0041882D01*
X0122648Y0041869D01*
X0122576Y0041852D01*
X0122505Y0041830D01*
X0122434Y0041806D01*
X0122366Y0041777D01*
X0122298Y0041745D01*
X0122233Y0041709D01*
X0122170Y0041671D01*
X0122108Y0041628D01*
X0122049Y0041583D01*
X0121992Y0041535D01*
X0121938Y0041484D01*
X0121887Y0041430D01*
X0121839Y0041373D01*
X0121794Y0041314D01*
X0121751Y0041252D01*
X0121713Y0041189D01*
X0121677Y0041124D01*
X0121645Y0041056D01*
X0121616Y0040988D01*
X0121592Y0040917D01*
X0121570Y0040846D01*
X0121553Y0040774D01*
X0121540Y0040700D01*
X0121530Y0040627D01*
X0121524Y0040552D01*
X0121522Y0040478D01*
X0121166Y0037278D02*
X0121168Y0037195D01*
X0121174Y0037112D01*
X0121184Y0037029D01*
X0121197Y0036946D01*
X0121215Y0036865D01*
X0121236Y0036784D01*
X0121261Y0036705D01*
X0121290Y0036627D01*
X0121322Y0036550D01*
X0121358Y0036475D01*
X0121397Y0036401D01*
X0121440Y0036330D01*
X0121486Y0036260D01*
X0121536Y0036193D01*
X0121588Y0036128D01*
X0121643Y0036066D01*
X0121702Y0036006D01*
X0121763Y0035949D01*
X0121826Y0035895D01*
X0121892Y0035844D01*
X0121961Y0035797D01*
X0122031Y0035752D01*
X0122104Y0035711D01*
X0122178Y0035674D01*
X0122254Y0035639D01*
X0122332Y0035609D01*
X0122410Y0035582D01*
X0122491Y0035559D01*
X0122572Y0035539D01*
X0122654Y0035524D01*
X0122736Y0035512D01*
X0122819Y0035504D01*
X0122902Y0035500D01*
X0122986Y0035500D01*
X0123069Y0035504D01*
X0123152Y0035512D01*
X0123234Y0035524D01*
X0123316Y0035539D01*
X0123397Y0035559D01*
X0123478Y0035582D01*
X0123556Y0035609D01*
X0123634Y0035639D01*
X0123710Y0035674D01*
X0123784Y0035711D01*
X0123857Y0035752D01*
X0123927Y0035797D01*
X0123996Y0035844D01*
X0124062Y0035895D01*
X0124125Y0035949D01*
X0124186Y0036006D01*
X0124245Y0036066D01*
X0124300Y0036128D01*
X0124352Y0036193D01*
X0124402Y0036260D01*
X0124448Y0036330D01*
X0124491Y0036401D01*
X0124530Y0036475D01*
X0124566Y0036550D01*
X0124598Y0036627D01*
X0124627Y0036705D01*
X0124652Y0036784D01*
X0124673Y0036865D01*
X0124691Y0036946D01*
X0124704Y0037029D01*
X0124714Y0037112D01*
X0124720Y0037195D01*
X0124722Y0037278D01*
X0124720Y0037361D01*
X0124714Y0037444D01*
X0124704Y0037527D01*
X0124691Y0037610D01*
X0124673Y0037691D01*
X0124652Y0037772D01*
X0124627Y0037851D01*
X0124598Y0037929D01*
X0124566Y0038006D01*
X0124530Y0038081D01*
X0124491Y0038155D01*
X0124448Y0038226D01*
X0124402Y0038296D01*
X0124352Y0038363D01*
X0124300Y0038428D01*
X0124245Y0038490D01*
X0124186Y0038550D01*
X0124125Y0038607D01*
X0124062Y0038661D01*
X0123996Y0038712D01*
X0123927Y0038759D01*
X0123857Y0038804D01*
X0123784Y0038845D01*
X0123710Y0038882D01*
X0123634Y0038917D01*
X0123556Y0038947D01*
X0123478Y0038974D01*
X0123397Y0038997D01*
X0123316Y0039017D01*
X0123234Y0039032D01*
X0123152Y0039044D01*
X0123069Y0039052D01*
X0122986Y0039056D01*
X0122902Y0039056D01*
X0122819Y0039052D01*
X0122736Y0039044D01*
X0122654Y0039032D01*
X0122572Y0039017D01*
X0122491Y0038997D01*
X0122410Y0038974D01*
X0122332Y0038947D01*
X0122254Y0038917D01*
X0122178Y0038882D01*
X0122104Y0038845D01*
X0122031Y0038804D01*
X0121961Y0038759D01*
X0121892Y0038712D01*
X0121826Y0038661D01*
X0121763Y0038607D01*
X0121702Y0038550D01*
X0121643Y0038490D01*
X0121588Y0038428D01*
X0121536Y0038363D01*
X0121486Y0038296D01*
X0121440Y0038226D01*
X0121397Y0038155D01*
X0121358Y0038081D01*
X0121322Y0038006D01*
X0121290Y0037929D01*
X0121261Y0037851D01*
X0121236Y0037772D01*
X0121215Y0037691D01*
X0121197Y0037610D01*
X0121184Y0037527D01*
X0121174Y0037444D01*
X0121168Y0037361D01*
X0121166Y0037278D01*
X0136300Y0022809D02*
X0142700Y0022809D01*
X0142700Y0021031D01*
X0142698Y0020967D01*
X0142692Y0020902D01*
X0142683Y0020839D01*
X0142669Y0020776D01*
X0142652Y0020714D01*
X0142631Y0020653D01*
X0142606Y0020593D01*
X0142578Y0020535D01*
X0142546Y0020479D01*
X0142511Y0020425D01*
X0142473Y0020373D01*
X0142432Y0020323D01*
X0142387Y0020277D01*
X0142341Y0020232D01*
X0142291Y0020191D01*
X0142239Y0020153D01*
X0142185Y0020118D01*
X0142129Y0020086D01*
X0142071Y0020058D01*
X0142011Y0020033D01*
X0141950Y0020012D01*
X0141888Y0019995D01*
X0141825Y0019981D01*
X0141762Y0019972D01*
X0141697Y0019966D01*
X0141633Y0019964D01*
X0141633Y0019965D02*
X0139500Y0019965D01*
X0139500Y0019964D02*
X0139436Y0019966D01*
X0139371Y0019972D01*
X0139308Y0019981D01*
X0139245Y0019995D01*
X0139183Y0020012D01*
X0139122Y0020033D01*
X0139062Y0020058D01*
X0139004Y0020086D01*
X0138948Y0020118D01*
X0138894Y0020153D01*
X0138842Y0020191D01*
X0138792Y0020232D01*
X0138746Y0020277D01*
X0138701Y0020323D01*
X0138660Y0020373D01*
X0138622Y0020425D01*
X0138587Y0020479D01*
X0138555Y0020535D01*
X0138527Y0020593D01*
X0138502Y0020653D01*
X0138481Y0020714D01*
X0138464Y0020776D01*
X0138450Y0020839D01*
X0138441Y0020902D01*
X0138435Y0020967D01*
X0138433Y0021031D01*
X0138433Y0022809D01*
X0138433Y0017270D02*
X0138433Y0015493D01*
X0138435Y0015429D01*
X0138441Y0015364D01*
X0138450Y0015301D01*
X0138464Y0015238D01*
X0138481Y0015176D01*
X0138502Y0015115D01*
X0138527Y0015055D01*
X0138555Y0014997D01*
X0138587Y0014941D01*
X0138622Y0014887D01*
X0138660Y0014835D01*
X0138701Y0014785D01*
X0138746Y0014739D01*
X0138792Y0014694D01*
X0138842Y0014653D01*
X0138894Y0014615D01*
X0138948Y0014580D01*
X0139004Y0014548D01*
X0139062Y0014520D01*
X0139122Y0014495D01*
X0139183Y0014474D01*
X0139245Y0014457D01*
X0139308Y0014443D01*
X0139371Y0014434D01*
X0139436Y0014428D01*
X0139500Y0014426D01*
X0141633Y0014426D01*
X0141697Y0014428D01*
X0141762Y0014434D01*
X0141825Y0014443D01*
X0141888Y0014457D01*
X0141950Y0014474D01*
X0142011Y0014495D01*
X0142071Y0014520D01*
X0142129Y0014548D01*
X0142185Y0014580D01*
X0142239Y0014615D01*
X0142291Y0014653D01*
X0142341Y0014694D01*
X0142387Y0014739D01*
X0142432Y0014785D01*
X0142473Y0014835D01*
X0142511Y0014887D01*
X0142546Y0014941D01*
X0142578Y0014997D01*
X0142606Y0015055D01*
X0142631Y0015115D01*
X0142652Y0015176D01*
X0142669Y0015238D01*
X0142683Y0015301D01*
X0142692Y0015364D01*
X0142698Y0015429D01*
X0142700Y0015493D01*
X0142700Y0017270D01*
X0136300Y0017270D01*
X0136300Y0012267D02*
X0142700Y0010133D01*
X0136300Y0008000D01*
X0093700Y0024633D02*
X0087300Y0026767D01*
X0090500Y0028926D02*
X0092633Y0028926D01*
X0092697Y0028928D01*
X0092762Y0028934D01*
X0092825Y0028943D01*
X0092888Y0028957D01*
X0092950Y0028974D01*
X0093011Y0028995D01*
X0093071Y0029020D01*
X0093129Y0029048D01*
X0093185Y0029080D01*
X0093239Y0029115D01*
X0093291Y0029153D01*
X0093341Y0029194D01*
X0093387Y0029239D01*
X0093432Y0029285D01*
X0093473Y0029335D01*
X0093511Y0029387D01*
X0093546Y0029441D01*
X0093578Y0029497D01*
X0093606Y0029555D01*
X0093631Y0029615D01*
X0093652Y0029676D01*
X0093669Y0029738D01*
X0093683Y0029801D01*
X0093692Y0029864D01*
X0093698Y0029929D01*
X0093700Y0029993D01*
X0093700Y0031770D01*
X0087300Y0031770D01*
X0089433Y0031770D02*
X0089433Y0029993D01*
X0089435Y0029929D01*
X0089441Y0029864D01*
X0089450Y0029801D01*
X0089464Y0029738D01*
X0089481Y0029676D01*
X0089502Y0029615D01*
X0089527Y0029555D01*
X0089555Y0029497D01*
X0089587Y0029441D01*
X0089622Y0029387D01*
X0089660Y0029335D01*
X0089701Y0029285D01*
X0089746Y0029239D01*
X0089792Y0029194D01*
X0089842Y0029153D01*
X0089894Y0029115D01*
X0089948Y0029080D01*
X0090004Y0029048D01*
X0090062Y0029020D01*
X0090122Y0028995D01*
X0090183Y0028974D01*
X0090245Y0028957D01*
X0090308Y0028943D01*
X0090371Y0028934D01*
X0090436Y0028928D01*
X0090500Y0028926D01*
X0093700Y0024633D02*
X0087300Y0022500D01*
X0090500Y0034465D02*
X0092633Y0034465D01*
X0092633Y0034464D02*
X0092697Y0034466D01*
X0092762Y0034472D01*
X0092825Y0034481D01*
X0092888Y0034495D01*
X0092950Y0034512D01*
X0093011Y0034533D01*
X0093071Y0034558D01*
X0093129Y0034586D01*
X0093185Y0034618D01*
X0093239Y0034653D01*
X0093291Y0034691D01*
X0093341Y0034732D01*
X0093387Y0034777D01*
X0093432Y0034823D01*
X0093473Y0034873D01*
X0093511Y0034925D01*
X0093546Y0034979D01*
X0093578Y0035035D01*
X0093606Y0035093D01*
X0093631Y0035153D01*
X0093652Y0035214D01*
X0093669Y0035276D01*
X0093683Y0035339D01*
X0093692Y0035402D01*
X0093698Y0035467D01*
X0093700Y0035531D01*
X0093700Y0037309D01*
X0087300Y0037309D01*
X0089433Y0037309D02*
X0089433Y0035531D01*
X0089435Y0035467D01*
X0089441Y0035402D01*
X0089450Y0035339D01*
X0089464Y0035276D01*
X0089481Y0035214D01*
X0089502Y0035153D01*
X0089527Y0035093D01*
X0089555Y0035035D01*
X0089587Y0034979D01*
X0089622Y0034925D01*
X0089660Y0034873D01*
X0089701Y0034823D01*
X0089746Y0034777D01*
X0089792Y0034732D01*
X0089842Y0034691D01*
X0089894Y0034653D01*
X0089948Y0034618D01*
X0090004Y0034586D01*
X0090062Y0034558D01*
X0090122Y0034533D01*
X0090183Y0034512D01*
X0090245Y0034495D01*
X0090308Y0034481D01*
X0090371Y0034472D01*
X0090436Y0034466D01*
X0090500Y0034464D01*
X0074700Y0035629D02*
X0074700Y0037406D01*
X0074700Y0035629D02*
X0068300Y0035629D01*
X0068300Y0037406D01*
X0068302Y0037488D01*
X0068308Y0037570D01*
X0068317Y0037652D01*
X0068330Y0037733D01*
X0068347Y0037813D01*
X0068368Y0037893D01*
X0068392Y0037971D01*
X0068420Y0038048D01*
X0068451Y0038124D01*
X0068486Y0038199D01*
X0068525Y0038271D01*
X0068566Y0038342D01*
X0068611Y0038411D01*
X0068659Y0038477D01*
X0068710Y0038542D01*
X0068764Y0038604D01*
X0068821Y0038663D01*
X0068880Y0038720D01*
X0068942Y0038774D01*
X0069007Y0038825D01*
X0069073Y0038873D01*
X0069142Y0038918D01*
X0069213Y0038959D01*
X0069285Y0038998D01*
X0069360Y0039033D01*
X0069436Y0039064D01*
X0069513Y0039092D01*
X0069591Y0039116D01*
X0069671Y0039137D01*
X0069751Y0039154D01*
X0069832Y0039167D01*
X0069914Y0039176D01*
X0069996Y0039182D01*
X0070078Y0039184D01*
X0072922Y0039184D01*
X0073004Y0039182D01*
X0073086Y0039176D01*
X0073168Y0039167D01*
X0073249Y0039154D01*
X0073329Y0039137D01*
X0073409Y0039116D01*
X0073487Y0039092D01*
X0073564Y0039064D01*
X0073640Y0039033D01*
X0073715Y0038998D01*
X0073787Y0038959D01*
X0073858Y0038918D01*
X0073927Y0038873D01*
X0073993Y0038825D01*
X0074058Y0038774D01*
X0074120Y0038720D01*
X0074179Y0038663D01*
X0074236Y0038604D01*
X0074290Y0038542D01*
X0074341Y0038477D01*
X0074389Y0038411D01*
X0074434Y0038342D01*
X0074475Y0038271D01*
X0074514Y0038199D01*
X0074549Y0038124D01*
X0074580Y0038048D01*
X0074608Y0037971D01*
X0074632Y0037893D01*
X0074653Y0037813D01*
X0074670Y0037733D01*
X0074683Y0037652D01*
X0074692Y0037570D01*
X0074698Y0037488D01*
X0074700Y0037406D01*
X0074700Y0032620D02*
X0068300Y0032620D01*
X0068300Y0029064D02*
X0074700Y0032620D01*
X0074700Y0029064D02*
X0068300Y0029064D01*
X0068300Y0026056D02*
X0068300Y0023922D01*
X0068302Y0023848D01*
X0068308Y0023773D01*
X0068318Y0023700D01*
X0068331Y0023626D01*
X0068348Y0023554D01*
X0068370Y0023483D01*
X0068394Y0023412D01*
X0068423Y0023344D01*
X0068455Y0023276D01*
X0068491Y0023211D01*
X0068529Y0023148D01*
X0068572Y0023086D01*
X0068617Y0023027D01*
X0068665Y0022970D01*
X0068717Y0022916D01*
X0068771Y0022865D01*
X0068827Y0022817D01*
X0068886Y0022772D01*
X0068948Y0022729D01*
X0069011Y0022691D01*
X0069076Y0022655D01*
X0069144Y0022623D01*
X0069212Y0022594D01*
X0069283Y0022570D01*
X0069354Y0022548D01*
X0069426Y0022531D01*
X0069500Y0022518D01*
X0069573Y0022508D01*
X0069648Y0022502D01*
X0069722Y0022500D01*
X0073278Y0022500D01*
X0073352Y0022502D01*
X0073427Y0022508D01*
X0073500Y0022518D01*
X0073574Y0022531D01*
X0073646Y0022548D01*
X0073717Y0022570D01*
X0073788Y0022594D01*
X0073856Y0022623D01*
X0073924Y0022655D01*
X0073989Y0022691D01*
X0074052Y0022729D01*
X0074114Y0022772D01*
X0074173Y0022817D01*
X0074230Y0022865D01*
X0074284Y0022916D01*
X0074335Y0022970D01*
X0074383Y0023027D01*
X0074428Y0023086D01*
X0074471Y0023148D01*
X0074509Y0023211D01*
X0074545Y0023276D01*
X0074577Y0023344D01*
X0074606Y0023412D01*
X0074630Y0023483D01*
X0074652Y0023554D01*
X0074669Y0023626D01*
X0074682Y0023700D01*
X0074692Y0023773D01*
X0074698Y0023848D01*
X0074700Y0023922D01*
X0074700Y0026056D01*
X0071144Y0026056D01*
X0071144Y0024989D01*
X0060200Y0024633D02*
X0060200Y0022500D01*
X0060200Y0024633D02*
X0060198Y0024707D01*
X0060192Y0024782D01*
X0060182Y0024855D01*
X0060169Y0024929D01*
X0060152Y0025001D01*
X0060130Y0025072D01*
X0060106Y0025143D01*
X0060077Y0025211D01*
X0060045Y0025279D01*
X0060009Y0025344D01*
X0059971Y0025407D01*
X0059928Y0025469D01*
X0059883Y0025528D01*
X0059835Y0025585D01*
X0059784Y0025639D01*
X0059730Y0025690D01*
X0059673Y0025738D01*
X0059614Y0025783D01*
X0059552Y0025826D01*
X0059489Y0025864D01*
X0059424Y0025900D01*
X0059356Y0025932D01*
X0059288Y0025961D01*
X0059217Y0025985D01*
X0059146Y0026007D01*
X0059074Y0026024D01*
X0059000Y0026037D01*
X0058927Y0026047D01*
X0058852Y0026053D01*
X0058778Y0026055D01*
X0058778Y0026056D02*
X0058067Y0026056D01*
X0058067Y0026055D02*
X0057993Y0026053D01*
X0057918Y0026047D01*
X0057845Y0026037D01*
X0057771Y0026024D01*
X0057699Y0026007D01*
X0057628Y0025985D01*
X0057557Y0025961D01*
X0057489Y0025932D01*
X0057421Y0025900D01*
X0057356Y0025864D01*
X0057293Y0025826D01*
X0057231Y0025783D01*
X0057172Y0025738D01*
X0057115Y0025690D01*
X0057061Y0025639D01*
X0057010Y0025585D01*
X0056962Y0025528D01*
X0056917Y0025469D01*
X0056874Y0025407D01*
X0056836Y0025344D01*
X0056800Y0025279D01*
X0056768Y0025211D01*
X0056739Y0025143D01*
X0056715Y0025072D01*
X0056693Y0025001D01*
X0056676Y0024929D01*
X0056663Y0024855D01*
X0056653Y0024782D01*
X0056647Y0024707D01*
X0056645Y0024633D01*
X0056644Y0024633D02*
X0056644Y0022500D01*
X0053800Y0022500D01*
X0053800Y0026056D01*
X0053800Y0028298D02*
X0060200Y0030432D01*
X0053800Y0032565D01*
X0049700Y0030432D02*
X0043300Y0032565D01*
X0043300Y0034808D02*
X0043300Y0036941D01*
X0043302Y0037015D01*
X0043308Y0037090D01*
X0043318Y0037163D01*
X0043331Y0037237D01*
X0043348Y0037309D01*
X0043370Y0037380D01*
X0043394Y0037451D01*
X0043423Y0037519D01*
X0043455Y0037587D01*
X0043491Y0037652D01*
X0043529Y0037715D01*
X0043572Y0037777D01*
X0043617Y0037836D01*
X0043665Y0037893D01*
X0043716Y0037947D01*
X0043770Y0037998D01*
X0043827Y0038046D01*
X0043886Y0038091D01*
X0043948Y0038134D01*
X0044011Y0038172D01*
X0044076Y0038208D01*
X0044144Y0038240D01*
X0044212Y0038269D01*
X0044283Y0038293D01*
X0044354Y0038315D01*
X0044426Y0038332D01*
X0044500Y0038345D01*
X0044573Y0038355D01*
X0044648Y0038361D01*
X0044722Y0038363D01*
X0044796Y0038361D01*
X0044871Y0038355D01*
X0044944Y0038345D01*
X0045018Y0038332D01*
X0045090Y0038315D01*
X0045161Y0038293D01*
X0045232Y0038269D01*
X0045300Y0038240D01*
X0045368Y0038208D01*
X0045433Y0038172D01*
X0045496Y0038134D01*
X0045558Y0038091D01*
X0045617Y0038046D01*
X0045674Y0037998D01*
X0045728Y0037947D01*
X0045779Y0037893D01*
X0045827Y0037836D01*
X0045872Y0037777D01*
X0045915Y0037715D01*
X0045953Y0037652D01*
X0045989Y0037587D01*
X0046021Y0037519D01*
X0046050Y0037451D01*
X0046074Y0037380D01*
X0046096Y0037309D01*
X0046113Y0037237D01*
X0046126Y0037163D01*
X0046136Y0037090D01*
X0046142Y0037015D01*
X0046144Y0036941D01*
X0046144Y0035519D01*
X0046144Y0036586D02*
X0046146Y0036669D01*
X0046152Y0036752D01*
X0046162Y0036835D01*
X0046175Y0036918D01*
X0046193Y0036999D01*
X0046214Y0037080D01*
X0046239Y0037159D01*
X0046268Y0037237D01*
X0046300Y0037314D01*
X0046336Y0037389D01*
X0046375Y0037463D01*
X0046418Y0037534D01*
X0046464Y0037604D01*
X0046514Y0037671D01*
X0046566Y0037736D01*
X0046621Y0037798D01*
X0046680Y0037858D01*
X0046741Y0037915D01*
X0046804Y0037969D01*
X0046870Y0038020D01*
X0046939Y0038067D01*
X0047009Y0038112D01*
X0047082Y0038153D01*
X0047156Y0038190D01*
X0047232Y0038225D01*
X0047310Y0038255D01*
X0047388Y0038282D01*
X0047469Y0038305D01*
X0047550Y0038325D01*
X0047632Y0038340D01*
X0047714Y0038352D01*
X0047797Y0038360D01*
X0047880Y0038364D01*
X0047964Y0038364D01*
X0048047Y0038360D01*
X0048130Y0038352D01*
X0048212Y0038340D01*
X0048294Y0038325D01*
X0048375Y0038305D01*
X0048456Y0038282D01*
X0048534Y0038255D01*
X0048612Y0038225D01*
X0048688Y0038190D01*
X0048762Y0038153D01*
X0048835Y0038112D01*
X0048905Y0038067D01*
X0048974Y0038020D01*
X0049040Y0037969D01*
X0049103Y0037915D01*
X0049164Y0037858D01*
X0049223Y0037798D01*
X0049278Y0037736D01*
X0049330Y0037671D01*
X0049380Y0037604D01*
X0049426Y0037534D01*
X0049469Y0037463D01*
X0049508Y0037389D01*
X0049544Y0037314D01*
X0049576Y0037237D01*
X0049605Y0037159D01*
X0049630Y0037080D01*
X0049651Y0036999D01*
X0049669Y0036918D01*
X0049682Y0036835D01*
X0049692Y0036752D01*
X0049698Y0036669D01*
X0049700Y0036586D01*
X0049700Y0034808D01*
X0049700Y0030432D02*
X0043300Y0028298D01*
X0043300Y0024633D02*
X0043300Y0022500D01*
X0043300Y0024633D02*
X0043302Y0024707D01*
X0043308Y0024782D01*
X0043318Y0024855D01*
X0043331Y0024929D01*
X0043348Y0025001D01*
X0043370Y0025072D01*
X0043394Y0025143D01*
X0043423Y0025211D01*
X0043455Y0025279D01*
X0043491Y0025344D01*
X0043529Y0025407D01*
X0043572Y0025469D01*
X0043617Y0025528D01*
X0043665Y0025585D01*
X0043716Y0025639D01*
X0043770Y0025690D01*
X0043827Y0025738D01*
X0043886Y0025783D01*
X0043948Y0025826D01*
X0044011Y0025864D01*
X0044076Y0025900D01*
X0044144Y0025932D01*
X0044212Y0025961D01*
X0044283Y0025985D01*
X0044354Y0026007D01*
X0044426Y0026024D01*
X0044500Y0026037D01*
X0044573Y0026047D01*
X0044648Y0026053D01*
X0044722Y0026055D01*
X0044796Y0026053D01*
X0044871Y0026047D01*
X0044944Y0026037D01*
X0045018Y0026024D01*
X0045090Y0026007D01*
X0045161Y0025985D01*
X0045232Y0025961D01*
X0045300Y0025932D01*
X0045368Y0025900D01*
X0045433Y0025864D01*
X0045496Y0025826D01*
X0045558Y0025783D01*
X0045617Y0025738D01*
X0045674Y0025690D01*
X0045728Y0025639D01*
X0045779Y0025585D01*
X0045827Y0025528D01*
X0045872Y0025469D01*
X0045915Y0025407D01*
X0045953Y0025344D01*
X0045989Y0025279D01*
X0046021Y0025211D01*
X0046050Y0025143D01*
X0046074Y0025072D01*
X0046096Y0025001D01*
X0046113Y0024929D01*
X0046126Y0024855D01*
X0046136Y0024782D01*
X0046142Y0024707D01*
X0046144Y0024633D01*
X0046144Y0023211D01*
X0046144Y0024278D02*
X0046146Y0024361D01*
X0046152Y0024444D01*
X0046162Y0024527D01*
X0046175Y0024610D01*
X0046193Y0024691D01*
X0046214Y0024772D01*
X0046239Y0024851D01*
X0046268Y0024929D01*
X0046300Y0025006D01*
X0046336Y0025081D01*
X0046375Y0025155D01*
X0046418Y0025226D01*
X0046464Y0025296D01*
X0046514Y0025363D01*
X0046566Y0025428D01*
X0046621Y0025490D01*
X0046680Y0025550D01*
X0046741Y0025607D01*
X0046804Y0025661D01*
X0046870Y0025712D01*
X0046939Y0025759D01*
X0047009Y0025804D01*
X0047082Y0025845D01*
X0047156Y0025882D01*
X0047232Y0025917D01*
X0047310Y0025947D01*
X0047388Y0025974D01*
X0047469Y0025997D01*
X0047550Y0026017D01*
X0047632Y0026032D01*
X0047714Y0026044D01*
X0047797Y0026052D01*
X0047880Y0026056D01*
X0047964Y0026056D01*
X0048047Y0026052D01*
X0048130Y0026044D01*
X0048212Y0026032D01*
X0048294Y0026017D01*
X0048375Y0025997D01*
X0048456Y0025974D01*
X0048534Y0025947D01*
X0048612Y0025917D01*
X0048688Y0025882D01*
X0048762Y0025845D01*
X0048835Y0025804D01*
X0048905Y0025759D01*
X0048974Y0025712D01*
X0049040Y0025661D01*
X0049103Y0025607D01*
X0049164Y0025550D01*
X0049223Y0025490D01*
X0049278Y0025428D01*
X0049330Y0025363D01*
X0049380Y0025296D01*
X0049426Y0025226D01*
X0049469Y0025155D01*
X0049508Y0025081D01*
X0049544Y0025006D01*
X0049576Y0024929D01*
X0049605Y0024851D01*
X0049630Y0024772D01*
X0049651Y0024691D01*
X0049669Y0024610D01*
X0049682Y0024527D01*
X0049692Y0024444D01*
X0049698Y0024361D01*
X0049700Y0024278D01*
X0049700Y0022500D01*
X0031386Y0036500D02*
X0029608Y0036500D01*
X0031386Y0036500D02*
X0031469Y0036502D01*
X0031552Y0036508D01*
X0031635Y0036518D01*
X0031718Y0036531D01*
X0031799Y0036549D01*
X0031880Y0036570D01*
X0031959Y0036595D01*
X0032037Y0036624D01*
X0032114Y0036656D01*
X0032189Y0036692D01*
X0032263Y0036731D01*
X0032334Y0036774D01*
X0032404Y0036820D01*
X0032471Y0036870D01*
X0032536Y0036922D01*
X0032598Y0036977D01*
X0032658Y0037036D01*
X0032715Y0037097D01*
X0032769Y0037160D01*
X0032820Y0037226D01*
X0032867Y0037295D01*
X0032912Y0037365D01*
X0032953Y0037438D01*
X0032990Y0037512D01*
X0033025Y0037588D01*
X0033055Y0037666D01*
X0033082Y0037744D01*
X0033105Y0037825D01*
X0033125Y0037906D01*
X0033140Y0037988D01*
X0033152Y0038070D01*
X0033160Y0038153D01*
X0033164Y0038236D01*
X0033164Y0038320D01*
X0033160Y0038403D01*
X0033152Y0038486D01*
X0033140Y0038568D01*
X0033125Y0038650D01*
X0033105Y0038731D01*
X0033082Y0038812D01*
X0033055Y0038890D01*
X0033025Y0038968D01*
X0032990Y0039044D01*
X0032953Y0039118D01*
X0032912Y0039191D01*
X0032867Y0039261D01*
X0032820Y0039330D01*
X0032769Y0039396D01*
X0032715Y0039459D01*
X0032658Y0039520D01*
X0032598Y0039579D01*
X0032536Y0039634D01*
X0032471Y0039686D01*
X0032404Y0039736D01*
X0032334Y0039782D01*
X0032263Y0039825D01*
X0032189Y0039864D01*
X0032114Y0039900D01*
X0032037Y0039932D01*
X0031959Y0039961D01*
X0031880Y0039986D01*
X0031799Y0040007D01*
X0031718Y0040025D01*
X0031635Y0040038D01*
X0031552Y0040048D01*
X0031469Y0040054D01*
X0031386Y0040056D01*
X0031741Y0040056D02*
X0030319Y0040056D01*
X0031741Y0040056D02*
X0031815Y0040058D01*
X0031890Y0040064D01*
X0031963Y0040074D01*
X0032037Y0040087D01*
X0032109Y0040104D01*
X0032180Y0040126D01*
X0032251Y0040150D01*
X0032319Y0040179D01*
X0032387Y0040211D01*
X0032452Y0040247D01*
X0032515Y0040285D01*
X0032577Y0040328D01*
X0032636Y0040373D01*
X0032693Y0040421D01*
X0032747Y0040472D01*
X0032798Y0040526D01*
X0032846Y0040583D01*
X0032891Y0040642D01*
X0032934Y0040704D01*
X0032972Y0040767D01*
X0033008Y0040832D01*
X0033040Y0040900D01*
X0033069Y0040968D01*
X0033093Y0041039D01*
X0033115Y0041110D01*
X0033132Y0041182D01*
X0033145Y0041256D01*
X0033155Y0041329D01*
X0033161Y0041404D01*
X0033163Y0041478D01*
X0033161Y0041552D01*
X0033155Y0041627D01*
X0033145Y0041700D01*
X0033132Y0041774D01*
X0033115Y0041846D01*
X0033093Y0041917D01*
X0033069Y0041988D01*
X0033040Y0042056D01*
X0033008Y0042124D01*
X0032972Y0042189D01*
X0032934Y0042252D01*
X0032891Y0042314D01*
X0032846Y0042373D01*
X0032798Y0042430D01*
X0032747Y0042484D01*
X0032693Y0042535D01*
X0032636Y0042583D01*
X0032577Y0042628D01*
X0032515Y0042671D01*
X0032452Y0042709D01*
X0032387Y0042745D01*
X0032319Y0042777D01*
X0032251Y0042806D01*
X0032180Y0042830D01*
X0032109Y0042852D01*
X0032037Y0042869D01*
X0031963Y0042882D01*
X0031890Y0042892D01*
X0031815Y0042898D01*
X0031741Y0042900D01*
X0029608Y0042900D01*
X0027365Y0042900D02*
X0025232Y0036500D01*
X0023098Y0042900D01*
X0019433Y0042900D02*
X0017300Y0042900D01*
X0019433Y0042900D02*
X0019507Y0042898D01*
X0019582Y0042892D01*
X0019655Y0042882D01*
X0019729Y0042869D01*
X0019801Y0042852D01*
X0019872Y0042830D01*
X0019943Y0042806D01*
X0020011Y0042777D01*
X0020079Y0042745D01*
X0020144Y0042709D01*
X0020207Y0042671D01*
X0020269Y0042628D01*
X0020328Y0042583D01*
X0020385Y0042535D01*
X0020439Y0042484D01*
X0020490Y0042430D01*
X0020538Y0042373D01*
X0020583Y0042314D01*
X0020626Y0042252D01*
X0020664Y0042189D01*
X0020700Y0042124D01*
X0020732Y0042056D01*
X0020761Y0041988D01*
X0020785Y0041917D01*
X0020807Y0041846D01*
X0020824Y0041774D01*
X0020837Y0041700D01*
X0020847Y0041627D01*
X0020853Y0041552D01*
X0020855Y0041478D01*
X0020853Y0041404D01*
X0020847Y0041329D01*
X0020837Y0041256D01*
X0020824Y0041182D01*
X0020807Y0041110D01*
X0020785Y0041039D01*
X0020761Y0040968D01*
X0020732Y0040900D01*
X0020700Y0040832D01*
X0020664Y0040767D01*
X0020626Y0040704D01*
X0020583Y0040642D01*
X0020538Y0040583D01*
X0020490Y0040526D01*
X0020439Y0040472D01*
X0020385Y0040421D01*
X0020328Y0040373D01*
X0020269Y0040328D01*
X0020207Y0040285D01*
X0020144Y0040247D01*
X0020079Y0040211D01*
X0020011Y0040179D01*
X0019943Y0040150D01*
X0019872Y0040126D01*
X0019801Y0040104D01*
X0019729Y0040087D01*
X0019655Y0040074D01*
X0019582Y0040064D01*
X0019507Y0040058D01*
X0019433Y0040056D01*
X0018011Y0040056D01*
X0019078Y0040056D02*
X0019161Y0040054D01*
X0019244Y0040048D01*
X0019327Y0040038D01*
X0019410Y0040025D01*
X0019491Y0040007D01*
X0019572Y0039986D01*
X0019651Y0039961D01*
X0019729Y0039932D01*
X0019806Y0039900D01*
X0019881Y0039864D01*
X0019955Y0039825D01*
X0020026Y0039782D01*
X0020096Y0039736D01*
X0020163Y0039686D01*
X0020228Y0039634D01*
X0020290Y0039579D01*
X0020350Y0039520D01*
X0020407Y0039459D01*
X0020461Y0039396D01*
X0020512Y0039330D01*
X0020559Y0039261D01*
X0020604Y0039191D01*
X0020645Y0039118D01*
X0020682Y0039044D01*
X0020717Y0038968D01*
X0020747Y0038890D01*
X0020774Y0038812D01*
X0020797Y0038731D01*
X0020817Y0038650D01*
X0020832Y0038568D01*
X0020844Y0038486D01*
X0020852Y0038403D01*
X0020856Y0038320D01*
X0020856Y0038236D01*
X0020852Y0038153D01*
X0020844Y0038070D01*
X0020832Y0037988D01*
X0020817Y0037906D01*
X0020797Y0037825D01*
X0020774Y0037744D01*
X0020747Y0037666D01*
X0020717Y0037588D01*
X0020682Y0037512D01*
X0020645Y0037438D01*
X0020604Y0037365D01*
X0020559Y0037295D01*
X0020512Y0037226D01*
X0020461Y0037160D01*
X0020407Y0037097D01*
X0020350Y0037036D01*
X0020290Y0036977D01*
X0020228Y0036922D01*
X0020163Y0036870D01*
X0020096Y0036820D01*
X0020026Y0036774D01*
X0019955Y0036731D01*
X0019881Y0036692D01*
X0019806Y0036656D01*
X0019729Y0036624D01*
X0019651Y0036595D01*
X0019572Y0036570D01*
X0019491Y0036549D01*
X0019410Y0036531D01*
X0019327Y0036518D01*
X0019244Y0036508D01*
X0019161Y0036502D01*
X0019078Y0036500D01*
X0017300Y0036500D01*
X0017800Y0106500D02*
X0017800Y0112900D01*
X0019578Y0112900D01*
X0019661Y0112898D01*
X0019744Y0112892D01*
X0019827Y0112882D01*
X0019910Y0112869D01*
X0019991Y0112851D01*
X0020072Y0112830D01*
X0020151Y0112805D01*
X0020229Y0112776D01*
X0020306Y0112744D01*
X0020381Y0112708D01*
X0020455Y0112669D01*
X0020526Y0112626D01*
X0020596Y0112580D01*
X0020663Y0112530D01*
X0020728Y0112478D01*
X0020790Y0112423D01*
X0020850Y0112364D01*
X0020907Y0112303D01*
X0020961Y0112240D01*
X0021012Y0112174D01*
X0021059Y0112105D01*
X0021104Y0112035D01*
X0021145Y0111962D01*
X0021182Y0111888D01*
X0021217Y0111812D01*
X0021247Y0111734D01*
X0021274Y0111656D01*
X0021297Y0111575D01*
X0021317Y0111494D01*
X0021332Y0111412D01*
X0021344Y0111330D01*
X0021352Y0111247D01*
X0021356Y0111164D01*
X0021356Y0111080D01*
X0021352Y0110997D01*
X0021344Y0110914D01*
X0021332Y0110832D01*
X0021317Y0110750D01*
X0021297Y0110669D01*
X0021274Y0110588D01*
X0021247Y0110510D01*
X0021217Y0110432D01*
X0021182Y0110356D01*
X0021145Y0110282D01*
X0021104Y0110209D01*
X0021059Y0110139D01*
X0021012Y0110070D01*
X0020961Y0110004D01*
X0020907Y0109941D01*
X0020850Y0109880D01*
X0020790Y0109821D01*
X0020728Y0109766D01*
X0020663Y0109714D01*
X0020596Y0109664D01*
X0020526Y0109618D01*
X0020455Y0109575D01*
X0020381Y0109536D01*
X0020306Y0109500D01*
X0020229Y0109468D01*
X0020151Y0109439D01*
X0020072Y0109414D01*
X0019991Y0109393D01*
X0019910Y0109375D01*
X0019827Y0109362D01*
X0019744Y0109352D01*
X0019661Y0109346D01*
X0019578Y0109344D01*
X0017800Y0109344D01*
X0019933Y0109344D02*
X0021356Y0106500D01*
X0024602Y0110233D02*
X0026557Y0109167D01*
X0025846Y0106500D02*
X0025738Y0106502D01*
X0025631Y0106508D01*
X0025523Y0106517D01*
X0025416Y0106531D01*
X0025310Y0106548D01*
X0025204Y0106569D01*
X0025099Y0106594D01*
X0024995Y0106623D01*
X0024892Y0106655D01*
X0024791Y0106691D01*
X0024691Y0106731D01*
X0024592Y0106774D01*
X0024495Y0106821D01*
X0024399Y0106871D01*
X0024306Y0106925D01*
X0024214Y0106982D01*
X0024125Y0107042D01*
X0024038Y0107105D01*
X0023953Y0107172D01*
X0023870Y0107241D01*
X0023790Y0107314D01*
X0023713Y0107389D01*
X0026557Y0109166D02*
X0026621Y0109126D01*
X0026682Y0109083D01*
X0026741Y0109037D01*
X0026798Y0108988D01*
X0026852Y0108936D01*
X0026903Y0108882D01*
X0026951Y0108824D01*
X0026997Y0108765D01*
X0027039Y0108703D01*
X0027078Y0108638D01*
X0027113Y0108572D01*
X0027145Y0108505D01*
X0027174Y0108435D01*
X0027199Y0108365D01*
X0027220Y0108293D01*
X0027237Y0108220D01*
X0027251Y0108146D01*
X0027260Y0108072D01*
X0027266Y0107997D01*
X0027268Y0107922D01*
X0027266Y0107848D01*
X0027260Y0107773D01*
X0027250Y0107700D01*
X0027237Y0107626D01*
X0027220Y0107554D01*
X0027198Y0107483D01*
X0027174Y0107412D01*
X0027145Y0107344D01*
X0027113Y0107276D01*
X0027077Y0107211D01*
X0027039Y0107148D01*
X0026996Y0107086D01*
X0026951Y0107027D01*
X0026903Y0106970D01*
X0026852Y0106916D01*
X0026798Y0106865D01*
X0026741Y0106817D01*
X0026682Y0106772D01*
X0026620Y0106729D01*
X0026557Y0106691D01*
X0026492Y0106655D01*
X0026424Y0106623D01*
X0026356Y0106594D01*
X0026285Y0106570D01*
X0026214Y0106548D01*
X0026142Y0106531D01*
X0026068Y0106518D01*
X0025995Y0106508D01*
X0025920Y0106502D01*
X0025846Y0106500D01*
X0026913Y0112367D02*
X0026831Y0112426D01*
X0026747Y0112482D01*
X0026661Y0112534D01*
X0026573Y0112584D01*
X0026483Y0112630D01*
X0026392Y0112672D01*
X0026299Y0112711D01*
X0026204Y0112747D01*
X0026108Y0112779D01*
X0026011Y0112807D01*
X0025914Y0112832D01*
X0025815Y0112852D01*
X0025715Y0112869D01*
X0025615Y0112883D01*
X0025515Y0112892D01*
X0025414Y0112898D01*
X0025313Y0112900D01*
X0025239Y0112898D01*
X0025164Y0112892D01*
X0025091Y0112882D01*
X0025017Y0112869D01*
X0024945Y0112852D01*
X0024874Y0112830D01*
X0024803Y0112806D01*
X0024735Y0112777D01*
X0024667Y0112745D01*
X0024602Y0112709D01*
X0024539Y0112671D01*
X0024477Y0112628D01*
X0024418Y0112583D01*
X0024362Y0112535D01*
X0024307Y0112484D01*
X0024256Y0112430D01*
X0024208Y0112373D01*
X0024163Y0112314D01*
X0024120Y0112252D01*
X0024082Y0112189D01*
X0024046Y0112124D01*
X0024014Y0112056D01*
X0023985Y0111988D01*
X0023961Y0111917D01*
X0023939Y0111846D01*
X0023922Y0111774D01*
X0023909Y0111700D01*
X0023899Y0111627D01*
X0023893Y0111552D01*
X0023891Y0111478D01*
X0023893Y0111403D01*
X0023899Y0111328D01*
X0023908Y0111254D01*
X0023922Y0111180D01*
X0023939Y0111107D01*
X0023960Y0111035D01*
X0023985Y0110965D01*
X0024014Y0110895D01*
X0024046Y0110828D01*
X0024081Y0110762D01*
X0024120Y0110697D01*
X0024162Y0110635D01*
X0024208Y0110576D01*
X0024256Y0110518D01*
X0024307Y0110464D01*
X0024361Y0110412D01*
X0024418Y0110363D01*
X0024477Y0110317D01*
X0024538Y0110274D01*
X0024602Y0110234D01*
X0029251Y0112900D02*
X0032807Y0112900D01*
X0031029Y0112900D02*
X0031029Y0106500D01*
X0084045Y0112900D02*
X0087601Y0112900D01*
X0085823Y0112900D02*
X0085823Y0106500D01*
X0089433Y0106500D02*
X0093700Y0112900D01*
X0089433Y0112900D02*
X0093700Y0106500D01*
X0115300Y0101400D02*
X0115300Y0095000D01*
X0115300Y0097844D02*
X0117078Y0097844D01*
X0117161Y0097846D01*
X0117244Y0097852D01*
X0117327Y0097862D01*
X0117410Y0097875D01*
X0117491Y0097893D01*
X0117572Y0097914D01*
X0117651Y0097939D01*
X0117729Y0097968D01*
X0117806Y0098000D01*
X0117881Y0098036D01*
X0117955Y0098075D01*
X0118026Y0098118D01*
X0118096Y0098164D01*
X0118163Y0098214D01*
X0118228Y0098266D01*
X0118290Y0098321D01*
X0118350Y0098380D01*
X0118407Y0098441D01*
X0118461Y0098504D01*
X0118512Y0098570D01*
X0118559Y0098639D01*
X0118604Y0098709D01*
X0118645Y0098782D01*
X0118682Y0098856D01*
X0118717Y0098932D01*
X0118747Y0099010D01*
X0118774Y0099088D01*
X0118797Y0099169D01*
X0118817Y0099250D01*
X0118832Y0099332D01*
X0118844Y0099414D01*
X0118852Y0099497D01*
X0118856Y0099580D01*
X0118856Y0099664D01*
X0118852Y0099747D01*
X0118844Y0099830D01*
X0118832Y0099912D01*
X0118817Y0099994D01*
X0118797Y0100075D01*
X0118774Y0100156D01*
X0118747Y0100234D01*
X0118717Y0100312D01*
X0118682Y0100388D01*
X0118645Y0100462D01*
X0118604Y0100535D01*
X0118559Y0100605D01*
X0118512Y0100674D01*
X0118461Y0100740D01*
X0118407Y0100803D01*
X0118350Y0100864D01*
X0118290Y0100923D01*
X0118228Y0100978D01*
X0118163Y0101030D01*
X0118096Y0101080D01*
X0118026Y0101126D01*
X0117955Y0101169D01*
X0117881Y0101208D01*
X0117806Y0101244D01*
X0117729Y0101276D01*
X0117651Y0101305D01*
X0117572Y0101330D01*
X0117491Y0101351D01*
X0117410Y0101369D01*
X0117327Y0101382D01*
X0117244Y0101392D01*
X0117161Y0101398D01*
X0117078Y0101400D01*
X0115300Y0101400D01*
X0124721Y0098200D02*
X0124719Y0098059D01*
X0124713Y0097919D01*
X0124704Y0097778D01*
X0124691Y0097638D01*
X0124674Y0097498D01*
X0124654Y0097359D01*
X0124629Y0097221D01*
X0124601Y0097083D01*
X0124570Y0096946D01*
X0124534Y0096809D01*
X0124495Y0096674D01*
X0124453Y0096540D01*
X0124407Y0096407D01*
X0124357Y0096275D01*
X0124304Y0096145D01*
X0124248Y0096016D01*
X0124188Y0095889D01*
X0124189Y0095889D02*
X0124164Y0095823D01*
X0124136Y0095758D01*
X0124104Y0095694D01*
X0124069Y0095633D01*
X0124030Y0095573D01*
X0123989Y0095515D01*
X0123944Y0095460D01*
X0123896Y0095408D01*
X0123846Y0095358D01*
X0123793Y0095310D01*
X0123737Y0095266D01*
X0123680Y0095225D01*
X0123620Y0095187D01*
X0123558Y0095152D01*
X0123494Y0095121D01*
X0123429Y0095093D01*
X0123362Y0095068D01*
X0123295Y0095048D01*
X0123226Y0095031D01*
X0123156Y0095017D01*
X0123086Y0095008D01*
X0123015Y0095002D01*
X0122944Y0095000D01*
X0122873Y0095002D01*
X0122802Y0095008D01*
X0122732Y0095017D01*
X0122662Y0095031D01*
X0122593Y0095048D01*
X0122526Y0095068D01*
X0122459Y0095093D01*
X0122394Y0095121D01*
X0122330Y0095152D01*
X0122268Y0095187D01*
X0122208Y0095225D01*
X0122150Y0095266D01*
X0122095Y0095310D01*
X0122042Y0095358D01*
X0121992Y0095408D01*
X0121944Y0095460D01*
X0121899Y0095515D01*
X0121858Y0095573D01*
X0121819Y0095633D01*
X0121784Y0095694D01*
X0121752Y0095758D01*
X0121724Y0095823D01*
X0121699Y0095889D01*
X0121521Y0096422D02*
X0124366Y0099978D01*
X0124189Y0100511D02*
X0124164Y0100577D01*
X0124136Y0100642D01*
X0124104Y0100706D01*
X0124069Y0100767D01*
X0124030Y0100827D01*
X0123989Y0100885D01*
X0123944Y0100940D01*
X0123896Y0100992D01*
X0123846Y0101042D01*
X0123793Y0101090D01*
X0123738Y0101134D01*
X0123680Y0101175D01*
X0123620Y0101213D01*
X0123558Y0101248D01*
X0123494Y0101279D01*
X0123429Y0101307D01*
X0123362Y0101332D01*
X0123295Y0101352D01*
X0123226Y0101369D01*
X0123156Y0101383D01*
X0123086Y0101392D01*
X0123015Y0101398D01*
X0122944Y0101400D01*
X0122873Y0101398D01*
X0122802Y0101392D01*
X0122732Y0101383D01*
X0122662Y0101369D01*
X0122593Y0101352D01*
X0122526Y0101332D01*
X0122459Y0101307D01*
X0122394Y0101279D01*
X0122330Y0101248D01*
X0122268Y0101213D01*
X0122208Y0101175D01*
X0122150Y0101134D01*
X0122095Y0101090D01*
X0122042Y0101042D01*
X0121992Y0100992D01*
X0121944Y0100940D01*
X0121899Y0100885D01*
X0121858Y0100827D01*
X0121819Y0100767D01*
X0121784Y0100706D01*
X0121752Y0100642D01*
X0121724Y0100577D01*
X0121699Y0100511D01*
X0124188Y0100511D02*
X0124248Y0100384D01*
X0124304Y0100255D01*
X0124357Y0100125D01*
X0124407Y0099993D01*
X0124453Y0099860D01*
X0124495Y0099726D01*
X0124534Y0099591D01*
X0124570Y0099454D01*
X0124601Y0099317D01*
X0124629Y0099179D01*
X0124654Y0099041D01*
X0124674Y0098902D01*
X0124691Y0098762D01*
X0124704Y0098622D01*
X0124713Y0098481D01*
X0124719Y0098341D01*
X0124721Y0098200D01*
X0121166Y0098200D02*
X0121168Y0098341D01*
X0121174Y0098481D01*
X0121183Y0098622D01*
X0121196Y0098762D01*
X0121213Y0098902D01*
X0121233Y0099041D01*
X0121258Y0099179D01*
X0121286Y0099317D01*
X0121317Y0099454D01*
X0121353Y0099591D01*
X0121392Y0099726D01*
X0121434Y0099860D01*
X0121480Y0099993D01*
X0121530Y0100125D01*
X0121583Y0100255D01*
X0121639Y0100384D01*
X0121699Y0100511D01*
X0121166Y0098200D02*
X0121168Y0098059D01*
X0121174Y0097919D01*
X0121183Y0097778D01*
X0121196Y0097638D01*
X0121213Y0097498D01*
X0121233Y0097359D01*
X0121258Y0097221D01*
X0121286Y0097083D01*
X0121317Y0096946D01*
X0121353Y0096809D01*
X0121392Y0096674D01*
X0121434Y0096540D01*
X0121480Y0096407D01*
X0121530Y0096275D01*
X0121583Y0096145D01*
X0121639Y0096016D01*
X0121699Y0095889D01*
X0122944Y0091900D02*
X0122944Y0085500D01*
X0124721Y0085500D02*
X0121166Y0085500D01*
X0117078Y0088344D02*
X0115300Y0088344D01*
X0115300Y0085500D02*
X0115300Y0091900D01*
X0117078Y0091900D01*
X0117161Y0091898D01*
X0117244Y0091892D01*
X0117327Y0091882D01*
X0117410Y0091869D01*
X0117491Y0091851D01*
X0117572Y0091830D01*
X0117651Y0091805D01*
X0117729Y0091776D01*
X0117806Y0091744D01*
X0117881Y0091708D01*
X0117955Y0091669D01*
X0118026Y0091626D01*
X0118096Y0091580D01*
X0118163Y0091530D01*
X0118228Y0091478D01*
X0118290Y0091423D01*
X0118350Y0091364D01*
X0118407Y0091303D01*
X0118461Y0091240D01*
X0118512Y0091174D01*
X0118559Y0091105D01*
X0118604Y0091035D01*
X0118645Y0090962D01*
X0118682Y0090888D01*
X0118717Y0090812D01*
X0118747Y0090734D01*
X0118774Y0090656D01*
X0118797Y0090575D01*
X0118817Y0090494D01*
X0118832Y0090412D01*
X0118844Y0090330D01*
X0118852Y0090247D01*
X0118856Y0090164D01*
X0118856Y0090080D01*
X0118852Y0089997D01*
X0118844Y0089914D01*
X0118832Y0089832D01*
X0118817Y0089750D01*
X0118797Y0089669D01*
X0118774Y0089588D01*
X0118747Y0089510D01*
X0118717Y0089432D01*
X0118682Y0089356D01*
X0118645Y0089282D01*
X0118604Y0089209D01*
X0118559Y0089139D01*
X0118512Y0089070D01*
X0118461Y0089004D01*
X0118407Y0088941D01*
X0118350Y0088880D01*
X0118290Y0088821D01*
X0118228Y0088766D01*
X0118163Y0088714D01*
X0118096Y0088664D01*
X0118026Y0088618D01*
X0117955Y0088575D01*
X0117881Y0088536D01*
X0117806Y0088500D01*
X0117729Y0088468D01*
X0117651Y0088439D01*
X0117572Y0088414D01*
X0117491Y0088393D01*
X0117410Y0088375D01*
X0117327Y0088362D01*
X0117244Y0088352D01*
X0117161Y0088346D01*
X0117078Y0088344D01*
X0121166Y0090478D02*
X0122944Y0091900D01*
X0117078Y0081900D02*
X0115300Y0081900D01*
X0115300Y0075500D01*
X0115300Y0078344D02*
X0117078Y0078344D01*
X0117161Y0078346D01*
X0117244Y0078352D01*
X0117327Y0078362D01*
X0117410Y0078375D01*
X0117491Y0078393D01*
X0117572Y0078414D01*
X0117651Y0078439D01*
X0117729Y0078468D01*
X0117806Y0078500D01*
X0117881Y0078536D01*
X0117955Y0078575D01*
X0118026Y0078618D01*
X0118096Y0078664D01*
X0118163Y0078714D01*
X0118228Y0078766D01*
X0118290Y0078821D01*
X0118350Y0078880D01*
X0118407Y0078941D01*
X0118461Y0079004D01*
X0118512Y0079070D01*
X0118559Y0079139D01*
X0118604Y0079209D01*
X0118645Y0079282D01*
X0118682Y0079356D01*
X0118717Y0079432D01*
X0118747Y0079510D01*
X0118774Y0079588D01*
X0118797Y0079669D01*
X0118817Y0079750D01*
X0118832Y0079832D01*
X0118844Y0079914D01*
X0118852Y0079997D01*
X0118856Y0080080D01*
X0118856Y0080164D01*
X0118852Y0080247D01*
X0118844Y0080330D01*
X0118832Y0080412D01*
X0118817Y0080494D01*
X0118797Y0080575D01*
X0118774Y0080656D01*
X0118747Y0080734D01*
X0118717Y0080812D01*
X0118682Y0080888D01*
X0118645Y0080962D01*
X0118604Y0081035D01*
X0118559Y0081105D01*
X0118512Y0081174D01*
X0118461Y0081240D01*
X0118407Y0081303D01*
X0118350Y0081364D01*
X0118290Y0081423D01*
X0118228Y0081478D01*
X0118163Y0081530D01*
X0118096Y0081580D01*
X0118026Y0081626D01*
X0117955Y0081669D01*
X0117881Y0081708D01*
X0117806Y0081744D01*
X0117729Y0081776D01*
X0117651Y0081805D01*
X0117572Y0081830D01*
X0117491Y0081851D01*
X0117410Y0081869D01*
X0117327Y0081882D01*
X0117244Y0081892D01*
X0117161Y0081898D01*
X0117078Y0081900D01*
X0124189Y0079055D02*
X0124246Y0079113D01*
X0124302Y0079174D01*
X0124354Y0079237D01*
X0124403Y0079302D01*
X0124449Y0079370D01*
X0124491Y0079440D01*
X0124531Y0079512D01*
X0124566Y0079585D01*
X0124599Y0079661D01*
X0124627Y0079737D01*
X0124652Y0079815D01*
X0124673Y0079894D01*
X0124691Y0079974D01*
X0124704Y0080055D01*
X0124714Y0080136D01*
X0124720Y0080218D01*
X0124722Y0080300D01*
X0124188Y0079056D02*
X0121166Y0075500D01*
X0124721Y0075500D01*
X0124721Y0071400D02*
X0121166Y0071400D01*
X0121166Y0068556D01*
X0123299Y0068556D01*
X0123299Y0068555D02*
X0123373Y0068553D01*
X0123448Y0068547D01*
X0123521Y0068537D01*
X0123595Y0068524D01*
X0123667Y0068507D01*
X0123738Y0068485D01*
X0123809Y0068461D01*
X0123877Y0068432D01*
X0123945Y0068400D01*
X0124010Y0068364D01*
X0124073Y0068326D01*
X0124135Y0068283D01*
X0124194Y0068238D01*
X0124251Y0068190D01*
X0124305Y0068139D01*
X0124356Y0068085D01*
X0124404Y0068028D01*
X0124449Y0067969D01*
X0124492Y0067907D01*
X0124530Y0067844D01*
X0124566Y0067779D01*
X0124598Y0067711D01*
X0124627Y0067643D01*
X0124651Y0067572D01*
X0124673Y0067501D01*
X0124690Y0067429D01*
X0124703Y0067355D01*
X0124713Y0067282D01*
X0124719Y0067207D01*
X0124721Y0067133D01*
X0124721Y0066422D01*
X0124719Y0066348D01*
X0124713Y0066273D01*
X0124703Y0066200D01*
X0124690Y0066126D01*
X0124673Y0066054D01*
X0124651Y0065983D01*
X0124627Y0065912D01*
X0124598Y0065844D01*
X0124566Y0065776D01*
X0124530Y0065711D01*
X0124492Y0065648D01*
X0124449Y0065586D01*
X0124404Y0065527D01*
X0124356Y0065470D01*
X0124305Y0065416D01*
X0124251Y0065365D01*
X0124194Y0065317D01*
X0124135Y0065272D01*
X0124073Y0065229D01*
X0124010Y0065191D01*
X0123945Y0065155D01*
X0123877Y0065123D01*
X0123809Y0065094D01*
X0123738Y0065070D01*
X0123667Y0065048D01*
X0123595Y0065031D01*
X0123521Y0065018D01*
X0123448Y0065008D01*
X0123373Y0065002D01*
X0123299Y0065000D01*
X0121166Y0065000D01*
X0117078Y0067844D02*
X0115300Y0067844D01*
X0117078Y0067844D02*
X0117161Y0067846D01*
X0117244Y0067852D01*
X0117327Y0067862D01*
X0117410Y0067875D01*
X0117491Y0067893D01*
X0117572Y0067914D01*
X0117651Y0067939D01*
X0117729Y0067968D01*
X0117806Y0068000D01*
X0117881Y0068036D01*
X0117955Y0068075D01*
X0118026Y0068118D01*
X0118096Y0068164D01*
X0118163Y0068214D01*
X0118228Y0068266D01*
X0118290Y0068321D01*
X0118350Y0068380D01*
X0118407Y0068441D01*
X0118461Y0068504D01*
X0118512Y0068570D01*
X0118559Y0068639D01*
X0118604Y0068709D01*
X0118645Y0068782D01*
X0118682Y0068856D01*
X0118717Y0068932D01*
X0118747Y0069010D01*
X0118774Y0069088D01*
X0118797Y0069169D01*
X0118817Y0069250D01*
X0118832Y0069332D01*
X0118844Y0069414D01*
X0118852Y0069497D01*
X0118856Y0069580D01*
X0118856Y0069664D01*
X0118852Y0069747D01*
X0118844Y0069830D01*
X0118832Y0069912D01*
X0118817Y0069994D01*
X0118797Y0070075D01*
X0118774Y0070156D01*
X0118747Y0070234D01*
X0118717Y0070312D01*
X0118682Y0070388D01*
X0118645Y0070462D01*
X0118604Y0070535D01*
X0118559Y0070605D01*
X0118512Y0070674D01*
X0118461Y0070740D01*
X0118407Y0070803D01*
X0118350Y0070864D01*
X0118290Y0070923D01*
X0118228Y0070978D01*
X0118163Y0071030D01*
X0118096Y0071080D01*
X0118026Y0071126D01*
X0117955Y0071169D01*
X0117881Y0071208D01*
X0117806Y0071244D01*
X0117729Y0071276D01*
X0117651Y0071305D01*
X0117572Y0071330D01*
X0117491Y0071351D01*
X0117410Y0071369D01*
X0117327Y0071382D01*
X0117244Y0071392D01*
X0117161Y0071398D01*
X0117078Y0071400D01*
X0115300Y0071400D01*
X0115300Y0065000D01*
X0115300Y0061900D02*
X0117078Y0061900D01*
X0117161Y0061898D01*
X0117244Y0061892D01*
X0117327Y0061882D01*
X0117410Y0061869D01*
X0117491Y0061851D01*
X0117572Y0061830D01*
X0117651Y0061805D01*
X0117729Y0061776D01*
X0117806Y0061744D01*
X0117881Y0061708D01*
X0117955Y0061669D01*
X0118026Y0061626D01*
X0118096Y0061580D01*
X0118163Y0061530D01*
X0118228Y0061478D01*
X0118290Y0061423D01*
X0118350Y0061364D01*
X0118407Y0061303D01*
X0118461Y0061240D01*
X0118512Y0061174D01*
X0118559Y0061105D01*
X0118604Y0061035D01*
X0118645Y0060962D01*
X0118682Y0060888D01*
X0118717Y0060812D01*
X0118747Y0060734D01*
X0118774Y0060656D01*
X0118797Y0060575D01*
X0118817Y0060494D01*
X0118832Y0060412D01*
X0118844Y0060330D01*
X0118852Y0060247D01*
X0118856Y0060164D01*
X0118856Y0060080D01*
X0118852Y0059997D01*
X0118844Y0059914D01*
X0118832Y0059832D01*
X0118817Y0059750D01*
X0118797Y0059669D01*
X0118774Y0059588D01*
X0118747Y0059510D01*
X0118717Y0059432D01*
X0118682Y0059356D01*
X0118645Y0059282D01*
X0118604Y0059209D01*
X0118559Y0059139D01*
X0118512Y0059070D01*
X0118461Y0059004D01*
X0118407Y0058941D01*
X0118350Y0058880D01*
X0118290Y0058821D01*
X0118228Y0058766D01*
X0118163Y0058714D01*
X0118096Y0058664D01*
X0118026Y0058618D01*
X0117955Y0058575D01*
X0117881Y0058536D01*
X0117806Y0058500D01*
X0117729Y0058468D01*
X0117651Y0058439D01*
X0117572Y0058414D01*
X0117491Y0058393D01*
X0117410Y0058375D01*
X0117327Y0058362D01*
X0117244Y0058352D01*
X0117161Y0058346D01*
X0117078Y0058344D01*
X0115300Y0058344D01*
X0115300Y0055500D02*
X0115300Y0061900D01*
X0121166Y0059056D02*
X0121166Y0057278D01*
X0121168Y0057195D01*
X0121174Y0057112D01*
X0121184Y0057029D01*
X0121197Y0056946D01*
X0121215Y0056865D01*
X0121236Y0056784D01*
X0121261Y0056705D01*
X0121290Y0056627D01*
X0121322Y0056550D01*
X0121358Y0056475D01*
X0121397Y0056401D01*
X0121440Y0056330D01*
X0121486Y0056260D01*
X0121536Y0056193D01*
X0121588Y0056128D01*
X0121643Y0056066D01*
X0121702Y0056006D01*
X0121763Y0055949D01*
X0121826Y0055895D01*
X0121892Y0055844D01*
X0121961Y0055797D01*
X0122031Y0055752D01*
X0122104Y0055711D01*
X0122178Y0055674D01*
X0122254Y0055639D01*
X0122332Y0055609D01*
X0122410Y0055582D01*
X0122491Y0055559D01*
X0122572Y0055539D01*
X0122654Y0055524D01*
X0122736Y0055512D01*
X0122819Y0055504D01*
X0122902Y0055500D01*
X0122986Y0055500D01*
X0123069Y0055504D01*
X0123152Y0055512D01*
X0123234Y0055524D01*
X0123316Y0055539D01*
X0123397Y0055559D01*
X0123478Y0055582D01*
X0123556Y0055609D01*
X0123634Y0055639D01*
X0123710Y0055674D01*
X0123784Y0055711D01*
X0123857Y0055752D01*
X0123927Y0055797D01*
X0123996Y0055844D01*
X0124062Y0055895D01*
X0124125Y0055949D01*
X0124186Y0056006D01*
X0124245Y0056066D01*
X0124300Y0056128D01*
X0124352Y0056193D01*
X0124402Y0056260D01*
X0124448Y0056330D01*
X0124491Y0056401D01*
X0124530Y0056475D01*
X0124566Y0056550D01*
X0124598Y0056627D01*
X0124627Y0056705D01*
X0124652Y0056784D01*
X0124673Y0056865D01*
X0124691Y0056946D01*
X0124704Y0057029D01*
X0124714Y0057112D01*
X0124720Y0057195D01*
X0124722Y0057278D01*
X0124721Y0057278D02*
X0124721Y0057633D01*
X0124719Y0057707D01*
X0124713Y0057782D01*
X0124703Y0057855D01*
X0124690Y0057929D01*
X0124673Y0058001D01*
X0124651Y0058072D01*
X0124627Y0058143D01*
X0124598Y0058211D01*
X0124566Y0058279D01*
X0124530Y0058344D01*
X0124492Y0058407D01*
X0124449Y0058469D01*
X0124404Y0058528D01*
X0124356Y0058585D01*
X0124305Y0058639D01*
X0124251Y0058690D01*
X0124194Y0058738D01*
X0124135Y0058783D01*
X0124073Y0058826D01*
X0124010Y0058864D01*
X0123945Y0058900D01*
X0123877Y0058932D01*
X0123809Y0058961D01*
X0123738Y0058985D01*
X0123667Y0059007D01*
X0123595Y0059024D01*
X0123521Y0059037D01*
X0123448Y0059047D01*
X0123373Y0059053D01*
X0123299Y0059055D01*
X0123299Y0059056D02*
X0121166Y0059056D01*
X0121168Y0059162D01*
X0121174Y0059269D01*
X0121184Y0059374D01*
X0121198Y0059480D01*
X0121216Y0059585D01*
X0121237Y0059689D01*
X0121263Y0059792D01*
X0121292Y0059894D01*
X0121326Y0059995D01*
X0121363Y0060095D01*
X0121403Y0060193D01*
X0121448Y0060290D01*
X0121496Y0060385D01*
X0121547Y0060478D01*
X0121602Y0060569D01*
X0121660Y0060658D01*
X0121722Y0060745D01*
X0121786Y0060829D01*
X0121854Y0060911D01*
X0121925Y0060990D01*
X0121999Y0061067D01*
X0122076Y0061141D01*
X0122155Y0061212D01*
X0122237Y0061280D01*
X0122321Y0061344D01*
X0122408Y0061406D01*
X0122497Y0061464D01*
X0122588Y0061519D01*
X0122681Y0061570D01*
X0122776Y0061618D01*
X0122873Y0061663D01*
X0122971Y0061703D01*
X0123071Y0061740D01*
X0123172Y0061774D01*
X0123274Y0061803D01*
X0123377Y0061829D01*
X0123481Y0061850D01*
X0123586Y0061868D01*
X0123692Y0061882D01*
X0123797Y0061892D01*
X0123904Y0061898D01*
X0124010Y0061900D01*
X0121165Y0080477D02*
X0121194Y0080562D01*
X0121227Y0080645D01*
X0121264Y0080726D01*
X0121304Y0080806D01*
X0121347Y0080883D01*
X0121394Y0080959D01*
X0121444Y0081033D01*
X0121497Y0081105D01*
X0121553Y0081174D01*
X0121612Y0081241D01*
X0121674Y0081305D01*
X0121739Y0081366D01*
X0121806Y0081425D01*
X0121876Y0081480D01*
X0121948Y0081533D01*
X0122022Y0081582D01*
X0122099Y0081628D01*
X0122177Y0081670D01*
X0122257Y0081710D01*
X0122339Y0081745D01*
X0122422Y0081778D01*
X0122506Y0081806D01*
X0122592Y0081831D01*
X0122679Y0081852D01*
X0122766Y0081869D01*
X0122854Y0081883D01*
X0122943Y0081892D01*
X0123032Y0081898D01*
X0123121Y0081900D01*
X0123200Y0081898D01*
X0123278Y0081892D01*
X0123356Y0081883D01*
X0123433Y0081869D01*
X0123510Y0081852D01*
X0123585Y0081831D01*
X0123660Y0081806D01*
X0123733Y0081778D01*
X0123805Y0081746D01*
X0123875Y0081711D01*
X0123944Y0081672D01*
X0124010Y0081630D01*
X0124074Y0081585D01*
X0124136Y0081537D01*
X0124195Y0081486D01*
X0124252Y0081431D01*
X0124307Y0081374D01*
X0124358Y0081315D01*
X0124406Y0081253D01*
X0124451Y0081189D01*
X0124493Y0081123D01*
X0124532Y0081054D01*
X0124567Y0080984D01*
X0124599Y0080912D01*
X0124627Y0080839D01*
X0124652Y0080764D01*
X0124673Y0080689D01*
X0124690Y0080612D01*
X0124704Y0080535D01*
X0124713Y0080457D01*
X0124719Y0080379D01*
X0124721Y0080300D01*
D12*
X0070832Y0088817D02*
X0070010Y0086350D01*
X0069188Y0088817D01*
X0067832Y0087994D02*
X0067832Y0087583D01*
X0066188Y0087583D01*
X0066188Y0087994D02*
X0066188Y0086967D01*
X0066187Y0086967D02*
X0066189Y0086919D01*
X0066195Y0086870D01*
X0066204Y0086823D01*
X0066217Y0086776D01*
X0066234Y0086731D01*
X0066254Y0086687D01*
X0066278Y0086645D01*
X0066305Y0086604D01*
X0066335Y0086566D01*
X0066368Y0086531D01*
X0066403Y0086498D01*
X0066441Y0086468D01*
X0066482Y0086441D01*
X0066524Y0086417D01*
X0066568Y0086397D01*
X0066613Y0086380D01*
X0066660Y0086367D01*
X0066707Y0086358D01*
X0066756Y0086352D01*
X0066804Y0086350D01*
X0067832Y0086350D01*
X0067832Y0087994D02*
X0067830Y0088050D01*
X0067824Y0088106D01*
X0067815Y0088161D01*
X0067802Y0088216D01*
X0067785Y0088269D01*
X0067764Y0088321D01*
X0067740Y0088372D01*
X0067712Y0088421D01*
X0067682Y0088468D01*
X0067648Y0088513D01*
X0067611Y0088555D01*
X0067571Y0088595D01*
X0067529Y0088632D01*
X0067484Y0088666D01*
X0067437Y0088696D01*
X0067388Y0088724D01*
X0067337Y0088748D01*
X0067285Y0088769D01*
X0067232Y0088786D01*
X0067177Y0088799D01*
X0067122Y0088808D01*
X0067066Y0088814D01*
X0067010Y0088816D01*
X0066954Y0088814D01*
X0066898Y0088808D01*
X0066843Y0088799D01*
X0066788Y0088786D01*
X0066735Y0088769D01*
X0066683Y0088748D01*
X0066632Y0088724D01*
X0066583Y0088696D01*
X0066536Y0088666D01*
X0066491Y0088632D01*
X0066449Y0088595D01*
X0066409Y0088555D01*
X0066372Y0088513D01*
X0066338Y0088468D01*
X0066308Y0088421D01*
X0066280Y0088372D01*
X0066256Y0088321D01*
X0066235Y0088269D01*
X0066218Y0088216D01*
X0066205Y0088161D01*
X0066196Y0088106D01*
X0066190Y0088050D01*
X0066188Y0087994D01*
X0064523Y0088200D02*
X0064523Y0086350D01*
X0063290Y0086350D02*
X0063290Y0088817D01*
X0063907Y0088817D02*
X0062057Y0088817D01*
X0062057Y0086350D01*
X0064524Y0088200D02*
X0064522Y0088248D01*
X0064516Y0088297D01*
X0064507Y0088344D01*
X0064494Y0088391D01*
X0064477Y0088436D01*
X0064457Y0088480D01*
X0064433Y0088522D01*
X0064406Y0088563D01*
X0064376Y0088601D01*
X0064343Y0088636D01*
X0064308Y0088669D01*
X0064270Y0088699D01*
X0064229Y0088726D01*
X0064187Y0088750D01*
X0064143Y0088770D01*
X0064098Y0088787D01*
X0064051Y0088800D01*
X0064004Y0088809D01*
X0063955Y0088815D01*
X0063907Y0088817D01*
X0060512Y0088817D02*
X0059690Y0086350D01*
X0058868Y0088817D01*
X0057632Y0088817D02*
X0056810Y0086350D01*
X0055988Y0088817D01*
X0054752Y0090461D02*
X0053108Y0085939D01*
X0051563Y0086350D02*
X0051563Y0088200D01*
X0051564Y0088200D02*
X0051562Y0088248D01*
X0051556Y0088297D01*
X0051547Y0088344D01*
X0051534Y0088391D01*
X0051517Y0088436D01*
X0051497Y0088480D01*
X0051473Y0088522D01*
X0051446Y0088563D01*
X0051416Y0088601D01*
X0051383Y0088636D01*
X0051348Y0088669D01*
X0051310Y0088699D01*
X0051269Y0088726D01*
X0051227Y0088750D01*
X0051183Y0088770D01*
X0051138Y0088787D01*
X0051091Y0088800D01*
X0051044Y0088809D01*
X0050995Y0088815D01*
X0050947Y0088817D01*
X0049097Y0088817D01*
X0049097Y0086350D01*
X0050330Y0086350D02*
X0050330Y0088817D01*
X0047432Y0087994D02*
X0047432Y0087172D01*
X0047430Y0087116D01*
X0047424Y0087060D01*
X0047415Y0087005D01*
X0047402Y0086950D01*
X0047385Y0086897D01*
X0047364Y0086845D01*
X0047340Y0086794D01*
X0047312Y0086745D01*
X0047282Y0086698D01*
X0047248Y0086653D01*
X0047211Y0086611D01*
X0047171Y0086571D01*
X0047129Y0086534D01*
X0047084Y0086500D01*
X0047037Y0086470D01*
X0046988Y0086442D01*
X0046937Y0086418D01*
X0046885Y0086397D01*
X0046832Y0086380D01*
X0046777Y0086367D01*
X0046722Y0086358D01*
X0046666Y0086352D01*
X0046610Y0086350D01*
X0046554Y0086352D01*
X0046498Y0086358D01*
X0046443Y0086367D01*
X0046388Y0086380D01*
X0046335Y0086397D01*
X0046283Y0086418D01*
X0046232Y0086442D01*
X0046183Y0086470D01*
X0046136Y0086500D01*
X0046091Y0086534D01*
X0046049Y0086571D01*
X0046009Y0086611D01*
X0045972Y0086653D01*
X0045938Y0086698D01*
X0045908Y0086745D01*
X0045880Y0086794D01*
X0045856Y0086845D01*
X0045835Y0086897D01*
X0045818Y0086950D01*
X0045805Y0087005D01*
X0045796Y0087060D01*
X0045790Y0087116D01*
X0045788Y0087172D01*
X0045788Y0087994D01*
X0045790Y0088050D01*
X0045796Y0088106D01*
X0045805Y0088161D01*
X0045818Y0088216D01*
X0045835Y0088269D01*
X0045856Y0088321D01*
X0045880Y0088372D01*
X0045908Y0088421D01*
X0045938Y0088468D01*
X0045972Y0088513D01*
X0046009Y0088555D01*
X0046049Y0088595D01*
X0046091Y0088632D01*
X0046136Y0088666D01*
X0046183Y0088696D01*
X0046232Y0088724D01*
X0046283Y0088748D01*
X0046335Y0088769D01*
X0046388Y0088786D01*
X0046443Y0088799D01*
X0046498Y0088808D01*
X0046554Y0088814D01*
X0046610Y0088816D01*
X0046666Y0088814D01*
X0046722Y0088808D01*
X0046777Y0088799D01*
X0046832Y0088786D01*
X0046885Y0088769D01*
X0046937Y0088748D01*
X0046988Y0088724D01*
X0047037Y0088696D01*
X0047084Y0088666D01*
X0047129Y0088632D01*
X0047171Y0088595D01*
X0047211Y0088555D01*
X0047248Y0088513D01*
X0047282Y0088468D01*
X0047312Y0088421D01*
X0047340Y0088372D01*
X0047364Y0088321D01*
X0047385Y0088269D01*
X0047402Y0088216D01*
X0047415Y0088161D01*
X0047424Y0088106D01*
X0047430Y0088050D01*
X0047432Y0087994D01*
X0044471Y0088817D02*
X0043649Y0088817D01*
X0043601Y0088815D01*
X0043552Y0088809D01*
X0043505Y0088800D01*
X0043458Y0088787D01*
X0043413Y0088770D01*
X0043369Y0088750D01*
X0043327Y0088726D01*
X0043286Y0088699D01*
X0043248Y0088669D01*
X0043213Y0088636D01*
X0043180Y0088601D01*
X0043150Y0088563D01*
X0043123Y0088522D01*
X0043099Y0088480D01*
X0043079Y0088436D01*
X0043062Y0088391D01*
X0043049Y0088344D01*
X0043040Y0088297D01*
X0043034Y0088248D01*
X0043032Y0088200D01*
X0043032Y0086967D01*
X0043034Y0086919D01*
X0043040Y0086870D01*
X0043049Y0086823D01*
X0043062Y0086776D01*
X0043079Y0086731D01*
X0043099Y0086687D01*
X0043123Y0086645D01*
X0043150Y0086604D01*
X0043180Y0086566D01*
X0043213Y0086531D01*
X0043248Y0086498D01*
X0043286Y0086468D01*
X0043327Y0086441D01*
X0043369Y0086417D01*
X0043413Y0086397D01*
X0043458Y0086380D01*
X0043505Y0086367D01*
X0043552Y0086358D01*
X0043601Y0086352D01*
X0043649Y0086350D01*
X0044471Y0086350D01*
X0041673Y0086350D02*
X0041467Y0086350D01*
X0041467Y0086556D01*
X0041673Y0086556D01*
X0041673Y0086350D01*
X0040130Y0086967D02*
X0040130Y0088200D01*
X0040131Y0088200D02*
X0040129Y0088248D01*
X0040123Y0088297D01*
X0040114Y0088344D01*
X0040101Y0088391D01*
X0040084Y0088436D01*
X0040064Y0088480D01*
X0040040Y0088522D01*
X0040013Y0088563D01*
X0039983Y0088601D01*
X0039950Y0088636D01*
X0039915Y0088669D01*
X0039877Y0088699D01*
X0039836Y0088726D01*
X0039794Y0088750D01*
X0039750Y0088770D01*
X0039705Y0088787D01*
X0039658Y0088800D01*
X0039611Y0088809D01*
X0039562Y0088815D01*
X0039514Y0088817D01*
X0038486Y0088817D01*
X0038486Y0090050D02*
X0038486Y0086350D01*
X0039514Y0086350D01*
X0039562Y0086352D01*
X0039611Y0086358D01*
X0039658Y0086367D01*
X0039705Y0086380D01*
X0039750Y0086397D01*
X0039794Y0086417D01*
X0039836Y0086441D01*
X0039877Y0086468D01*
X0039915Y0086498D01*
X0039950Y0086531D01*
X0039983Y0086566D01*
X0040013Y0086604D01*
X0040040Y0086645D01*
X0040064Y0086687D01*
X0040084Y0086731D01*
X0040101Y0086776D01*
X0040114Y0086823D01*
X0040123Y0086870D01*
X0040129Y0086919D01*
X0040131Y0086967D01*
X0036752Y0086350D02*
X0036752Y0088817D01*
X0035108Y0088817D02*
X0035108Y0086967D01*
X0035110Y0086919D01*
X0035116Y0086870D01*
X0035125Y0086823D01*
X0035138Y0086776D01*
X0035155Y0086731D01*
X0035175Y0086687D01*
X0035199Y0086645D01*
X0035226Y0086604D01*
X0035256Y0086566D01*
X0035289Y0086531D01*
X0035324Y0086498D01*
X0035362Y0086468D01*
X0035403Y0086441D01*
X0035445Y0086417D01*
X0035489Y0086397D01*
X0035534Y0086380D01*
X0035581Y0086367D01*
X0035628Y0086358D01*
X0035677Y0086352D01*
X0035725Y0086350D01*
X0036752Y0086350D01*
X0033392Y0086350D02*
X0033392Y0088200D01*
X0033393Y0088200D02*
X0033391Y0088248D01*
X0033385Y0088297D01*
X0033376Y0088344D01*
X0033363Y0088391D01*
X0033346Y0088436D01*
X0033326Y0088480D01*
X0033302Y0088522D01*
X0033275Y0088563D01*
X0033245Y0088601D01*
X0033212Y0088636D01*
X0033177Y0088669D01*
X0033139Y0088699D01*
X0033098Y0088726D01*
X0033056Y0088750D01*
X0033012Y0088770D01*
X0032967Y0088787D01*
X0032920Y0088800D01*
X0032873Y0088809D01*
X0032824Y0088815D01*
X0032776Y0088817D01*
X0031748Y0088817D01*
X0031748Y0090050D02*
X0031748Y0086350D01*
X0030279Y0086350D02*
X0030073Y0086350D01*
X0030025Y0086352D01*
X0029976Y0086358D01*
X0029929Y0086367D01*
X0029882Y0086380D01*
X0029837Y0086397D01*
X0029793Y0086417D01*
X0029751Y0086441D01*
X0029710Y0086468D01*
X0029672Y0086498D01*
X0029637Y0086531D01*
X0029604Y0086566D01*
X0029574Y0086604D01*
X0029547Y0086645D01*
X0029523Y0086687D01*
X0029503Y0086731D01*
X0029486Y0086776D01*
X0029473Y0086823D01*
X0029464Y0086870D01*
X0029458Y0086919D01*
X0029456Y0086967D01*
X0029456Y0090050D01*
X0029045Y0088817D02*
X0030279Y0088817D01*
X0027890Y0088817D02*
X0027890Y0086350D01*
X0026294Y0086350D02*
X0025267Y0086350D01*
X0025219Y0086352D01*
X0025170Y0086358D01*
X0025123Y0086367D01*
X0025076Y0086380D01*
X0025031Y0086397D01*
X0024987Y0086417D01*
X0024945Y0086441D01*
X0024904Y0086468D01*
X0024866Y0086498D01*
X0024831Y0086531D01*
X0024798Y0086566D01*
X0024768Y0086604D01*
X0024741Y0086645D01*
X0024717Y0086687D01*
X0024697Y0086731D01*
X0024680Y0086776D01*
X0024667Y0086823D01*
X0024658Y0086870D01*
X0024652Y0086919D01*
X0024650Y0086967D01*
X0024650Y0088200D01*
X0024652Y0088248D01*
X0024658Y0088297D01*
X0024667Y0088344D01*
X0024680Y0088391D01*
X0024697Y0088436D01*
X0024717Y0088480D01*
X0024741Y0088522D01*
X0024768Y0088563D01*
X0024798Y0088601D01*
X0024831Y0088636D01*
X0024866Y0088669D01*
X0024904Y0088699D01*
X0024945Y0088726D01*
X0024987Y0088750D01*
X0025031Y0088770D01*
X0025076Y0088787D01*
X0025123Y0088800D01*
X0025170Y0088809D01*
X0025219Y0088815D01*
X0025267Y0088817D01*
X0026294Y0088817D01*
X0026294Y0085733D01*
X0026295Y0085733D02*
X0026293Y0085685D01*
X0026287Y0085636D01*
X0026278Y0085589D01*
X0026265Y0085542D01*
X0026248Y0085497D01*
X0026228Y0085453D01*
X0026204Y0085411D01*
X0026177Y0085370D01*
X0026147Y0085332D01*
X0026114Y0085297D01*
X0026079Y0085264D01*
X0026041Y0085234D01*
X0026000Y0085207D01*
X0025958Y0085183D01*
X0025914Y0085163D01*
X0025869Y0085146D01*
X0025822Y0085133D01*
X0025775Y0085124D01*
X0025726Y0085118D01*
X0025678Y0085116D01*
X0025678Y0085117D02*
X0024856Y0085117D01*
X0027787Y0089844D02*
X0027993Y0089844D01*
X0027993Y0090050D01*
X0027787Y0090050D01*
X0027787Y0089844D01*
X0028370Y0092350D02*
X0030426Y0092350D01*
X0029398Y0092350D02*
X0029398Y0096050D01*
X0028370Y0095228D01*
X0026706Y0095022D02*
X0026706Y0093378D01*
X0026704Y0093316D01*
X0026699Y0093254D01*
X0026689Y0093193D01*
X0026676Y0093132D01*
X0026659Y0093072D01*
X0026639Y0093013D01*
X0026615Y0092956D01*
X0026588Y0092900D01*
X0026558Y0092846D01*
X0026524Y0092794D01*
X0026487Y0092744D01*
X0026447Y0092696D01*
X0026405Y0092651D01*
X0026360Y0092609D01*
X0026312Y0092569D01*
X0026262Y0092532D01*
X0026210Y0092498D01*
X0026156Y0092468D01*
X0026100Y0092441D01*
X0026043Y0092417D01*
X0025984Y0092397D01*
X0025924Y0092380D01*
X0025863Y0092367D01*
X0025802Y0092357D01*
X0025740Y0092352D01*
X0025678Y0092350D01*
X0024650Y0092350D01*
X0024650Y0096050D01*
X0025678Y0096050D01*
X0025740Y0096048D01*
X0025802Y0096043D01*
X0025863Y0096033D01*
X0025924Y0096020D01*
X0025984Y0096003D01*
X0026043Y0095983D01*
X0026100Y0095959D01*
X0026156Y0095932D01*
X0026210Y0095902D01*
X0026262Y0095868D01*
X0026312Y0095831D01*
X0026360Y0095791D01*
X0026405Y0095749D01*
X0026447Y0095704D01*
X0026487Y0095656D01*
X0026524Y0095606D01*
X0026558Y0095554D01*
X0026588Y0095500D01*
X0026615Y0095444D01*
X0026639Y0095387D01*
X0026659Y0095328D01*
X0026676Y0095268D01*
X0026689Y0095207D01*
X0026699Y0095146D01*
X0026704Y0095084D01*
X0026706Y0095022D01*
X0032124Y0094817D02*
X0032124Y0092350D01*
X0033358Y0092350D02*
X0033358Y0094817D01*
X0033974Y0094817D02*
X0032124Y0094817D01*
X0033974Y0094817D02*
X0034022Y0094815D01*
X0034071Y0094809D01*
X0034118Y0094800D01*
X0034165Y0094787D01*
X0034210Y0094770D01*
X0034254Y0094750D01*
X0034296Y0094726D01*
X0034337Y0094699D01*
X0034375Y0094669D01*
X0034410Y0094636D01*
X0034443Y0094601D01*
X0034473Y0094563D01*
X0034500Y0094522D01*
X0034524Y0094480D01*
X0034544Y0094436D01*
X0034561Y0094391D01*
X0034574Y0094344D01*
X0034583Y0094297D01*
X0034589Y0094248D01*
X0034591Y0094200D01*
X0034591Y0092350D01*
X0036238Y0092350D02*
X0036238Y0094817D01*
X0036341Y0095844D02*
X0036135Y0095844D01*
X0036135Y0096050D01*
X0036341Y0096050D01*
X0036341Y0095844D01*
X0037816Y0094817D02*
X0038843Y0094817D01*
X0038891Y0094815D01*
X0038940Y0094809D01*
X0038987Y0094800D01*
X0039034Y0094787D01*
X0039079Y0094770D01*
X0039123Y0094750D01*
X0039165Y0094726D01*
X0039206Y0094699D01*
X0039244Y0094669D01*
X0039279Y0094636D01*
X0039312Y0094601D01*
X0039342Y0094563D01*
X0039369Y0094522D01*
X0039393Y0094480D01*
X0039413Y0094436D01*
X0039430Y0094391D01*
X0039443Y0094344D01*
X0039452Y0094297D01*
X0039458Y0094248D01*
X0039460Y0094200D01*
X0039460Y0092350D01*
X0041038Y0092350D02*
X0041038Y0094817D01*
X0041141Y0095844D02*
X0040935Y0095844D01*
X0040935Y0096050D01*
X0041141Y0096050D01*
X0041141Y0095844D01*
X0037816Y0094817D02*
X0037816Y0092350D01*
X0044844Y0094508D02*
X0045974Y0093892D01*
X0045563Y0092350D02*
X0045482Y0092352D01*
X0045402Y0092357D01*
X0045322Y0092367D01*
X0045242Y0092380D01*
X0045163Y0092397D01*
X0045085Y0092417D01*
X0045008Y0092441D01*
X0044932Y0092469D01*
X0044858Y0092500D01*
X0044785Y0092534D01*
X0044714Y0092572D01*
X0044644Y0092613D01*
X0044577Y0092657D01*
X0044511Y0092704D01*
X0044448Y0092755D01*
X0044388Y0092808D01*
X0044330Y0092864D01*
X0045974Y0093891D02*
X0046020Y0093862D01*
X0046063Y0093830D01*
X0046105Y0093796D01*
X0046144Y0093758D01*
X0046181Y0093719D01*
X0046215Y0093677D01*
X0046247Y0093632D01*
X0046275Y0093586D01*
X0046300Y0093538D01*
X0046323Y0093489D01*
X0046341Y0093438D01*
X0046357Y0093386D01*
X0046369Y0093334D01*
X0046378Y0093280D01*
X0046383Y0093226D01*
X0046385Y0093172D01*
X0046383Y0093116D01*
X0046377Y0093060D01*
X0046368Y0093005D01*
X0046355Y0092950D01*
X0046338Y0092897D01*
X0046317Y0092845D01*
X0046293Y0092794D01*
X0046265Y0092745D01*
X0046235Y0092698D01*
X0046201Y0092653D01*
X0046164Y0092611D01*
X0046124Y0092571D01*
X0046082Y0092534D01*
X0046037Y0092500D01*
X0045990Y0092470D01*
X0045941Y0092442D01*
X0045890Y0092418D01*
X0045838Y0092397D01*
X0045785Y0092380D01*
X0045730Y0092367D01*
X0045675Y0092358D01*
X0045619Y0092352D01*
X0045563Y0092350D01*
X0046180Y0095742D02*
X0046118Y0095786D01*
X0046054Y0095827D01*
X0045988Y0095865D01*
X0045919Y0095899D01*
X0045850Y0095931D01*
X0045779Y0095958D01*
X0045706Y0095982D01*
X0045633Y0096003D01*
X0045558Y0096020D01*
X0045483Y0096033D01*
X0045407Y0096042D01*
X0045331Y0096048D01*
X0045255Y0096050D01*
X0045199Y0096048D01*
X0045143Y0096042D01*
X0045088Y0096033D01*
X0045033Y0096020D01*
X0044980Y0096003D01*
X0044928Y0095982D01*
X0044877Y0095958D01*
X0044828Y0095930D01*
X0044781Y0095900D01*
X0044736Y0095866D01*
X0044694Y0095829D01*
X0044654Y0095789D01*
X0044617Y0095747D01*
X0044583Y0095702D01*
X0044553Y0095655D01*
X0044525Y0095606D01*
X0044501Y0095555D01*
X0044480Y0095503D01*
X0044463Y0095450D01*
X0044450Y0095395D01*
X0044441Y0095340D01*
X0044435Y0095284D01*
X0044433Y0095228D01*
X0044435Y0095174D01*
X0044440Y0095120D01*
X0044449Y0095066D01*
X0044461Y0095014D01*
X0044477Y0094962D01*
X0044495Y0094911D01*
X0044518Y0094862D01*
X0044543Y0094814D01*
X0044571Y0094768D01*
X0044603Y0094723D01*
X0044637Y0094681D01*
X0044674Y0094642D01*
X0044713Y0094604D01*
X0044755Y0094570D01*
X0044798Y0094538D01*
X0044844Y0094509D01*
X0047724Y0094817D02*
X0048341Y0092350D01*
X0048958Y0093994D01*
X0049574Y0092350D01*
X0050191Y0094817D01*
X0051598Y0094817D02*
X0051598Y0092350D01*
X0053164Y0092967D02*
X0053164Y0096050D01*
X0052753Y0094817D02*
X0053986Y0094817D01*
X0055339Y0094200D02*
X0055339Y0092967D01*
X0055341Y0092919D01*
X0055347Y0092870D01*
X0055356Y0092823D01*
X0055369Y0092776D01*
X0055386Y0092731D01*
X0055406Y0092687D01*
X0055430Y0092645D01*
X0055457Y0092604D01*
X0055487Y0092566D01*
X0055520Y0092531D01*
X0055555Y0092498D01*
X0055593Y0092468D01*
X0055634Y0092441D01*
X0055676Y0092417D01*
X0055720Y0092397D01*
X0055765Y0092380D01*
X0055812Y0092367D01*
X0055859Y0092358D01*
X0055908Y0092352D01*
X0055956Y0092350D01*
X0056778Y0092350D01*
X0058215Y0092350D02*
X0058215Y0096050D01*
X0058215Y0094817D02*
X0059243Y0094817D01*
X0059291Y0094815D01*
X0059340Y0094809D01*
X0059387Y0094800D01*
X0059434Y0094787D01*
X0059479Y0094770D01*
X0059523Y0094750D01*
X0059565Y0094726D01*
X0059606Y0094699D01*
X0059644Y0094669D01*
X0059679Y0094636D01*
X0059712Y0094601D01*
X0059742Y0094563D01*
X0059769Y0094522D01*
X0059793Y0094480D01*
X0059813Y0094436D01*
X0059830Y0094391D01*
X0059843Y0094344D01*
X0059852Y0094297D01*
X0059858Y0094248D01*
X0059860Y0094200D01*
X0059860Y0092350D01*
X0056778Y0094817D02*
X0055956Y0094817D01*
X0055908Y0094815D01*
X0055859Y0094809D01*
X0055812Y0094800D01*
X0055765Y0094787D01*
X0055720Y0094770D01*
X0055676Y0094750D01*
X0055634Y0094726D01*
X0055593Y0094699D01*
X0055555Y0094669D01*
X0055520Y0094636D01*
X0055487Y0094601D01*
X0055457Y0094563D01*
X0055430Y0094522D01*
X0055406Y0094480D01*
X0055386Y0094436D01*
X0055369Y0094391D01*
X0055356Y0094344D01*
X0055347Y0094297D01*
X0055341Y0094248D01*
X0055339Y0094200D01*
X0053781Y0092350D02*
X0053733Y0092352D01*
X0053684Y0092358D01*
X0053637Y0092367D01*
X0053590Y0092380D01*
X0053545Y0092397D01*
X0053501Y0092417D01*
X0053459Y0092441D01*
X0053418Y0092468D01*
X0053380Y0092498D01*
X0053345Y0092531D01*
X0053312Y0092566D01*
X0053282Y0092604D01*
X0053255Y0092645D01*
X0053231Y0092687D01*
X0053211Y0092731D01*
X0053194Y0092776D01*
X0053181Y0092823D01*
X0053172Y0092870D01*
X0053166Y0092919D01*
X0053164Y0092967D01*
X0053781Y0092350D02*
X0053986Y0092350D01*
X0051700Y0095844D02*
X0051495Y0095844D01*
X0051495Y0096050D01*
X0051700Y0096050D01*
X0051700Y0095844D01*
M02*
