G75*
%MOIN*%
%OFA0B0*%
%FSLAX25Y25*%
%IPPOS*%
%LPD*%
%AMOC8*
5,1,8,0,0,1.08239X$1,22.5*
%
%ADD10C,0.00000*%
%ADD11C,0.00500*%
%ADD12C,0.00400*%
D10*
X0001000Y0004700D02*
X0001000Y0119661D01*
X0149701Y0119661D01*
X0149701Y0004700D01*
X0001000Y0004700D01*
X0015094Y0019700D02*
X0015096Y0019853D01*
X0015102Y0020007D01*
X0015112Y0020160D01*
X0015126Y0020312D01*
X0015144Y0020465D01*
X0015166Y0020616D01*
X0015191Y0020767D01*
X0015221Y0020918D01*
X0015255Y0021068D01*
X0015292Y0021216D01*
X0015333Y0021364D01*
X0015378Y0021510D01*
X0015427Y0021656D01*
X0015480Y0021800D01*
X0015536Y0021942D01*
X0015596Y0022083D01*
X0015660Y0022223D01*
X0015727Y0022361D01*
X0015798Y0022497D01*
X0015873Y0022631D01*
X0015950Y0022763D01*
X0016032Y0022893D01*
X0016116Y0023021D01*
X0016204Y0023147D01*
X0016295Y0023270D01*
X0016389Y0023391D01*
X0016487Y0023509D01*
X0016587Y0023625D01*
X0016691Y0023738D01*
X0016797Y0023849D01*
X0016906Y0023957D01*
X0017018Y0024062D01*
X0017132Y0024163D01*
X0017250Y0024262D01*
X0017369Y0024358D01*
X0017491Y0024451D01*
X0017616Y0024540D01*
X0017743Y0024627D01*
X0017872Y0024709D01*
X0018003Y0024789D01*
X0018136Y0024865D01*
X0018271Y0024938D01*
X0018408Y0025007D01*
X0018547Y0025072D01*
X0018687Y0025134D01*
X0018829Y0025192D01*
X0018972Y0025247D01*
X0019117Y0025298D01*
X0019263Y0025345D01*
X0019410Y0025388D01*
X0019558Y0025427D01*
X0019707Y0025463D01*
X0019857Y0025494D01*
X0020008Y0025522D01*
X0020159Y0025546D01*
X0020312Y0025566D01*
X0020464Y0025582D01*
X0020617Y0025594D01*
X0020770Y0025602D01*
X0020923Y0025606D01*
X0021077Y0025606D01*
X0021230Y0025602D01*
X0021383Y0025594D01*
X0021536Y0025582D01*
X0021688Y0025566D01*
X0021841Y0025546D01*
X0021992Y0025522D01*
X0022143Y0025494D01*
X0022293Y0025463D01*
X0022442Y0025427D01*
X0022590Y0025388D01*
X0022737Y0025345D01*
X0022883Y0025298D01*
X0023028Y0025247D01*
X0023171Y0025192D01*
X0023313Y0025134D01*
X0023453Y0025072D01*
X0023592Y0025007D01*
X0023729Y0024938D01*
X0023864Y0024865D01*
X0023997Y0024789D01*
X0024128Y0024709D01*
X0024257Y0024627D01*
X0024384Y0024540D01*
X0024509Y0024451D01*
X0024631Y0024358D01*
X0024750Y0024262D01*
X0024868Y0024163D01*
X0024982Y0024062D01*
X0025094Y0023957D01*
X0025203Y0023849D01*
X0025309Y0023738D01*
X0025413Y0023625D01*
X0025513Y0023509D01*
X0025611Y0023391D01*
X0025705Y0023270D01*
X0025796Y0023147D01*
X0025884Y0023021D01*
X0025968Y0022893D01*
X0026050Y0022763D01*
X0026127Y0022631D01*
X0026202Y0022497D01*
X0026273Y0022361D01*
X0026340Y0022223D01*
X0026404Y0022083D01*
X0026464Y0021942D01*
X0026520Y0021800D01*
X0026573Y0021656D01*
X0026622Y0021510D01*
X0026667Y0021364D01*
X0026708Y0021216D01*
X0026745Y0021068D01*
X0026779Y0020918D01*
X0026809Y0020767D01*
X0026834Y0020616D01*
X0026856Y0020465D01*
X0026874Y0020312D01*
X0026888Y0020160D01*
X0026898Y0020007D01*
X0026904Y0019853D01*
X0026906Y0019700D01*
X0026904Y0019547D01*
X0026898Y0019393D01*
X0026888Y0019240D01*
X0026874Y0019088D01*
X0026856Y0018935D01*
X0026834Y0018784D01*
X0026809Y0018633D01*
X0026779Y0018482D01*
X0026745Y0018332D01*
X0026708Y0018184D01*
X0026667Y0018036D01*
X0026622Y0017890D01*
X0026573Y0017744D01*
X0026520Y0017600D01*
X0026464Y0017458D01*
X0026404Y0017317D01*
X0026340Y0017177D01*
X0026273Y0017039D01*
X0026202Y0016903D01*
X0026127Y0016769D01*
X0026050Y0016637D01*
X0025968Y0016507D01*
X0025884Y0016379D01*
X0025796Y0016253D01*
X0025705Y0016130D01*
X0025611Y0016009D01*
X0025513Y0015891D01*
X0025413Y0015775D01*
X0025309Y0015662D01*
X0025203Y0015551D01*
X0025094Y0015443D01*
X0024982Y0015338D01*
X0024868Y0015237D01*
X0024750Y0015138D01*
X0024631Y0015042D01*
X0024509Y0014949D01*
X0024384Y0014860D01*
X0024257Y0014773D01*
X0024128Y0014691D01*
X0023997Y0014611D01*
X0023864Y0014535D01*
X0023729Y0014462D01*
X0023592Y0014393D01*
X0023453Y0014328D01*
X0023313Y0014266D01*
X0023171Y0014208D01*
X0023028Y0014153D01*
X0022883Y0014102D01*
X0022737Y0014055D01*
X0022590Y0014012D01*
X0022442Y0013973D01*
X0022293Y0013937D01*
X0022143Y0013906D01*
X0021992Y0013878D01*
X0021841Y0013854D01*
X0021688Y0013834D01*
X0021536Y0013818D01*
X0021383Y0013806D01*
X0021230Y0013798D01*
X0021077Y0013794D01*
X0020923Y0013794D01*
X0020770Y0013798D01*
X0020617Y0013806D01*
X0020464Y0013818D01*
X0020312Y0013834D01*
X0020159Y0013854D01*
X0020008Y0013878D01*
X0019857Y0013906D01*
X0019707Y0013937D01*
X0019558Y0013973D01*
X0019410Y0014012D01*
X0019263Y0014055D01*
X0019117Y0014102D01*
X0018972Y0014153D01*
X0018829Y0014208D01*
X0018687Y0014266D01*
X0018547Y0014328D01*
X0018408Y0014393D01*
X0018271Y0014462D01*
X0018136Y0014535D01*
X0018003Y0014611D01*
X0017872Y0014691D01*
X0017743Y0014773D01*
X0017616Y0014860D01*
X0017491Y0014949D01*
X0017369Y0015042D01*
X0017250Y0015138D01*
X0017132Y0015237D01*
X0017018Y0015338D01*
X0016906Y0015443D01*
X0016797Y0015551D01*
X0016691Y0015662D01*
X0016587Y0015775D01*
X0016487Y0015891D01*
X0016389Y0016009D01*
X0016295Y0016130D01*
X0016204Y0016253D01*
X0016116Y0016379D01*
X0016032Y0016507D01*
X0015950Y0016637D01*
X0015873Y0016769D01*
X0015798Y0016903D01*
X0015727Y0017039D01*
X0015660Y0017177D01*
X0015596Y0017317D01*
X0015536Y0017458D01*
X0015480Y0017600D01*
X0015427Y0017744D01*
X0015378Y0017890D01*
X0015333Y0018036D01*
X0015292Y0018184D01*
X0015255Y0018332D01*
X0015221Y0018482D01*
X0015191Y0018633D01*
X0015166Y0018784D01*
X0015144Y0018935D01*
X0015126Y0019088D01*
X0015112Y0019240D01*
X0015102Y0019393D01*
X0015096Y0019547D01*
X0015094Y0019700D01*
X0035094Y0109700D02*
X0035096Y0109853D01*
X0035102Y0110007D01*
X0035112Y0110160D01*
X0035126Y0110312D01*
X0035144Y0110465D01*
X0035166Y0110616D01*
X0035191Y0110767D01*
X0035221Y0110918D01*
X0035255Y0111068D01*
X0035292Y0111216D01*
X0035333Y0111364D01*
X0035378Y0111510D01*
X0035427Y0111656D01*
X0035480Y0111800D01*
X0035536Y0111942D01*
X0035596Y0112083D01*
X0035660Y0112223D01*
X0035727Y0112361D01*
X0035798Y0112497D01*
X0035873Y0112631D01*
X0035950Y0112763D01*
X0036032Y0112893D01*
X0036116Y0113021D01*
X0036204Y0113147D01*
X0036295Y0113270D01*
X0036389Y0113391D01*
X0036487Y0113509D01*
X0036587Y0113625D01*
X0036691Y0113738D01*
X0036797Y0113849D01*
X0036906Y0113957D01*
X0037018Y0114062D01*
X0037132Y0114163D01*
X0037250Y0114262D01*
X0037369Y0114358D01*
X0037491Y0114451D01*
X0037616Y0114540D01*
X0037743Y0114627D01*
X0037872Y0114709D01*
X0038003Y0114789D01*
X0038136Y0114865D01*
X0038271Y0114938D01*
X0038408Y0115007D01*
X0038547Y0115072D01*
X0038687Y0115134D01*
X0038829Y0115192D01*
X0038972Y0115247D01*
X0039117Y0115298D01*
X0039263Y0115345D01*
X0039410Y0115388D01*
X0039558Y0115427D01*
X0039707Y0115463D01*
X0039857Y0115494D01*
X0040008Y0115522D01*
X0040159Y0115546D01*
X0040312Y0115566D01*
X0040464Y0115582D01*
X0040617Y0115594D01*
X0040770Y0115602D01*
X0040923Y0115606D01*
X0041077Y0115606D01*
X0041230Y0115602D01*
X0041383Y0115594D01*
X0041536Y0115582D01*
X0041688Y0115566D01*
X0041841Y0115546D01*
X0041992Y0115522D01*
X0042143Y0115494D01*
X0042293Y0115463D01*
X0042442Y0115427D01*
X0042590Y0115388D01*
X0042737Y0115345D01*
X0042883Y0115298D01*
X0043028Y0115247D01*
X0043171Y0115192D01*
X0043313Y0115134D01*
X0043453Y0115072D01*
X0043592Y0115007D01*
X0043729Y0114938D01*
X0043864Y0114865D01*
X0043997Y0114789D01*
X0044128Y0114709D01*
X0044257Y0114627D01*
X0044384Y0114540D01*
X0044509Y0114451D01*
X0044631Y0114358D01*
X0044750Y0114262D01*
X0044868Y0114163D01*
X0044982Y0114062D01*
X0045094Y0113957D01*
X0045203Y0113849D01*
X0045309Y0113738D01*
X0045413Y0113625D01*
X0045513Y0113509D01*
X0045611Y0113391D01*
X0045705Y0113270D01*
X0045796Y0113147D01*
X0045884Y0113021D01*
X0045968Y0112893D01*
X0046050Y0112763D01*
X0046127Y0112631D01*
X0046202Y0112497D01*
X0046273Y0112361D01*
X0046340Y0112223D01*
X0046404Y0112083D01*
X0046464Y0111942D01*
X0046520Y0111800D01*
X0046573Y0111656D01*
X0046622Y0111510D01*
X0046667Y0111364D01*
X0046708Y0111216D01*
X0046745Y0111068D01*
X0046779Y0110918D01*
X0046809Y0110767D01*
X0046834Y0110616D01*
X0046856Y0110465D01*
X0046874Y0110312D01*
X0046888Y0110160D01*
X0046898Y0110007D01*
X0046904Y0109853D01*
X0046906Y0109700D01*
X0046904Y0109547D01*
X0046898Y0109393D01*
X0046888Y0109240D01*
X0046874Y0109088D01*
X0046856Y0108935D01*
X0046834Y0108784D01*
X0046809Y0108633D01*
X0046779Y0108482D01*
X0046745Y0108332D01*
X0046708Y0108184D01*
X0046667Y0108036D01*
X0046622Y0107890D01*
X0046573Y0107744D01*
X0046520Y0107600D01*
X0046464Y0107458D01*
X0046404Y0107317D01*
X0046340Y0107177D01*
X0046273Y0107039D01*
X0046202Y0106903D01*
X0046127Y0106769D01*
X0046050Y0106637D01*
X0045968Y0106507D01*
X0045884Y0106379D01*
X0045796Y0106253D01*
X0045705Y0106130D01*
X0045611Y0106009D01*
X0045513Y0105891D01*
X0045413Y0105775D01*
X0045309Y0105662D01*
X0045203Y0105551D01*
X0045094Y0105443D01*
X0044982Y0105338D01*
X0044868Y0105237D01*
X0044750Y0105138D01*
X0044631Y0105042D01*
X0044509Y0104949D01*
X0044384Y0104860D01*
X0044257Y0104773D01*
X0044128Y0104691D01*
X0043997Y0104611D01*
X0043864Y0104535D01*
X0043729Y0104462D01*
X0043592Y0104393D01*
X0043453Y0104328D01*
X0043313Y0104266D01*
X0043171Y0104208D01*
X0043028Y0104153D01*
X0042883Y0104102D01*
X0042737Y0104055D01*
X0042590Y0104012D01*
X0042442Y0103973D01*
X0042293Y0103937D01*
X0042143Y0103906D01*
X0041992Y0103878D01*
X0041841Y0103854D01*
X0041688Y0103834D01*
X0041536Y0103818D01*
X0041383Y0103806D01*
X0041230Y0103798D01*
X0041077Y0103794D01*
X0040923Y0103794D01*
X0040770Y0103798D01*
X0040617Y0103806D01*
X0040464Y0103818D01*
X0040312Y0103834D01*
X0040159Y0103854D01*
X0040008Y0103878D01*
X0039857Y0103906D01*
X0039707Y0103937D01*
X0039558Y0103973D01*
X0039410Y0104012D01*
X0039263Y0104055D01*
X0039117Y0104102D01*
X0038972Y0104153D01*
X0038829Y0104208D01*
X0038687Y0104266D01*
X0038547Y0104328D01*
X0038408Y0104393D01*
X0038271Y0104462D01*
X0038136Y0104535D01*
X0038003Y0104611D01*
X0037872Y0104691D01*
X0037743Y0104773D01*
X0037616Y0104860D01*
X0037491Y0104949D01*
X0037369Y0105042D01*
X0037250Y0105138D01*
X0037132Y0105237D01*
X0037018Y0105338D01*
X0036906Y0105443D01*
X0036797Y0105551D01*
X0036691Y0105662D01*
X0036587Y0105775D01*
X0036487Y0105891D01*
X0036389Y0106009D01*
X0036295Y0106130D01*
X0036204Y0106253D01*
X0036116Y0106379D01*
X0036032Y0106507D01*
X0035950Y0106637D01*
X0035873Y0106769D01*
X0035798Y0106903D01*
X0035727Y0107039D01*
X0035660Y0107177D01*
X0035596Y0107317D01*
X0035536Y0107458D01*
X0035480Y0107600D01*
X0035427Y0107744D01*
X0035378Y0107890D01*
X0035333Y0108036D01*
X0035292Y0108184D01*
X0035255Y0108332D01*
X0035221Y0108482D01*
X0035191Y0108633D01*
X0035166Y0108784D01*
X0035144Y0108935D01*
X0035126Y0109088D01*
X0035112Y0109240D01*
X0035102Y0109393D01*
X0035096Y0109547D01*
X0035094Y0109700D01*
X0115094Y0109700D02*
X0115096Y0109853D01*
X0115102Y0110007D01*
X0115112Y0110160D01*
X0115126Y0110312D01*
X0115144Y0110465D01*
X0115166Y0110616D01*
X0115191Y0110767D01*
X0115221Y0110918D01*
X0115255Y0111068D01*
X0115292Y0111216D01*
X0115333Y0111364D01*
X0115378Y0111510D01*
X0115427Y0111656D01*
X0115480Y0111800D01*
X0115536Y0111942D01*
X0115596Y0112083D01*
X0115660Y0112223D01*
X0115727Y0112361D01*
X0115798Y0112497D01*
X0115873Y0112631D01*
X0115950Y0112763D01*
X0116032Y0112893D01*
X0116116Y0113021D01*
X0116204Y0113147D01*
X0116295Y0113270D01*
X0116389Y0113391D01*
X0116487Y0113509D01*
X0116587Y0113625D01*
X0116691Y0113738D01*
X0116797Y0113849D01*
X0116906Y0113957D01*
X0117018Y0114062D01*
X0117132Y0114163D01*
X0117250Y0114262D01*
X0117369Y0114358D01*
X0117491Y0114451D01*
X0117616Y0114540D01*
X0117743Y0114627D01*
X0117872Y0114709D01*
X0118003Y0114789D01*
X0118136Y0114865D01*
X0118271Y0114938D01*
X0118408Y0115007D01*
X0118547Y0115072D01*
X0118687Y0115134D01*
X0118829Y0115192D01*
X0118972Y0115247D01*
X0119117Y0115298D01*
X0119263Y0115345D01*
X0119410Y0115388D01*
X0119558Y0115427D01*
X0119707Y0115463D01*
X0119857Y0115494D01*
X0120008Y0115522D01*
X0120159Y0115546D01*
X0120312Y0115566D01*
X0120464Y0115582D01*
X0120617Y0115594D01*
X0120770Y0115602D01*
X0120923Y0115606D01*
X0121077Y0115606D01*
X0121230Y0115602D01*
X0121383Y0115594D01*
X0121536Y0115582D01*
X0121688Y0115566D01*
X0121841Y0115546D01*
X0121992Y0115522D01*
X0122143Y0115494D01*
X0122293Y0115463D01*
X0122442Y0115427D01*
X0122590Y0115388D01*
X0122737Y0115345D01*
X0122883Y0115298D01*
X0123028Y0115247D01*
X0123171Y0115192D01*
X0123313Y0115134D01*
X0123453Y0115072D01*
X0123592Y0115007D01*
X0123729Y0114938D01*
X0123864Y0114865D01*
X0123997Y0114789D01*
X0124128Y0114709D01*
X0124257Y0114627D01*
X0124384Y0114540D01*
X0124509Y0114451D01*
X0124631Y0114358D01*
X0124750Y0114262D01*
X0124868Y0114163D01*
X0124982Y0114062D01*
X0125094Y0113957D01*
X0125203Y0113849D01*
X0125309Y0113738D01*
X0125413Y0113625D01*
X0125513Y0113509D01*
X0125611Y0113391D01*
X0125705Y0113270D01*
X0125796Y0113147D01*
X0125884Y0113021D01*
X0125968Y0112893D01*
X0126050Y0112763D01*
X0126127Y0112631D01*
X0126202Y0112497D01*
X0126273Y0112361D01*
X0126340Y0112223D01*
X0126404Y0112083D01*
X0126464Y0111942D01*
X0126520Y0111800D01*
X0126573Y0111656D01*
X0126622Y0111510D01*
X0126667Y0111364D01*
X0126708Y0111216D01*
X0126745Y0111068D01*
X0126779Y0110918D01*
X0126809Y0110767D01*
X0126834Y0110616D01*
X0126856Y0110465D01*
X0126874Y0110312D01*
X0126888Y0110160D01*
X0126898Y0110007D01*
X0126904Y0109853D01*
X0126906Y0109700D01*
X0126904Y0109547D01*
X0126898Y0109393D01*
X0126888Y0109240D01*
X0126874Y0109088D01*
X0126856Y0108935D01*
X0126834Y0108784D01*
X0126809Y0108633D01*
X0126779Y0108482D01*
X0126745Y0108332D01*
X0126708Y0108184D01*
X0126667Y0108036D01*
X0126622Y0107890D01*
X0126573Y0107744D01*
X0126520Y0107600D01*
X0126464Y0107458D01*
X0126404Y0107317D01*
X0126340Y0107177D01*
X0126273Y0107039D01*
X0126202Y0106903D01*
X0126127Y0106769D01*
X0126050Y0106637D01*
X0125968Y0106507D01*
X0125884Y0106379D01*
X0125796Y0106253D01*
X0125705Y0106130D01*
X0125611Y0106009D01*
X0125513Y0105891D01*
X0125413Y0105775D01*
X0125309Y0105662D01*
X0125203Y0105551D01*
X0125094Y0105443D01*
X0124982Y0105338D01*
X0124868Y0105237D01*
X0124750Y0105138D01*
X0124631Y0105042D01*
X0124509Y0104949D01*
X0124384Y0104860D01*
X0124257Y0104773D01*
X0124128Y0104691D01*
X0123997Y0104611D01*
X0123864Y0104535D01*
X0123729Y0104462D01*
X0123592Y0104393D01*
X0123453Y0104328D01*
X0123313Y0104266D01*
X0123171Y0104208D01*
X0123028Y0104153D01*
X0122883Y0104102D01*
X0122737Y0104055D01*
X0122590Y0104012D01*
X0122442Y0103973D01*
X0122293Y0103937D01*
X0122143Y0103906D01*
X0121992Y0103878D01*
X0121841Y0103854D01*
X0121688Y0103834D01*
X0121536Y0103818D01*
X0121383Y0103806D01*
X0121230Y0103798D01*
X0121077Y0103794D01*
X0120923Y0103794D01*
X0120770Y0103798D01*
X0120617Y0103806D01*
X0120464Y0103818D01*
X0120312Y0103834D01*
X0120159Y0103854D01*
X0120008Y0103878D01*
X0119857Y0103906D01*
X0119707Y0103937D01*
X0119558Y0103973D01*
X0119410Y0104012D01*
X0119263Y0104055D01*
X0119117Y0104102D01*
X0118972Y0104153D01*
X0118829Y0104208D01*
X0118687Y0104266D01*
X0118547Y0104328D01*
X0118408Y0104393D01*
X0118271Y0104462D01*
X0118136Y0104535D01*
X0118003Y0104611D01*
X0117872Y0104691D01*
X0117743Y0104773D01*
X0117616Y0104860D01*
X0117491Y0104949D01*
X0117369Y0105042D01*
X0117250Y0105138D01*
X0117132Y0105237D01*
X0117018Y0105338D01*
X0116906Y0105443D01*
X0116797Y0105551D01*
X0116691Y0105662D01*
X0116587Y0105775D01*
X0116487Y0105891D01*
X0116389Y0106009D01*
X0116295Y0106130D01*
X0116204Y0106253D01*
X0116116Y0106379D01*
X0116032Y0106507D01*
X0115950Y0106637D01*
X0115873Y0106769D01*
X0115798Y0106903D01*
X0115727Y0107039D01*
X0115660Y0107177D01*
X0115596Y0107317D01*
X0115536Y0107458D01*
X0115480Y0107600D01*
X0115427Y0107744D01*
X0115378Y0107890D01*
X0115333Y0108036D01*
X0115292Y0108184D01*
X0115255Y0108332D01*
X0115221Y0108482D01*
X0115191Y0108633D01*
X0115166Y0108784D01*
X0115144Y0108935D01*
X0115126Y0109088D01*
X0115112Y0109240D01*
X0115102Y0109393D01*
X0115096Y0109547D01*
X0115094Y0109700D01*
X0115094Y0019700D02*
X0115096Y0019853D01*
X0115102Y0020007D01*
X0115112Y0020160D01*
X0115126Y0020312D01*
X0115144Y0020465D01*
X0115166Y0020616D01*
X0115191Y0020767D01*
X0115221Y0020918D01*
X0115255Y0021068D01*
X0115292Y0021216D01*
X0115333Y0021364D01*
X0115378Y0021510D01*
X0115427Y0021656D01*
X0115480Y0021800D01*
X0115536Y0021942D01*
X0115596Y0022083D01*
X0115660Y0022223D01*
X0115727Y0022361D01*
X0115798Y0022497D01*
X0115873Y0022631D01*
X0115950Y0022763D01*
X0116032Y0022893D01*
X0116116Y0023021D01*
X0116204Y0023147D01*
X0116295Y0023270D01*
X0116389Y0023391D01*
X0116487Y0023509D01*
X0116587Y0023625D01*
X0116691Y0023738D01*
X0116797Y0023849D01*
X0116906Y0023957D01*
X0117018Y0024062D01*
X0117132Y0024163D01*
X0117250Y0024262D01*
X0117369Y0024358D01*
X0117491Y0024451D01*
X0117616Y0024540D01*
X0117743Y0024627D01*
X0117872Y0024709D01*
X0118003Y0024789D01*
X0118136Y0024865D01*
X0118271Y0024938D01*
X0118408Y0025007D01*
X0118547Y0025072D01*
X0118687Y0025134D01*
X0118829Y0025192D01*
X0118972Y0025247D01*
X0119117Y0025298D01*
X0119263Y0025345D01*
X0119410Y0025388D01*
X0119558Y0025427D01*
X0119707Y0025463D01*
X0119857Y0025494D01*
X0120008Y0025522D01*
X0120159Y0025546D01*
X0120312Y0025566D01*
X0120464Y0025582D01*
X0120617Y0025594D01*
X0120770Y0025602D01*
X0120923Y0025606D01*
X0121077Y0025606D01*
X0121230Y0025602D01*
X0121383Y0025594D01*
X0121536Y0025582D01*
X0121688Y0025566D01*
X0121841Y0025546D01*
X0121992Y0025522D01*
X0122143Y0025494D01*
X0122293Y0025463D01*
X0122442Y0025427D01*
X0122590Y0025388D01*
X0122737Y0025345D01*
X0122883Y0025298D01*
X0123028Y0025247D01*
X0123171Y0025192D01*
X0123313Y0025134D01*
X0123453Y0025072D01*
X0123592Y0025007D01*
X0123729Y0024938D01*
X0123864Y0024865D01*
X0123997Y0024789D01*
X0124128Y0024709D01*
X0124257Y0024627D01*
X0124384Y0024540D01*
X0124509Y0024451D01*
X0124631Y0024358D01*
X0124750Y0024262D01*
X0124868Y0024163D01*
X0124982Y0024062D01*
X0125094Y0023957D01*
X0125203Y0023849D01*
X0125309Y0023738D01*
X0125413Y0023625D01*
X0125513Y0023509D01*
X0125611Y0023391D01*
X0125705Y0023270D01*
X0125796Y0023147D01*
X0125884Y0023021D01*
X0125968Y0022893D01*
X0126050Y0022763D01*
X0126127Y0022631D01*
X0126202Y0022497D01*
X0126273Y0022361D01*
X0126340Y0022223D01*
X0126404Y0022083D01*
X0126464Y0021942D01*
X0126520Y0021800D01*
X0126573Y0021656D01*
X0126622Y0021510D01*
X0126667Y0021364D01*
X0126708Y0021216D01*
X0126745Y0021068D01*
X0126779Y0020918D01*
X0126809Y0020767D01*
X0126834Y0020616D01*
X0126856Y0020465D01*
X0126874Y0020312D01*
X0126888Y0020160D01*
X0126898Y0020007D01*
X0126904Y0019853D01*
X0126906Y0019700D01*
X0126904Y0019547D01*
X0126898Y0019393D01*
X0126888Y0019240D01*
X0126874Y0019088D01*
X0126856Y0018935D01*
X0126834Y0018784D01*
X0126809Y0018633D01*
X0126779Y0018482D01*
X0126745Y0018332D01*
X0126708Y0018184D01*
X0126667Y0018036D01*
X0126622Y0017890D01*
X0126573Y0017744D01*
X0126520Y0017600D01*
X0126464Y0017458D01*
X0126404Y0017317D01*
X0126340Y0017177D01*
X0126273Y0017039D01*
X0126202Y0016903D01*
X0126127Y0016769D01*
X0126050Y0016637D01*
X0125968Y0016507D01*
X0125884Y0016379D01*
X0125796Y0016253D01*
X0125705Y0016130D01*
X0125611Y0016009D01*
X0125513Y0015891D01*
X0125413Y0015775D01*
X0125309Y0015662D01*
X0125203Y0015551D01*
X0125094Y0015443D01*
X0124982Y0015338D01*
X0124868Y0015237D01*
X0124750Y0015138D01*
X0124631Y0015042D01*
X0124509Y0014949D01*
X0124384Y0014860D01*
X0124257Y0014773D01*
X0124128Y0014691D01*
X0123997Y0014611D01*
X0123864Y0014535D01*
X0123729Y0014462D01*
X0123592Y0014393D01*
X0123453Y0014328D01*
X0123313Y0014266D01*
X0123171Y0014208D01*
X0123028Y0014153D01*
X0122883Y0014102D01*
X0122737Y0014055D01*
X0122590Y0014012D01*
X0122442Y0013973D01*
X0122293Y0013937D01*
X0122143Y0013906D01*
X0121992Y0013878D01*
X0121841Y0013854D01*
X0121688Y0013834D01*
X0121536Y0013818D01*
X0121383Y0013806D01*
X0121230Y0013798D01*
X0121077Y0013794D01*
X0120923Y0013794D01*
X0120770Y0013798D01*
X0120617Y0013806D01*
X0120464Y0013818D01*
X0120312Y0013834D01*
X0120159Y0013854D01*
X0120008Y0013878D01*
X0119857Y0013906D01*
X0119707Y0013937D01*
X0119558Y0013973D01*
X0119410Y0014012D01*
X0119263Y0014055D01*
X0119117Y0014102D01*
X0118972Y0014153D01*
X0118829Y0014208D01*
X0118687Y0014266D01*
X0118547Y0014328D01*
X0118408Y0014393D01*
X0118271Y0014462D01*
X0118136Y0014535D01*
X0118003Y0014611D01*
X0117872Y0014691D01*
X0117743Y0014773D01*
X0117616Y0014860D01*
X0117491Y0014949D01*
X0117369Y0015042D01*
X0117250Y0015138D01*
X0117132Y0015237D01*
X0117018Y0015338D01*
X0116906Y0015443D01*
X0116797Y0015551D01*
X0116691Y0015662D01*
X0116587Y0015775D01*
X0116487Y0015891D01*
X0116389Y0016009D01*
X0116295Y0016130D01*
X0116204Y0016253D01*
X0116116Y0016379D01*
X0116032Y0016507D01*
X0115950Y0016637D01*
X0115873Y0016769D01*
X0115798Y0016903D01*
X0115727Y0017039D01*
X0115660Y0017177D01*
X0115596Y0017317D01*
X0115536Y0017458D01*
X0115480Y0017600D01*
X0115427Y0017744D01*
X0115378Y0017890D01*
X0115333Y0018036D01*
X0115292Y0018184D01*
X0115255Y0018332D01*
X0115221Y0018482D01*
X0115191Y0018633D01*
X0115166Y0018784D01*
X0115144Y0018935D01*
X0115126Y0019088D01*
X0115112Y0019240D01*
X0115102Y0019393D01*
X0115096Y0019547D01*
X0115094Y0019700D01*
D11*
X0120000Y0038950D02*
X0123500Y0038950D01*
X0123500Y0041950D01*
X0118500Y0043950D02*
X0118500Y0045450D01*
X0120000Y0050450D02*
X0123500Y0050450D01*
X0123500Y0047450D01*
X0123500Y0051450D02*
X0120000Y0051450D01*
X0123500Y0051450D02*
X0123500Y0054450D01*
X0118500Y0056450D02*
X0118500Y0057950D01*
X0120000Y0062950D02*
X0123500Y0062950D01*
X0123500Y0059950D01*
X0123500Y0070450D02*
X0120000Y0070450D01*
X0123500Y0070450D02*
X0123500Y0073450D01*
X0118500Y0075450D02*
X0118500Y0076950D01*
X0120000Y0081950D02*
X0123500Y0081950D01*
X0123500Y0078950D01*
X0123500Y0083450D02*
X0120000Y0083450D01*
X0123500Y0083450D02*
X0123500Y0086450D01*
X0118500Y0088450D02*
X0118500Y0089950D01*
X0120000Y0094950D02*
X0123500Y0094950D01*
X0123500Y0091950D01*
X0086500Y0090950D02*
X0086500Y0087950D01*
X0083000Y0087950D01*
X0083000Y0084950D02*
X0086500Y0084950D01*
X0086500Y0081950D01*
X0081500Y0079950D02*
X0081500Y0078450D01*
X0083000Y0073450D02*
X0086500Y0073450D01*
X0086500Y0076450D01*
X0086500Y0069450D02*
X0083000Y0069450D01*
X0086500Y0069450D02*
X0086500Y0066450D01*
X0081500Y0064450D02*
X0081500Y0062950D01*
X0083000Y0057950D02*
X0086500Y0057950D01*
X0086500Y0060950D01*
X0083500Y0037700D02*
X0083500Y0024700D01*
X0090500Y0024700D01*
X0090500Y0037700D01*
X0083500Y0037700D01*
X0060500Y0037700D02*
X0060500Y0024700D01*
X0053500Y0024700D01*
X0053500Y0037700D01*
X0060500Y0037700D01*
X0050500Y0037700D02*
X0043500Y0037700D01*
X0043500Y0024700D01*
X0050500Y0024700D01*
X0050500Y0037700D01*
X0081500Y0092950D02*
X0081500Y0094450D01*
X0083000Y0099450D02*
X0086500Y0099450D01*
X0086500Y0096450D01*
D12*
X0075300Y0096500D02*
X0075300Y0094778D01*
X0074956Y0094778D01*
X0074439Y0093468D02*
X0073061Y0093468D01*
X0072889Y0093124D02*
X0072200Y0093813D01*
X0073061Y0093468D02*
X0073003Y0093466D01*
X0072946Y0093460D01*
X0072890Y0093451D01*
X0072834Y0093437D01*
X0072779Y0093420D01*
X0072725Y0093400D01*
X0072673Y0093375D01*
X0072622Y0093348D01*
X0072574Y0093317D01*
X0072527Y0093283D01*
X0072483Y0093246D01*
X0072442Y0093206D01*
X0072403Y0093163D01*
X0072368Y0093118D01*
X0072335Y0093070D01*
X0072306Y0093021D01*
X0072280Y0092969D01*
X0072258Y0092916D01*
X0072239Y0092862D01*
X0072223Y0092807D01*
X0072212Y0092750D01*
X0072204Y0092693D01*
X0072200Y0092636D01*
X0072200Y0092578D01*
X0072204Y0092521D01*
X0072212Y0092464D01*
X0072223Y0092407D01*
X0072239Y0092352D01*
X0072258Y0092298D01*
X0072280Y0092245D01*
X0072306Y0092193D01*
X0072335Y0092144D01*
X0072368Y0092096D01*
X0072403Y0092051D01*
X0072442Y0092008D01*
X0072483Y0091968D01*
X0072527Y0091931D01*
X0072574Y0091897D01*
X0072622Y0091866D01*
X0072673Y0091839D01*
X0072725Y0091814D01*
X0072779Y0091794D01*
X0072834Y0091777D01*
X0072890Y0091763D01*
X0072946Y0091754D01*
X0073003Y0091748D01*
X0073061Y0091746D01*
X0074439Y0091746D01*
X0074497Y0091748D01*
X0074554Y0091754D01*
X0074610Y0091763D01*
X0074666Y0091777D01*
X0074721Y0091794D01*
X0074775Y0091814D01*
X0074827Y0091839D01*
X0074878Y0091866D01*
X0074926Y0091897D01*
X0074973Y0091931D01*
X0075017Y0091968D01*
X0075058Y0092008D01*
X0075097Y0092051D01*
X0075132Y0092096D01*
X0075165Y0092144D01*
X0075194Y0092193D01*
X0075220Y0092245D01*
X0075242Y0092298D01*
X0075261Y0092352D01*
X0075277Y0092407D01*
X0075288Y0092464D01*
X0075296Y0092521D01*
X0075300Y0092578D01*
X0075300Y0092636D01*
X0075296Y0092693D01*
X0075288Y0092750D01*
X0075277Y0092807D01*
X0075261Y0092862D01*
X0075242Y0092916D01*
X0075220Y0092969D01*
X0075194Y0093021D01*
X0075165Y0093070D01*
X0075132Y0093118D01*
X0075097Y0093163D01*
X0075058Y0093206D01*
X0075017Y0093246D01*
X0074973Y0093283D01*
X0074926Y0093317D01*
X0074878Y0093348D01*
X0074827Y0093375D01*
X0074775Y0093400D01*
X0074721Y0093420D01*
X0074666Y0093437D01*
X0074610Y0093451D01*
X0074554Y0093460D01*
X0074497Y0093466D01*
X0074439Y0093468D01*
X0072200Y0095639D02*
X0075300Y0096500D01*
X0073233Y0081000D02*
X0073061Y0081000D01*
X0073233Y0081000D02*
X0073284Y0080998D01*
X0073336Y0080992D01*
X0073386Y0080983D01*
X0073436Y0080969D01*
X0073485Y0080952D01*
X0073532Y0080932D01*
X0073578Y0080908D01*
X0073621Y0080880D01*
X0073663Y0080850D01*
X0073702Y0080816D01*
X0073738Y0080780D01*
X0073772Y0080741D01*
X0073802Y0080699D01*
X0073830Y0080656D01*
X0073854Y0080610D01*
X0073874Y0080563D01*
X0073891Y0080514D01*
X0073905Y0080464D01*
X0073914Y0080414D01*
X0073920Y0080362D01*
X0073922Y0080311D01*
X0073922Y0079278D01*
X0073061Y0079278D01*
X0073003Y0079280D01*
X0072946Y0079286D01*
X0072890Y0079295D01*
X0072834Y0079309D01*
X0072779Y0079326D01*
X0072725Y0079346D01*
X0072673Y0079371D01*
X0072622Y0079398D01*
X0072574Y0079429D01*
X0072527Y0079463D01*
X0072483Y0079500D01*
X0072442Y0079540D01*
X0072403Y0079583D01*
X0072368Y0079628D01*
X0072335Y0079676D01*
X0072306Y0079725D01*
X0072280Y0079777D01*
X0072258Y0079830D01*
X0072239Y0079884D01*
X0072223Y0079939D01*
X0072212Y0079996D01*
X0072204Y0080053D01*
X0072200Y0080110D01*
X0072200Y0080168D01*
X0072204Y0080225D01*
X0072212Y0080282D01*
X0072223Y0080339D01*
X0072239Y0080394D01*
X0072258Y0080448D01*
X0072280Y0080501D01*
X0072306Y0080553D01*
X0072335Y0080602D01*
X0072368Y0080650D01*
X0072403Y0080695D01*
X0072442Y0080738D01*
X0072483Y0080778D01*
X0072527Y0080815D01*
X0072574Y0080849D01*
X0072622Y0080880D01*
X0072673Y0080907D01*
X0072725Y0080932D01*
X0072779Y0080952D01*
X0072834Y0080969D01*
X0072890Y0080983D01*
X0072946Y0080992D01*
X0073003Y0080998D01*
X0073061Y0081000D01*
X0073922Y0079278D02*
X0073994Y0079280D01*
X0074066Y0079286D01*
X0074138Y0079295D01*
X0074209Y0079308D01*
X0074279Y0079325D01*
X0074348Y0079345D01*
X0074416Y0079370D01*
X0074482Y0079397D01*
X0074548Y0079428D01*
X0074611Y0079463D01*
X0074673Y0079500D01*
X0074732Y0079541D01*
X0074789Y0079585D01*
X0074844Y0079632D01*
X0074896Y0079682D01*
X0074946Y0079734D01*
X0074993Y0079789D01*
X0075037Y0079846D01*
X0075078Y0079905D01*
X0075115Y0079967D01*
X0075150Y0080030D01*
X0075181Y0080096D01*
X0075208Y0080162D01*
X0075233Y0080230D01*
X0075253Y0080299D01*
X0075270Y0080369D01*
X0075283Y0080440D01*
X0075292Y0080512D01*
X0075298Y0080584D01*
X0075300Y0080656D01*
X0074439Y0077968D02*
X0073061Y0077968D01*
X0072889Y0077624D02*
X0072200Y0078313D01*
X0073061Y0077968D02*
X0073003Y0077966D01*
X0072946Y0077960D01*
X0072890Y0077951D01*
X0072834Y0077937D01*
X0072779Y0077920D01*
X0072725Y0077900D01*
X0072673Y0077875D01*
X0072622Y0077848D01*
X0072574Y0077817D01*
X0072527Y0077783D01*
X0072483Y0077746D01*
X0072442Y0077706D01*
X0072403Y0077663D01*
X0072368Y0077618D01*
X0072335Y0077570D01*
X0072306Y0077521D01*
X0072280Y0077469D01*
X0072258Y0077416D01*
X0072239Y0077362D01*
X0072223Y0077307D01*
X0072212Y0077250D01*
X0072204Y0077193D01*
X0072200Y0077136D01*
X0072200Y0077078D01*
X0072204Y0077021D01*
X0072212Y0076964D01*
X0072223Y0076907D01*
X0072239Y0076852D01*
X0072258Y0076798D01*
X0072280Y0076745D01*
X0072306Y0076693D01*
X0072335Y0076644D01*
X0072368Y0076596D01*
X0072403Y0076551D01*
X0072442Y0076508D01*
X0072483Y0076468D01*
X0072527Y0076431D01*
X0072574Y0076397D01*
X0072622Y0076366D01*
X0072673Y0076339D01*
X0072725Y0076314D01*
X0072779Y0076294D01*
X0072834Y0076277D01*
X0072890Y0076263D01*
X0072946Y0076254D01*
X0073003Y0076248D01*
X0073061Y0076246D01*
X0074439Y0076246D01*
X0074497Y0076248D01*
X0074554Y0076254D01*
X0074610Y0076263D01*
X0074666Y0076277D01*
X0074721Y0076294D01*
X0074775Y0076314D01*
X0074827Y0076339D01*
X0074878Y0076366D01*
X0074926Y0076397D01*
X0074973Y0076431D01*
X0075017Y0076468D01*
X0075058Y0076508D01*
X0075097Y0076551D01*
X0075132Y0076596D01*
X0075165Y0076644D01*
X0075194Y0076693D01*
X0075220Y0076745D01*
X0075242Y0076798D01*
X0075261Y0076852D01*
X0075277Y0076907D01*
X0075288Y0076964D01*
X0075296Y0077021D01*
X0075300Y0077078D01*
X0075300Y0077136D01*
X0075296Y0077193D01*
X0075288Y0077250D01*
X0075277Y0077307D01*
X0075261Y0077362D01*
X0075242Y0077416D01*
X0075220Y0077469D01*
X0075194Y0077521D01*
X0075165Y0077570D01*
X0075132Y0077618D01*
X0075097Y0077663D01*
X0075058Y0077706D01*
X0075017Y0077746D01*
X0074973Y0077783D01*
X0074926Y0077817D01*
X0074878Y0077848D01*
X0074827Y0077875D01*
X0074775Y0077900D01*
X0074721Y0077920D01*
X0074666Y0077937D01*
X0074610Y0077951D01*
X0074554Y0077960D01*
X0074497Y0077966D01*
X0074439Y0077968D01*
X0075300Y0067000D02*
X0075300Y0065278D01*
X0073922Y0065278D01*
X0073922Y0066311D01*
X0073920Y0066362D01*
X0073914Y0066414D01*
X0073905Y0066464D01*
X0073891Y0066514D01*
X0073874Y0066563D01*
X0073854Y0066610D01*
X0073830Y0066656D01*
X0073802Y0066699D01*
X0073772Y0066741D01*
X0073738Y0066780D01*
X0073702Y0066816D01*
X0073663Y0066850D01*
X0073621Y0066880D01*
X0073578Y0066908D01*
X0073532Y0066932D01*
X0073485Y0066952D01*
X0073436Y0066969D01*
X0073386Y0066983D01*
X0073336Y0066992D01*
X0073284Y0066998D01*
X0073233Y0067000D01*
X0072889Y0067000D01*
X0072837Y0066998D01*
X0072786Y0066992D01*
X0072736Y0066983D01*
X0072686Y0066969D01*
X0072637Y0066952D01*
X0072590Y0066932D01*
X0072544Y0066908D01*
X0072501Y0066880D01*
X0072459Y0066850D01*
X0072420Y0066816D01*
X0072384Y0066780D01*
X0072350Y0066741D01*
X0072320Y0066699D01*
X0072292Y0066655D01*
X0072268Y0066610D01*
X0072248Y0066563D01*
X0072231Y0066514D01*
X0072217Y0066464D01*
X0072208Y0066414D01*
X0072202Y0066362D01*
X0072200Y0066311D01*
X0072200Y0065278D01*
X0072200Y0064313D02*
X0072889Y0063624D01*
X0073061Y0063968D02*
X0074439Y0063968D01*
X0074497Y0063966D01*
X0074554Y0063960D01*
X0074610Y0063951D01*
X0074666Y0063937D01*
X0074721Y0063920D01*
X0074775Y0063900D01*
X0074827Y0063875D01*
X0074878Y0063848D01*
X0074926Y0063817D01*
X0074973Y0063783D01*
X0075017Y0063746D01*
X0075058Y0063706D01*
X0075097Y0063663D01*
X0075132Y0063618D01*
X0075165Y0063570D01*
X0075194Y0063521D01*
X0075220Y0063469D01*
X0075242Y0063416D01*
X0075261Y0063362D01*
X0075277Y0063307D01*
X0075288Y0063250D01*
X0075296Y0063193D01*
X0075300Y0063136D01*
X0075300Y0063078D01*
X0075296Y0063021D01*
X0075288Y0062964D01*
X0075277Y0062907D01*
X0075261Y0062852D01*
X0075242Y0062798D01*
X0075220Y0062745D01*
X0075194Y0062693D01*
X0075165Y0062644D01*
X0075132Y0062596D01*
X0075097Y0062551D01*
X0075058Y0062508D01*
X0075017Y0062468D01*
X0074973Y0062431D01*
X0074926Y0062397D01*
X0074878Y0062366D01*
X0074827Y0062339D01*
X0074775Y0062314D01*
X0074721Y0062294D01*
X0074666Y0062277D01*
X0074610Y0062263D01*
X0074554Y0062254D01*
X0074497Y0062248D01*
X0074439Y0062246D01*
X0073061Y0062246D01*
X0073003Y0062248D01*
X0072946Y0062254D01*
X0072890Y0062263D01*
X0072834Y0062277D01*
X0072779Y0062294D01*
X0072725Y0062314D01*
X0072673Y0062339D01*
X0072622Y0062366D01*
X0072574Y0062397D01*
X0072527Y0062431D01*
X0072483Y0062468D01*
X0072442Y0062508D01*
X0072403Y0062551D01*
X0072368Y0062596D01*
X0072335Y0062644D01*
X0072306Y0062693D01*
X0072280Y0062745D01*
X0072258Y0062798D01*
X0072239Y0062852D01*
X0072223Y0062907D01*
X0072212Y0062964D01*
X0072204Y0063021D01*
X0072200Y0063078D01*
X0072200Y0063136D01*
X0072204Y0063193D01*
X0072212Y0063250D01*
X0072223Y0063307D01*
X0072239Y0063362D01*
X0072258Y0063416D01*
X0072280Y0063469D01*
X0072306Y0063521D01*
X0072335Y0063570D01*
X0072368Y0063618D01*
X0072403Y0063663D01*
X0072442Y0063706D01*
X0072483Y0063746D01*
X0072527Y0063783D01*
X0072574Y0063817D01*
X0072622Y0063848D01*
X0072673Y0063875D01*
X0072725Y0063900D01*
X0072779Y0063920D01*
X0072834Y0063937D01*
X0072890Y0063951D01*
X0072946Y0063960D01*
X0073003Y0063966D01*
X0073061Y0063968D01*
X0085217Y0044000D02*
X0085162Y0043998D01*
X0085107Y0043992D01*
X0085052Y0043982D01*
X0084999Y0043969D01*
X0084946Y0043951D01*
X0084895Y0043930D01*
X0084846Y0043905D01*
X0084798Y0043877D01*
X0084753Y0043845D01*
X0084709Y0043811D01*
X0084669Y0043773D01*
X0084631Y0043733D01*
X0084597Y0043689D01*
X0084565Y0043644D01*
X0084537Y0043596D01*
X0084512Y0043547D01*
X0084491Y0043496D01*
X0084473Y0043443D01*
X0084460Y0043390D01*
X0084450Y0043335D01*
X0084444Y0043280D01*
X0084442Y0043225D01*
X0084700Y0042622D02*
X0086164Y0040900D01*
X0084442Y0040900D01*
X0086165Y0043311D02*
X0086144Y0043367D01*
X0086121Y0043422D01*
X0086094Y0043475D01*
X0086065Y0043527D01*
X0086032Y0043577D01*
X0085996Y0043624D01*
X0085958Y0043670D01*
X0085916Y0043713D01*
X0085873Y0043754D01*
X0085827Y0043792D01*
X0085778Y0043827D01*
X0085728Y0043859D01*
X0085676Y0043888D01*
X0085622Y0043914D01*
X0085567Y0043936D01*
X0085511Y0043956D01*
X0085453Y0043972D01*
X0085395Y0043984D01*
X0085336Y0043993D01*
X0085277Y0043998D01*
X0085217Y0044000D01*
X0084442Y0043225D02*
X0084444Y0043169D01*
X0084450Y0043113D01*
X0084459Y0043058D01*
X0084472Y0043003D01*
X0084489Y0042950D01*
X0084509Y0042897D01*
X0084533Y0042846D01*
X0084560Y0042797D01*
X0084591Y0042750D01*
X0084624Y0042705D01*
X0084661Y0042663D01*
X0084700Y0042623D01*
X0087422Y0044000D02*
X0088111Y0044000D01*
X0088162Y0043998D01*
X0088214Y0043992D01*
X0088264Y0043983D01*
X0088314Y0043969D01*
X0088363Y0043952D01*
X0088410Y0043932D01*
X0088456Y0043908D01*
X0088499Y0043880D01*
X0088541Y0043850D01*
X0088580Y0043816D01*
X0088616Y0043780D01*
X0088650Y0043741D01*
X0088680Y0043699D01*
X0088708Y0043656D01*
X0088732Y0043610D01*
X0088752Y0043563D01*
X0088769Y0043514D01*
X0088783Y0043464D01*
X0088792Y0043414D01*
X0088798Y0043362D01*
X0088800Y0043311D01*
X0088800Y0041589D01*
X0088798Y0041538D01*
X0088792Y0041486D01*
X0088783Y0041436D01*
X0088769Y0041386D01*
X0088752Y0041337D01*
X0088732Y0041290D01*
X0088708Y0041245D01*
X0088680Y0041201D01*
X0088650Y0041159D01*
X0088616Y0041120D01*
X0088580Y0041084D01*
X0088541Y0041050D01*
X0088499Y0041020D01*
X0088456Y0040992D01*
X0088410Y0040968D01*
X0088363Y0040948D01*
X0088314Y0040931D01*
X0088264Y0040917D01*
X0088214Y0040908D01*
X0088162Y0040902D01*
X0088111Y0040900D01*
X0087422Y0040900D01*
X0108700Y0044313D02*
X0109389Y0043624D01*
X0109561Y0043968D02*
X0110939Y0043968D01*
X0110997Y0043966D01*
X0111054Y0043960D01*
X0111110Y0043951D01*
X0111166Y0043937D01*
X0111221Y0043920D01*
X0111275Y0043900D01*
X0111327Y0043875D01*
X0111378Y0043848D01*
X0111426Y0043817D01*
X0111473Y0043783D01*
X0111517Y0043746D01*
X0111558Y0043706D01*
X0111597Y0043663D01*
X0111632Y0043618D01*
X0111665Y0043570D01*
X0111694Y0043521D01*
X0111720Y0043469D01*
X0111742Y0043416D01*
X0111761Y0043362D01*
X0111777Y0043307D01*
X0111788Y0043250D01*
X0111796Y0043193D01*
X0111800Y0043136D01*
X0111800Y0043078D01*
X0111796Y0043021D01*
X0111788Y0042964D01*
X0111777Y0042907D01*
X0111761Y0042852D01*
X0111742Y0042798D01*
X0111720Y0042745D01*
X0111694Y0042693D01*
X0111665Y0042644D01*
X0111632Y0042596D01*
X0111597Y0042551D01*
X0111558Y0042508D01*
X0111517Y0042468D01*
X0111473Y0042431D01*
X0111426Y0042397D01*
X0111378Y0042366D01*
X0111327Y0042339D01*
X0111275Y0042314D01*
X0111221Y0042294D01*
X0111166Y0042277D01*
X0111110Y0042263D01*
X0111054Y0042254D01*
X0110997Y0042248D01*
X0110939Y0042246D01*
X0109561Y0042246D01*
X0109503Y0042248D01*
X0109446Y0042254D01*
X0109390Y0042263D01*
X0109334Y0042277D01*
X0109279Y0042294D01*
X0109225Y0042314D01*
X0109173Y0042339D01*
X0109122Y0042366D01*
X0109074Y0042397D01*
X0109027Y0042431D01*
X0108983Y0042468D01*
X0108942Y0042508D01*
X0108903Y0042551D01*
X0108868Y0042596D01*
X0108835Y0042644D01*
X0108806Y0042693D01*
X0108780Y0042745D01*
X0108758Y0042798D01*
X0108739Y0042852D01*
X0108723Y0042907D01*
X0108712Y0042964D01*
X0108704Y0043021D01*
X0108700Y0043078D01*
X0108700Y0043136D01*
X0108704Y0043193D01*
X0108712Y0043250D01*
X0108723Y0043307D01*
X0108739Y0043362D01*
X0108758Y0043416D01*
X0108780Y0043469D01*
X0108806Y0043521D01*
X0108835Y0043570D01*
X0108868Y0043618D01*
X0108903Y0043663D01*
X0108942Y0043706D01*
X0108983Y0043746D01*
X0109027Y0043783D01*
X0109074Y0043817D01*
X0109122Y0043848D01*
X0109173Y0043875D01*
X0109225Y0043900D01*
X0109279Y0043920D01*
X0109334Y0043937D01*
X0109390Y0043951D01*
X0109446Y0043960D01*
X0109503Y0043966D01*
X0109561Y0043968D01*
X0108700Y0045278D02*
X0108700Y0046139D01*
X0108702Y0046197D01*
X0108708Y0046254D01*
X0108717Y0046310D01*
X0108731Y0046366D01*
X0108748Y0046421D01*
X0108768Y0046475D01*
X0108793Y0046527D01*
X0108820Y0046578D01*
X0108851Y0046626D01*
X0108885Y0046673D01*
X0108922Y0046717D01*
X0108962Y0046758D01*
X0109005Y0046797D01*
X0109050Y0046832D01*
X0109098Y0046865D01*
X0109147Y0046894D01*
X0109199Y0046920D01*
X0109252Y0046942D01*
X0109306Y0046961D01*
X0109361Y0046977D01*
X0109418Y0046988D01*
X0109475Y0046996D01*
X0109532Y0047000D01*
X0109590Y0047000D01*
X0109647Y0046996D01*
X0109704Y0046988D01*
X0109761Y0046977D01*
X0109816Y0046961D01*
X0109870Y0046942D01*
X0109923Y0046920D01*
X0109975Y0046894D01*
X0110024Y0046865D01*
X0110072Y0046832D01*
X0110117Y0046797D01*
X0110160Y0046758D01*
X0110200Y0046717D01*
X0110237Y0046673D01*
X0110271Y0046626D01*
X0110302Y0046578D01*
X0110329Y0046527D01*
X0110354Y0046475D01*
X0110374Y0046421D01*
X0110391Y0046366D01*
X0110405Y0046310D01*
X0110414Y0046254D01*
X0110420Y0046197D01*
X0110422Y0046139D01*
X0110422Y0046311D02*
X0110422Y0045622D01*
X0110422Y0046311D02*
X0110424Y0046362D01*
X0110430Y0046414D01*
X0110439Y0046464D01*
X0110453Y0046514D01*
X0110470Y0046563D01*
X0110490Y0046610D01*
X0110514Y0046656D01*
X0110542Y0046699D01*
X0110572Y0046741D01*
X0110606Y0046780D01*
X0110642Y0046816D01*
X0110681Y0046850D01*
X0110723Y0046880D01*
X0110767Y0046908D01*
X0110812Y0046932D01*
X0110859Y0046952D01*
X0110908Y0046969D01*
X0110958Y0046983D01*
X0111008Y0046992D01*
X0111060Y0046998D01*
X0111111Y0047000D01*
X0111162Y0046998D01*
X0111214Y0046992D01*
X0111264Y0046983D01*
X0111314Y0046969D01*
X0111363Y0046952D01*
X0111410Y0046932D01*
X0111456Y0046908D01*
X0111499Y0046880D01*
X0111541Y0046850D01*
X0111580Y0046816D01*
X0111616Y0046780D01*
X0111650Y0046741D01*
X0111680Y0046699D01*
X0111708Y0046656D01*
X0111732Y0046610D01*
X0111752Y0046563D01*
X0111769Y0046514D01*
X0111783Y0046464D01*
X0111792Y0046414D01*
X0111798Y0046362D01*
X0111800Y0046311D01*
X0111800Y0045278D01*
X0110439Y0054746D02*
X0109061Y0054746D01*
X0109003Y0054748D01*
X0108946Y0054754D01*
X0108890Y0054763D01*
X0108834Y0054777D01*
X0108779Y0054794D01*
X0108725Y0054814D01*
X0108673Y0054839D01*
X0108622Y0054866D01*
X0108574Y0054897D01*
X0108527Y0054931D01*
X0108483Y0054968D01*
X0108442Y0055008D01*
X0108403Y0055051D01*
X0108368Y0055096D01*
X0108335Y0055144D01*
X0108306Y0055193D01*
X0108280Y0055245D01*
X0108258Y0055298D01*
X0108239Y0055352D01*
X0108223Y0055407D01*
X0108212Y0055464D01*
X0108204Y0055521D01*
X0108200Y0055578D01*
X0108200Y0055636D01*
X0108204Y0055693D01*
X0108212Y0055750D01*
X0108223Y0055807D01*
X0108239Y0055862D01*
X0108258Y0055916D01*
X0108280Y0055969D01*
X0108306Y0056021D01*
X0108335Y0056070D01*
X0108368Y0056118D01*
X0108403Y0056163D01*
X0108442Y0056206D01*
X0108483Y0056246D01*
X0108527Y0056283D01*
X0108574Y0056317D01*
X0108622Y0056348D01*
X0108673Y0056375D01*
X0108725Y0056400D01*
X0108779Y0056420D01*
X0108834Y0056437D01*
X0108890Y0056451D01*
X0108946Y0056460D01*
X0109003Y0056466D01*
X0109061Y0056468D01*
X0110439Y0056468D01*
X0110497Y0056466D01*
X0110554Y0056460D01*
X0110610Y0056451D01*
X0110666Y0056437D01*
X0110721Y0056420D01*
X0110775Y0056400D01*
X0110827Y0056375D01*
X0110878Y0056348D01*
X0110926Y0056317D01*
X0110973Y0056283D01*
X0111017Y0056246D01*
X0111058Y0056206D01*
X0111097Y0056163D01*
X0111132Y0056118D01*
X0111165Y0056070D01*
X0111194Y0056021D01*
X0111220Y0055969D01*
X0111242Y0055916D01*
X0111261Y0055862D01*
X0111277Y0055807D01*
X0111288Y0055750D01*
X0111296Y0055693D01*
X0111300Y0055636D01*
X0111300Y0055578D01*
X0111296Y0055521D01*
X0111288Y0055464D01*
X0111277Y0055407D01*
X0111261Y0055352D01*
X0111242Y0055298D01*
X0111220Y0055245D01*
X0111194Y0055193D01*
X0111165Y0055144D01*
X0111132Y0055096D01*
X0111097Y0055051D01*
X0111058Y0055008D01*
X0111017Y0054968D01*
X0110973Y0054931D01*
X0110926Y0054897D01*
X0110878Y0054866D01*
X0110827Y0054839D01*
X0110775Y0054814D01*
X0110721Y0054794D01*
X0110666Y0054777D01*
X0110610Y0054763D01*
X0110554Y0054754D01*
X0110497Y0054748D01*
X0110439Y0054746D01*
X0108889Y0056124D02*
X0108200Y0056813D01*
X0108889Y0057778D02*
X0108889Y0059500D01*
X0109578Y0058983D02*
X0108200Y0058983D01*
X0108889Y0057778D02*
X0111300Y0058467D01*
X0110439Y0073746D02*
X0109061Y0073746D01*
X0109003Y0073748D01*
X0108946Y0073754D01*
X0108890Y0073763D01*
X0108834Y0073777D01*
X0108779Y0073794D01*
X0108725Y0073814D01*
X0108673Y0073839D01*
X0108622Y0073866D01*
X0108574Y0073897D01*
X0108527Y0073931D01*
X0108483Y0073968D01*
X0108442Y0074008D01*
X0108403Y0074051D01*
X0108368Y0074096D01*
X0108335Y0074144D01*
X0108306Y0074193D01*
X0108280Y0074245D01*
X0108258Y0074298D01*
X0108239Y0074352D01*
X0108223Y0074407D01*
X0108212Y0074464D01*
X0108204Y0074521D01*
X0108200Y0074578D01*
X0108200Y0074636D01*
X0108204Y0074693D01*
X0108212Y0074750D01*
X0108223Y0074807D01*
X0108239Y0074862D01*
X0108258Y0074916D01*
X0108280Y0074969D01*
X0108306Y0075021D01*
X0108335Y0075070D01*
X0108368Y0075118D01*
X0108403Y0075163D01*
X0108442Y0075206D01*
X0108483Y0075246D01*
X0108527Y0075283D01*
X0108574Y0075317D01*
X0108622Y0075348D01*
X0108673Y0075375D01*
X0108725Y0075400D01*
X0108779Y0075420D01*
X0108834Y0075437D01*
X0108890Y0075451D01*
X0108946Y0075460D01*
X0109003Y0075466D01*
X0109061Y0075468D01*
X0110439Y0075468D01*
X0110497Y0075466D01*
X0110554Y0075460D01*
X0110610Y0075451D01*
X0110666Y0075437D01*
X0110721Y0075420D01*
X0110775Y0075400D01*
X0110827Y0075375D01*
X0110878Y0075348D01*
X0110926Y0075317D01*
X0110973Y0075283D01*
X0111017Y0075246D01*
X0111058Y0075206D01*
X0111097Y0075163D01*
X0111132Y0075118D01*
X0111165Y0075070D01*
X0111194Y0075021D01*
X0111220Y0074969D01*
X0111242Y0074916D01*
X0111261Y0074862D01*
X0111277Y0074807D01*
X0111288Y0074750D01*
X0111296Y0074693D01*
X0111300Y0074636D01*
X0111300Y0074578D01*
X0111296Y0074521D01*
X0111288Y0074464D01*
X0111277Y0074407D01*
X0111261Y0074352D01*
X0111242Y0074298D01*
X0111220Y0074245D01*
X0111194Y0074193D01*
X0111165Y0074144D01*
X0111132Y0074096D01*
X0111097Y0074051D01*
X0111058Y0074008D01*
X0111017Y0073968D01*
X0110973Y0073931D01*
X0110926Y0073897D01*
X0110878Y0073866D01*
X0110827Y0073839D01*
X0110775Y0073814D01*
X0110721Y0073794D01*
X0110666Y0073777D01*
X0110610Y0073763D01*
X0110554Y0073754D01*
X0110497Y0073748D01*
X0110439Y0073746D01*
X0108889Y0075124D02*
X0108200Y0075813D01*
X0108200Y0076778D02*
X0108200Y0078500D01*
X0108200Y0076778D02*
X0109922Y0078242D01*
X0111300Y0077725D02*
X0111298Y0077665D01*
X0111293Y0077606D01*
X0111284Y0077547D01*
X0111272Y0077489D01*
X0111256Y0077431D01*
X0111236Y0077375D01*
X0111214Y0077320D01*
X0111188Y0077266D01*
X0111159Y0077214D01*
X0111127Y0077164D01*
X0111092Y0077115D01*
X0111054Y0077069D01*
X0111013Y0077026D01*
X0110970Y0076984D01*
X0110924Y0076946D01*
X0110877Y0076910D01*
X0110827Y0076877D01*
X0110775Y0076848D01*
X0110722Y0076821D01*
X0110667Y0076798D01*
X0110611Y0076777D01*
X0109923Y0078242D02*
X0109963Y0078281D01*
X0110005Y0078318D01*
X0110050Y0078351D01*
X0110097Y0078382D01*
X0110146Y0078409D01*
X0110197Y0078433D01*
X0110250Y0078453D01*
X0110303Y0078470D01*
X0110358Y0078483D01*
X0110413Y0078492D01*
X0110469Y0078498D01*
X0110525Y0078500D01*
X0110580Y0078498D01*
X0110635Y0078492D01*
X0110690Y0078482D01*
X0110743Y0078469D01*
X0110796Y0078451D01*
X0110847Y0078430D01*
X0110896Y0078405D01*
X0110944Y0078377D01*
X0110989Y0078345D01*
X0111033Y0078311D01*
X0111073Y0078273D01*
X0111111Y0078233D01*
X0111145Y0078189D01*
X0111177Y0078144D01*
X0111205Y0078096D01*
X0111230Y0078047D01*
X0111251Y0077996D01*
X0111269Y0077943D01*
X0111282Y0077890D01*
X0111292Y0077835D01*
X0111298Y0077780D01*
X0111300Y0077725D01*
X0110439Y0087246D02*
X0109061Y0087246D01*
X0109003Y0087248D01*
X0108946Y0087254D01*
X0108890Y0087263D01*
X0108834Y0087277D01*
X0108779Y0087294D01*
X0108725Y0087314D01*
X0108673Y0087339D01*
X0108622Y0087366D01*
X0108574Y0087397D01*
X0108527Y0087431D01*
X0108483Y0087468D01*
X0108442Y0087508D01*
X0108403Y0087551D01*
X0108368Y0087596D01*
X0108335Y0087644D01*
X0108306Y0087693D01*
X0108280Y0087745D01*
X0108258Y0087798D01*
X0108239Y0087852D01*
X0108223Y0087907D01*
X0108212Y0087964D01*
X0108204Y0088021D01*
X0108200Y0088078D01*
X0108200Y0088136D01*
X0108204Y0088193D01*
X0108212Y0088250D01*
X0108223Y0088307D01*
X0108239Y0088362D01*
X0108258Y0088416D01*
X0108280Y0088469D01*
X0108306Y0088521D01*
X0108335Y0088570D01*
X0108368Y0088618D01*
X0108403Y0088663D01*
X0108442Y0088706D01*
X0108483Y0088746D01*
X0108527Y0088783D01*
X0108574Y0088817D01*
X0108622Y0088848D01*
X0108673Y0088875D01*
X0108725Y0088900D01*
X0108779Y0088920D01*
X0108834Y0088937D01*
X0108890Y0088951D01*
X0108946Y0088960D01*
X0109003Y0088966D01*
X0109061Y0088968D01*
X0110439Y0088968D01*
X0110497Y0088966D01*
X0110554Y0088960D01*
X0110610Y0088951D01*
X0110666Y0088937D01*
X0110721Y0088920D01*
X0110775Y0088900D01*
X0110827Y0088875D01*
X0110878Y0088848D01*
X0110926Y0088817D01*
X0110973Y0088783D01*
X0111017Y0088746D01*
X0111058Y0088706D01*
X0111097Y0088663D01*
X0111132Y0088618D01*
X0111165Y0088570D01*
X0111194Y0088521D01*
X0111220Y0088469D01*
X0111242Y0088416D01*
X0111261Y0088362D01*
X0111277Y0088307D01*
X0111288Y0088250D01*
X0111296Y0088193D01*
X0111300Y0088136D01*
X0111300Y0088078D01*
X0111296Y0088021D01*
X0111288Y0087964D01*
X0111277Y0087907D01*
X0111261Y0087852D01*
X0111242Y0087798D01*
X0111220Y0087745D01*
X0111194Y0087693D01*
X0111165Y0087644D01*
X0111132Y0087596D01*
X0111097Y0087551D01*
X0111058Y0087508D01*
X0111017Y0087468D01*
X0110973Y0087431D01*
X0110926Y0087397D01*
X0110878Y0087366D01*
X0110827Y0087339D01*
X0110775Y0087314D01*
X0110721Y0087294D01*
X0110666Y0087277D01*
X0110610Y0087263D01*
X0110554Y0087254D01*
X0110497Y0087248D01*
X0110439Y0087246D01*
X0108889Y0088624D02*
X0108200Y0089313D01*
X0108200Y0090278D02*
X0108200Y0092000D01*
X0108200Y0091139D02*
X0111300Y0091139D01*
X0110611Y0090278D01*
X0058800Y0043311D02*
X0058800Y0041589D01*
X0058798Y0041538D01*
X0058792Y0041486D01*
X0058783Y0041436D01*
X0058769Y0041386D01*
X0058752Y0041337D01*
X0058732Y0041290D01*
X0058708Y0041245D01*
X0058680Y0041201D01*
X0058650Y0041159D01*
X0058616Y0041120D01*
X0058580Y0041084D01*
X0058541Y0041050D01*
X0058499Y0041020D01*
X0058456Y0040992D01*
X0058410Y0040968D01*
X0058363Y0040948D01*
X0058314Y0040931D01*
X0058264Y0040917D01*
X0058214Y0040908D01*
X0058162Y0040902D01*
X0058111Y0040900D01*
X0057422Y0040900D01*
X0056164Y0040900D02*
X0055303Y0040900D01*
X0055245Y0040902D01*
X0055188Y0040908D01*
X0055132Y0040917D01*
X0055076Y0040931D01*
X0055021Y0040948D01*
X0054967Y0040968D01*
X0054915Y0040993D01*
X0054864Y0041020D01*
X0054816Y0041051D01*
X0054769Y0041085D01*
X0054725Y0041122D01*
X0054684Y0041162D01*
X0054645Y0041205D01*
X0054610Y0041250D01*
X0054577Y0041298D01*
X0054548Y0041347D01*
X0054522Y0041399D01*
X0054500Y0041452D01*
X0054481Y0041506D01*
X0054465Y0041561D01*
X0054454Y0041618D01*
X0054446Y0041675D01*
X0054442Y0041732D01*
X0054442Y0041790D01*
X0054446Y0041847D01*
X0054454Y0041904D01*
X0054465Y0041961D01*
X0054481Y0042016D01*
X0054500Y0042070D01*
X0054522Y0042123D01*
X0054548Y0042175D01*
X0054577Y0042224D01*
X0054610Y0042272D01*
X0054645Y0042317D01*
X0054684Y0042360D01*
X0054725Y0042400D01*
X0054769Y0042437D01*
X0054816Y0042471D01*
X0054864Y0042502D01*
X0054915Y0042529D01*
X0054967Y0042554D01*
X0055021Y0042574D01*
X0055076Y0042591D01*
X0055132Y0042605D01*
X0055188Y0042614D01*
X0055245Y0042620D01*
X0055303Y0042622D01*
X0055131Y0042622D02*
X0055819Y0042622D01*
X0055131Y0042622D02*
X0055080Y0042624D01*
X0055028Y0042630D01*
X0054978Y0042639D01*
X0054928Y0042653D01*
X0054879Y0042670D01*
X0054832Y0042690D01*
X0054787Y0042714D01*
X0054743Y0042742D01*
X0054701Y0042772D01*
X0054662Y0042806D01*
X0054626Y0042842D01*
X0054592Y0042881D01*
X0054562Y0042923D01*
X0054534Y0042967D01*
X0054510Y0043012D01*
X0054490Y0043059D01*
X0054473Y0043108D01*
X0054459Y0043158D01*
X0054450Y0043208D01*
X0054444Y0043260D01*
X0054442Y0043311D01*
X0054444Y0043362D01*
X0054450Y0043414D01*
X0054459Y0043464D01*
X0054473Y0043514D01*
X0054490Y0043563D01*
X0054510Y0043610D01*
X0054534Y0043656D01*
X0054562Y0043699D01*
X0054592Y0043741D01*
X0054626Y0043780D01*
X0054662Y0043816D01*
X0054701Y0043850D01*
X0054743Y0043880D01*
X0054787Y0043908D01*
X0054832Y0043932D01*
X0054879Y0043952D01*
X0054928Y0043969D01*
X0054978Y0043983D01*
X0055028Y0043992D01*
X0055080Y0043998D01*
X0055131Y0044000D01*
X0056164Y0044000D01*
X0057422Y0044000D02*
X0058111Y0044000D01*
X0058162Y0043998D01*
X0058214Y0043992D01*
X0058264Y0043983D01*
X0058314Y0043969D01*
X0058363Y0043952D01*
X0058410Y0043932D01*
X0058456Y0043908D01*
X0058499Y0043880D01*
X0058541Y0043850D01*
X0058580Y0043816D01*
X0058616Y0043780D01*
X0058650Y0043741D01*
X0058680Y0043699D01*
X0058708Y0043656D01*
X0058732Y0043610D01*
X0058752Y0043563D01*
X0058769Y0043514D01*
X0058783Y0043464D01*
X0058792Y0043414D01*
X0058798Y0043362D01*
X0058800Y0043311D01*
X0048800Y0043311D02*
X0048800Y0041589D01*
X0048798Y0041538D01*
X0048792Y0041486D01*
X0048783Y0041436D01*
X0048769Y0041386D01*
X0048752Y0041337D01*
X0048732Y0041290D01*
X0048708Y0041245D01*
X0048680Y0041201D01*
X0048650Y0041159D01*
X0048616Y0041120D01*
X0048580Y0041084D01*
X0048541Y0041050D01*
X0048499Y0041020D01*
X0048456Y0040992D01*
X0048410Y0040968D01*
X0048363Y0040948D01*
X0048314Y0040931D01*
X0048264Y0040917D01*
X0048214Y0040908D01*
X0048162Y0040902D01*
X0048111Y0040900D01*
X0047422Y0040900D01*
X0046164Y0040900D02*
X0044442Y0040900D01*
X0045303Y0040900D02*
X0045303Y0044000D01*
X0046164Y0043311D01*
X0047422Y0044000D02*
X0048111Y0044000D01*
X0048162Y0043998D01*
X0048214Y0043992D01*
X0048264Y0043983D01*
X0048314Y0043969D01*
X0048363Y0043952D01*
X0048410Y0043932D01*
X0048456Y0043908D01*
X0048499Y0043880D01*
X0048541Y0043850D01*
X0048580Y0043816D01*
X0048616Y0043780D01*
X0048650Y0043741D01*
X0048680Y0043699D01*
X0048708Y0043656D01*
X0048732Y0043610D01*
X0048752Y0043563D01*
X0048769Y0043514D01*
X0048783Y0043464D01*
X0048792Y0043414D01*
X0048798Y0043362D01*
X0048800Y0043311D01*
M02*
