G75*
%MOIN*%
%OFA0B0*%
%FSLAX25Y25*%
%IPPOS*%
%LPD*%
%AMOC8*
5,1,8,0,0,1.08239X$1,22.5*
%
%ADD10R,0.04500X0.04000*%
%ADD11C,0.06000*%
%ADD12OC8,0.05150*%
%ADD13C,0.01000*%
%ADD14C,0.02400*%
%ADD15C,0.00600*%
%ADD16C,0.02978*%
%ADD17C,0.01600*%
D10*
X0080000Y0060200D03*
X0080000Y0067200D03*
X0080000Y0075700D03*
X0080000Y0082700D03*
X0080000Y0090200D03*
X0080000Y0097200D03*
X0088000Y0093700D03*
X0088000Y0079200D03*
X0088000Y0063700D03*
X0117000Y0060700D03*
X0117000Y0053700D03*
X0117000Y0048200D03*
X0117000Y0041200D03*
X0125000Y0044700D03*
X0125000Y0057200D03*
X0117000Y0072700D03*
X0117000Y0079700D03*
X0117000Y0085700D03*
X0117000Y0092700D03*
X0125000Y0089200D03*
X0125000Y0076200D03*
D11*
X0136500Y0078700D02*
X0142500Y0078700D01*
X0142500Y0068700D02*
X0136500Y0068700D01*
X0136500Y0058700D02*
X0142500Y0058700D01*
X0142500Y0048700D02*
X0136500Y0048700D01*
X0136500Y0038700D02*
X0142500Y0038700D01*
X0142500Y0028700D02*
X0136500Y0028700D01*
X0097000Y0017700D02*
X0097000Y0011700D01*
X0087000Y0011700D02*
X0087000Y0017700D01*
X0077000Y0017700D02*
X0077000Y0011700D01*
X0067000Y0011700D02*
X0067000Y0017700D01*
X0057000Y0017700D02*
X0057000Y0011700D01*
X0047000Y0011700D02*
X0047000Y0017700D01*
X0136500Y0088700D02*
X0142500Y0088700D01*
X0142500Y0098700D02*
X0136500Y0098700D01*
D12*
X0101000Y0099700D03*
X0101000Y0089700D03*
X0101000Y0079700D03*
X0101000Y0069700D03*
X0101000Y0059700D03*
X0101000Y0049700D03*
X0101000Y0039700D03*
X0101000Y0109700D03*
X0011000Y0109700D03*
X0011000Y0099700D03*
X0011000Y0089700D03*
X0011000Y0079700D03*
X0011000Y0069700D03*
X0011000Y0059700D03*
X0011000Y0049700D03*
X0011000Y0039700D03*
D13*
X0044750Y0036200D02*
X0044750Y0033200D01*
X0044750Y0036200D02*
X0049250Y0036200D01*
X0049250Y0033200D01*
X0044750Y0033200D01*
X0044750Y0034199D02*
X0049250Y0034199D01*
X0049250Y0035198D02*
X0044750Y0035198D01*
X0044750Y0036197D02*
X0049250Y0036197D01*
X0054750Y0036200D02*
X0054750Y0033200D01*
X0054750Y0036200D02*
X0059250Y0036200D01*
X0059250Y0033200D01*
X0054750Y0033200D01*
X0054750Y0034199D02*
X0059250Y0034199D01*
X0059250Y0035198D02*
X0054750Y0035198D01*
X0054750Y0036197D02*
X0059250Y0036197D01*
X0054750Y0029200D02*
X0054750Y0026200D01*
X0054750Y0029200D02*
X0059250Y0029200D01*
X0059250Y0026200D01*
X0054750Y0026200D01*
X0054750Y0027199D02*
X0059250Y0027199D01*
X0059250Y0028198D02*
X0054750Y0028198D01*
X0054750Y0029197D02*
X0059250Y0029197D01*
X0044750Y0029200D02*
X0044750Y0026200D01*
X0044750Y0029200D02*
X0049250Y0029200D01*
X0049250Y0026200D01*
X0044750Y0026200D01*
X0044750Y0027199D02*
X0049250Y0027199D01*
X0049250Y0028198D02*
X0044750Y0028198D01*
X0044750Y0029197D02*
X0049250Y0029197D01*
X0084750Y0029200D02*
X0084750Y0026200D01*
X0084750Y0029200D02*
X0089250Y0029200D01*
X0089250Y0026200D01*
X0084750Y0026200D01*
X0084750Y0027199D02*
X0089250Y0027199D01*
X0089250Y0028198D02*
X0084750Y0028198D01*
X0084750Y0029197D02*
X0089250Y0029197D01*
X0084750Y0033200D02*
X0084750Y0036200D01*
X0089250Y0036200D01*
X0089250Y0033200D01*
X0084750Y0033200D01*
X0084750Y0034199D02*
X0089250Y0034199D01*
X0089250Y0035198D02*
X0084750Y0035198D01*
X0084750Y0036197D02*
X0089250Y0036197D01*
D14*
X0057000Y0027700D02*
X0057000Y0014700D01*
X0047000Y0014700D02*
X0047000Y0027700D01*
D15*
X0005300Y0009000D02*
X0005300Y0115361D01*
X0032484Y0115361D01*
X0031490Y0113639D01*
X0030794Y0111044D01*
X0030794Y0108356D01*
X0031490Y0105761D01*
X0032834Y0103434D01*
X0034734Y0101534D01*
X0037061Y0100190D01*
X0039656Y0099494D01*
X0042344Y0099494D01*
X0044939Y0100190D01*
X0047266Y0101534D01*
X0049166Y0103434D01*
X0050510Y0105761D01*
X0051205Y0108356D01*
X0051205Y0111044D01*
X0050510Y0113639D01*
X0049516Y0115361D01*
X0112484Y0115361D01*
X0111490Y0113639D01*
X0110794Y0111044D01*
X0110794Y0108356D01*
X0111490Y0105761D01*
X0112834Y0103434D01*
X0114734Y0101534D01*
X0116697Y0100400D01*
X0104917Y0100400D01*
X0104475Y0099958D01*
X0104475Y0101139D01*
X0102439Y0103175D01*
X0099561Y0103175D01*
X0097525Y0101139D01*
X0097525Y0098261D01*
X0098386Y0097400D01*
X0092796Y0097400D01*
X0091800Y0096404D01*
X0091150Y0095754D01*
X0091150Y0096073D01*
X0090623Y0096600D01*
X0085377Y0096600D01*
X0084850Y0096073D01*
X0084850Y0091327D01*
X0085377Y0090800D01*
X0090623Y0090800D01*
X0091150Y0091327D01*
X0091150Y0092000D01*
X0092204Y0092000D01*
X0094204Y0094000D01*
X0100204Y0094000D01*
X0100229Y0094025D01*
X0103351Y0094025D01*
X0106325Y0097000D01*
X0130254Y0097000D01*
X0130325Y0090900D01*
X0128150Y0090900D01*
X0128150Y0091573D01*
X0127623Y0092100D01*
X0122377Y0092100D01*
X0121850Y0091573D01*
X0121850Y0086827D01*
X0122377Y0086300D01*
X0127623Y0086300D01*
X0128150Y0086827D01*
X0128150Y0087500D01*
X0130365Y0087500D01*
X0130448Y0080400D01*
X0127796Y0080400D01*
X0126800Y0079404D01*
X0126496Y0079100D01*
X0122377Y0079100D01*
X0121850Y0078573D01*
X0121850Y0073827D01*
X0122377Y0073300D01*
X0127623Y0073300D01*
X0128150Y0073827D01*
X0128150Y0075946D01*
X0129204Y0077000D01*
X0130488Y0077000D01*
X0130565Y0070400D01*
X0120150Y0070400D01*
X0120150Y0075073D01*
X0119623Y0075600D01*
X0114377Y0075600D01*
X0113850Y0075073D01*
X0113850Y0073900D01*
X0110901Y0073900D01*
X0106176Y0078625D01*
X0104475Y0078625D01*
X0104475Y0081139D01*
X0102439Y0083175D01*
X0099561Y0083175D01*
X0097525Y0081139D01*
X0097525Y0080079D01*
X0096704Y0080900D01*
X0091150Y0080900D01*
X0091150Y0081573D01*
X0090623Y0082100D01*
X0085377Y0082100D01*
X0084850Y0081573D01*
X0084850Y0076827D01*
X0085377Y0076300D01*
X0090623Y0076300D01*
X0091150Y0076827D01*
X0091150Y0077500D01*
X0095296Y0077500D01*
X0095325Y0077471D01*
X0095325Y0077349D01*
X0096321Y0076354D01*
X0097654Y0075021D01*
X0098649Y0074025D01*
X0104271Y0074025D01*
X0110300Y0067996D01*
X0110596Y0067700D01*
X0110321Y0067425D01*
X0103639Y0067425D01*
X0104475Y0068261D01*
X0104475Y0071139D01*
X0102439Y0073175D01*
X0099561Y0073175D01*
X0097525Y0071139D01*
X0097525Y0068261D01*
X0098361Y0067425D01*
X0092321Y0067425D01*
X0091059Y0066163D01*
X0090623Y0066600D01*
X0085377Y0066600D01*
X0084850Y0066073D01*
X0084850Y0061327D01*
X0085377Y0060800D01*
X0090623Y0060800D01*
X0091150Y0061327D01*
X0091150Y0062000D01*
X0091704Y0062000D01*
X0093729Y0064025D01*
X0111729Y0064025D01*
X0112504Y0064800D01*
X0126996Y0064800D01*
X0130673Y0061122D01*
X0130759Y0053846D01*
X0128150Y0056454D01*
X0128150Y0059573D01*
X0127623Y0060100D01*
X0122377Y0060100D01*
X0121850Y0059573D01*
X0121850Y0054827D01*
X0122377Y0054300D01*
X0125496Y0054300D01*
X0130815Y0048980D01*
X0130906Y0041198D01*
X0128150Y0043954D01*
X0128150Y0047073D01*
X0127623Y0047600D01*
X0122377Y0047600D01*
X0121850Y0047073D01*
X0121850Y0042327D01*
X0122377Y0041800D01*
X0125496Y0041800D01*
X0129300Y0037996D01*
X0130296Y0037000D01*
X0130956Y0037000D01*
X0131000Y0033200D01*
X0091050Y0033200D01*
X0091050Y0034400D01*
X0087300Y0034400D01*
X0087300Y0035000D01*
X0086700Y0035000D01*
X0086700Y0038000D01*
X0084513Y0038000D01*
X0084055Y0037877D01*
X0083645Y0037640D01*
X0083310Y0037305D01*
X0083073Y0036895D01*
X0082950Y0036437D01*
X0082950Y0035000D01*
X0086700Y0035000D01*
X0086700Y0034400D01*
X0082950Y0034400D01*
X0082950Y0033200D01*
X0082000Y0033200D01*
X0082000Y0009000D01*
X0080353Y0009000D01*
X0080678Y0009446D01*
X0080985Y0010049D01*
X0081194Y0010693D01*
X0081300Y0011362D01*
X0081300Y0014400D01*
X0077300Y0014400D01*
X0077300Y0015000D01*
X0076700Y0015000D01*
X0076700Y0022000D01*
X0076662Y0022000D01*
X0075993Y0021894D01*
X0075349Y0021685D01*
X0074746Y0021378D01*
X0074199Y0020980D01*
X0073720Y0020501D01*
X0073322Y0019954D01*
X0073015Y0019351D01*
X0072806Y0018707D01*
X0072700Y0018038D01*
X0072700Y0015000D01*
X0076700Y0015000D01*
X0076700Y0014400D01*
X0072700Y0014400D01*
X0072700Y0011362D01*
X0072806Y0010693D01*
X0073015Y0010049D01*
X0073322Y0009446D01*
X0073647Y0009000D01*
X0070353Y0009000D01*
X0070678Y0009446D01*
X0070985Y0010049D01*
X0071194Y0010693D01*
X0071300Y0011362D01*
X0071300Y0014400D01*
X0067300Y0014400D01*
X0067300Y0015000D01*
X0066700Y0015000D01*
X0066700Y0022000D01*
X0066662Y0022000D01*
X0065993Y0021894D01*
X0065349Y0021685D01*
X0064746Y0021378D01*
X0064199Y0020980D01*
X0063720Y0020501D01*
X0063322Y0019954D01*
X0063015Y0019351D01*
X0062806Y0018707D01*
X0062700Y0018038D01*
X0062700Y0015000D01*
X0066700Y0015000D01*
X0066700Y0014400D01*
X0062700Y0014400D01*
X0062700Y0011362D01*
X0062806Y0010693D01*
X0063015Y0010049D01*
X0063322Y0009446D01*
X0063647Y0009000D01*
X0059815Y0009000D01*
X0060306Y0009491D01*
X0060900Y0010924D01*
X0060900Y0018476D01*
X0060306Y0019909D01*
X0059209Y0021006D01*
X0059100Y0021051D01*
X0059100Y0024800D01*
X0059830Y0024800D01*
X0060650Y0025620D01*
X0060650Y0029780D01*
X0059830Y0030600D01*
X0054170Y0030600D01*
X0053350Y0029780D01*
X0053350Y0025620D01*
X0054170Y0024800D01*
X0054900Y0024800D01*
X0054900Y0021051D01*
X0054791Y0021006D01*
X0053694Y0019909D01*
X0053100Y0018476D01*
X0053100Y0010924D01*
X0053694Y0009491D01*
X0054185Y0009000D01*
X0049815Y0009000D01*
X0050306Y0009491D01*
X0050900Y0010924D01*
X0050900Y0018476D01*
X0050306Y0019909D01*
X0049209Y0021006D01*
X0049100Y0021051D01*
X0049100Y0024800D01*
X0049830Y0024800D01*
X0050650Y0025620D01*
X0050650Y0029780D01*
X0049830Y0030600D01*
X0044170Y0030600D01*
X0043350Y0029780D01*
X0043350Y0025620D01*
X0044170Y0024800D01*
X0044900Y0024800D01*
X0044900Y0021051D01*
X0044791Y0021006D01*
X0043694Y0019909D01*
X0043100Y0018476D01*
X0043100Y0010924D01*
X0043694Y0009491D01*
X0044185Y0009000D01*
X0005300Y0009000D01*
X0005300Y0009488D02*
X0043696Y0009488D01*
X0043447Y0010087D02*
X0024553Y0010087D01*
X0024939Y0010190D02*
X0022344Y0009494D01*
X0019656Y0009494D01*
X0017061Y0010190D01*
X0014734Y0011534D01*
X0012834Y0013434D01*
X0011490Y0015761D01*
X0010794Y0018356D01*
X0010794Y0021044D01*
X0011490Y0023639D01*
X0012834Y0025966D01*
X0014734Y0027866D01*
X0017061Y0029210D01*
X0019656Y0029905D01*
X0022344Y0029905D01*
X0024939Y0029210D01*
X0027266Y0027866D01*
X0029166Y0025966D01*
X0030510Y0023639D01*
X0031205Y0021044D01*
X0031205Y0018356D01*
X0030510Y0015761D01*
X0029166Y0013434D01*
X0027266Y0011534D01*
X0024939Y0010190D01*
X0025797Y0010685D02*
X0043199Y0010685D01*
X0043100Y0011284D02*
X0026833Y0011284D01*
X0027615Y0011882D02*
X0043100Y0011882D01*
X0043100Y0012481D02*
X0028213Y0012481D01*
X0028812Y0013079D02*
X0043100Y0013079D01*
X0043100Y0013678D02*
X0029307Y0013678D01*
X0029653Y0014276D02*
X0043100Y0014276D01*
X0043100Y0014875D02*
X0029998Y0014875D01*
X0030344Y0015473D02*
X0043100Y0015473D01*
X0043100Y0016072D02*
X0030593Y0016072D01*
X0030754Y0016670D02*
X0043100Y0016670D01*
X0043100Y0017269D02*
X0030914Y0017269D01*
X0031074Y0017867D02*
X0043100Y0017867D01*
X0043100Y0018466D02*
X0031205Y0018466D01*
X0031205Y0019064D02*
X0043344Y0019064D01*
X0043592Y0019663D02*
X0031205Y0019663D01*
X0031205Y0020261D02*
X0044046Y0020261D01*
X0044644Y0020860D02*
X0031205Y0020860D01*
X0031094Y0021458D02*
X0044900Y0021458D01*
X0044900Y0022057D02*
X0030934Y0022057D01*
X0030774Y0022655D02*
X0044900Y0022655D01*
X0044900Y0023254D02*
X0030613Y0023254D01*
X0030387Y0023852D02*
X0044900Y0023852D01*
X0044900Y0024451D02*
X0030041Y0024451D01*
X0029696Y0025049D02*
X0043921Y0025049D01*
X0043350Y0025648D02*
X0029350Y0025648D01*
X0028886Y0026246D02*
X0043350Y0026246D01*
X0043350Y0026845D02*
X0028288Y0026845D01*
X0027689Y0027443D02*
X0043350Y0027443D01*
X0043350Y0028042D02*
X0026962Y0028042D01*
X0025926Y0028640D02*
X0043350Y0028640D01*
X0043350Y0029239D02*
X0024831Y0029239D01*
X0022597Y0029837D02*
X0043408Y0029837D01*
X0044006Y0030436D02*
X0005300Y0030436D01*
X0005300Y0031034D02*
X0082000Y0031034D01*
X0082000Y0030436D02*
X0059994Y0030436D01*
X0060592Y0029837D02*
X0082000Y0029837D01*
X0082000Y0029239D02*
X0060650Y0029239D01*
X0060650Y0028640D02*
X0082000Y0028640D01*
X0082000Y0028042D02*
X0060650Y0028042D01*
X0060650Y0027443D02*
X0082000Y0027443D01*
X0082000Y0026845D02*
X0060650Y0026845D01*
X0060650Y0026246D02*
X0082000Y0026246D01*
X0082000Y0025648D02*
X0060650Y0025648D01*
X0060079Y0025049D02*
X0082000Y0025049D01*
X0082000Y0024451D02*
X0059100Y0024451D01*
X0059100Y0023852D02*
X0082000Y0023852D01*
X0082000Y0023254D02*
X0059100Y0023254D01*
X0059100Y0022655D02*
X0082000Y0022655D01*
X0082000Y0022057D02*
X0059100Y0022057D01*
X0059100Y0021458D02*
X0064905Y0021458D01*
X0064079Y0020860D02*
X0059356Y0020860D01*
X0059954Y0020261D02*
X0063546Y0020261D01*
X0063174Y0019663D02*
X0060408Y0019663D01*
X0060656Y0019064D02*
X0062922Y0019064D01*
X0062768Y0018466D02*
X0060900Y0018466D01*
X0060900Y0017867D02*
X0062700Y0017867D01*
X0062700Y0017269D02*
X0060900Y0017269D01*
X0060900Y0016670D02*
X0062700Y0016670D01*
X0062700Y0016072D02*
X0060900Y0016072D01*
X0060900Y0015473D02*
X0062700Y0015473D01*
X0062700Y0014276D02*
X0060900Y0014276D01*
X0060900Y0013678D02*
X0062700Y0013678D01*
X0062700Y0013079D02*
X0060900Y0013079D01*
X0060900Y0012481D02*
X0062700Y0012481D01*
X0062700Y0011882D02*
X0060900Y0011882D01*
X0060900Y0011284D02*
X0062712Y0011284D01*
X0062808Y0010685D02*
X0060801Y0010685D01*
X0060553Y0010087D02*
X0063003Y0010087D01*
X0063301Y0009488D02*
X0060304Y0009488D01*
X0060900Y0014875D02*
X0066700Y0014875D01*
X0066700Y0015473D02*
X0067300Y0015473D01*
X0067300Y0015000D02*
X0067300Y0022000D01*
X0067338Y0022000D01*
X0068007Y0021894D01*
X0068651Y0021685D01*
X0069254Y0021378D01*
X0069801Y0020980D01*
X0070280Y0020501D01*
X0070678Y0019954D01*
X0070985Y0019351D01*
X0071194Y0018707D01*
X0071300Y0018038D01*
X0071300Y0015000D01*
X0067300Y0015000D01*
X0067300Y0014875D02*
X0076700Y0014875D01*
X0076700Y0015473D02*
X0077300Y0015473D01*
X0077300Y0015000D02*
X0077300Y0022000D01*
X0077338Y0022000D01*
X0078007Y0021894D01*
X0078651Y0021685D01*
X0079254Y0021378D01*
X0079801Y0020980D01*
X0080280Y0020501D01*
X0080678Y0019954D01*
X0080985Y0019351D01*
X0081194Y0018707D01*
X0081300Y0018038D01*
X0081300Y0015000D01*
X0077300Y0015000D01*
X0077300Y0014875D02*
X0082000Y0014875D01*
X0082000Y0015473D02*
X0081300Y0015473D01*
X0081300Y0016072D02*
X0082000Y0016072D01*
X0082000Y0016670D02*
X0081300Y0016670D01*
X0081300Y0017269D02*
X0082000Y0017269D01*
X0082000Y0017867D02*
X0081300Y0017867D01*
X0081232Y0018466D02*
X0082000Y0018466D01*
X0082000Y0019064D02*
X0081078Y0019064D01*
X0080826Y0019663D02*
X0082000Y0019663D01*
X0082000Y0020261D02*
X0080454Y0020261D01*
X0079921Y0020860D02*
X0082000Y0020860D01*
X0082000Y0021458D02*
X0079095Y0021458D01*
X0077300Y0021458D02*
X0076700Y0021458D01*
X0076700Y0020860D02*
X0077300Y0020860D01*
X0077300Y0020261D02*
X0076700Y0020261D01*
X0076700Y0019663D02*
X0077300Y0019663D01*
X0077300Y0019064D02*
X0076700Y0019064D01*
X0076700Y0018466D02*
X0077300Y0018466D01*
X0077300Y0017867D02*
X0076700Y0017867D01*
X0076700Y0017269D02*
X0077300Y0017269D01*
X0077300Y0016670D02*
X0076700Y0016670D01*
X0076700Y0016072D02*
X0077300Y0016072D01*
X0081300Y0014276D02*
X0082000Y0014276D01*
X0082000Y0013678D02*
X0081300Y0013678D01*
X0081300Y0013079D02*
X0082000Y0013079D01*
X0082000Y0012481D02*
X0081300Y0012481D01*
X0081300Y0011882D02*
X0082000Y0011882D01*
X0082000Y0011284D02*
X0081288Y0011284D01*
X0081192Y0010685D02*
X0082000Y0010685D01*
X0082000Y0010087D02*
X0080997Y0010087D01*
X0080699Y0009488D02*
X0082000Y0009488D01*
X0087300Y0014400D02*
X0087300Y0015000D01*
X0086700Y0015000D01*
X0086700Y0022000D01*
X0086662Y0022000D01*
X0085993Y0021894D01*
X0085349Y0021685D01*
X0084746Y0021378D01*
X0084199Y0020980D01*
X0083720Y0020501D01*
X0083500Y0020198D01*
X0083500Y0024904D01*
X0083645Y0024760D01*
X0084055Y0024523D01*
X0084513Y0024400D01*
X0086700Y0024400D01*
X0086700Y0027400D01*
X0087300Y0027400D01*
X0087300Y0028000D01*
X0086700Y0028000D01*
X0086700Y0031000D01*
X0084513Y0031000D01*
X0084055Y0030877D01*
X0083645Y0030640D01*
X0083500Y0030496D01*
X0083500Y0031700D01*
X0133419Y0031700D01*
X0133220Y0031501D01*
X0132822Y0030954D01*
X0132515Y0030351D01*
X0132306Y0029707D01*
X0132200Y0029038D01*
X0132200Y0029000D01*
X0139200Y0029000D01*
X0139200Y0028400D01*
X0139800Y0028400D01*
X0139800Y0024400D01*
X0142838Y0024400D01*
X0143507Y0024506D01*
X0144151Y0024715D01*
X0144754Y0025022D01*
X0145301Y0025420D01*
X0145401Y0025520D01*
X0145401Y0009000D01*
X0100353Y0009000D01*
X0100678Y0009446D01*
X0100985Y0010049D01*
X0101194Y0010693D01*
X0101300Y0011362D01*
X0101300Y0014400D01*
X0097300Y0014400D01*
X0097300Y0015000D01*
X0096700Y0015000D01*
X0096700Y0022000D01*
X0096662Y0022000D01*
X0095993Y0021894D01*
X0095349Y0021685D01*
X0094746Y0021378D01*
X0094199Y0020980D01*
X0093720Y0020501D01*
X0093322Y0019954D01*
X0093015Y0019351D01*
X0092806Y0018707D01*
X0092700Y0018038D01*
X0092700Y0015000D01*
X0096700Y0015000D01*
X0096700Y0014400D01*
X0092700Y0014400D01*
X0092700Y0011362D01*
X0092806Y0010693D01*
X0093015Y0010049D01*
X0093322Y0009446D01*
X0093647Y0009000D01*
X0090353Y0009000D01*
X0090678Y0009446D01*
X0090985Y0010049D01*
X0091194Y0010693D01*
X0091300Y0011362D01*
X0091300Y0014400D01*
X0087300Y0014400D01*
X0087300Y0014875D02*
X0096700Y0014875D01*
X0096700Y0015473D02*
X0097300Y0015473D01*
X0097300Y0015000D02*
X0097300Y0022000D01*
X0097338Y0022000D01*
X0098007Y0021894D01*
X0098651Y0021685D01*
X0099254Y0021378D01*
X0099801Y0020980D01*
X0100280Y0020501D01*
X0100678Y0019954D01*
X0100985Y0019351D01*
X0101194Y0018707D01*
X0101300Y0018038D01*
X0101300Y0015000D01*
X0097300Y0015000D01*
X0097300Y0014875D02*
X0112002Y0014875D01*
X0111656Y0015473D02*
X0101300Y0015473D01*
X0101300Y0016072D02*
X0111407Y0016072D01*
X0111490Y0015761D02*
X0112834Y0013434D01*
X0114734Y0011534D01*
X0117061Y0010190D01*
X0119656Y0009494D01*
X0122344Y0009494D01*
X0124939Y0010190D01*
X0127266Y0011534D01*
X0129166Y0013434D01*
X0130510Y0015761D01*
X0131205Y0018356D01*
X0131205Y0021044D01*
X0130510Y0023639D01*
X0129166Y0025966D01*
X0127266Y0027866D01*
X0124939Y0029210D01*
X0122344Y0029905D01*
X0119656Y0029905D01*
X0117061Y0029210D01*
X0114734Y0027866D01*
X0112834Y0025966D01*
X0111490Y0023639D01*
X0110794Y0021044D01*
X0110794Y0018356D01*
X0111490Y0015761D01*
X0111246Y0016670D02*
X0101300Y0016670D01*
X0101300Y0017269D02*
X0111086Y0017269D01*
X0110926Y0017867D02*
X0101300Y0017867D01*
X0101232Y0018466D02*
X0110794Y0018466D01*
X0110794Y0019064D02*
X0101078Y0019064D01*
X0100826Y0019663D02*
X0110794Y0019663D01*
X0110794Y0020261D02*
X0100454Y0020261D01*
X0099921Y0020860D02*
X0110794Y0020860D01*
X0110906Y0021458D02*
X0099095Y0021458D01*
X0097300Y0021458D02*
X0096700Y0021458D01*
X0096700Y0020860D02*
X0097300Y0020860D01*
X0097300Y0020261D02*
X0096700Y0020261D01*
X0096700Y0019663D02*
X0097300Y0019663D01*
X0097300Y0019064D02*
X0096700Y0019064D01*
X0096700Y0018466D02*
X0097300Y0018466D01*
X0097300Y0017867D02*
X0096700Y0017867D01*
X0096700Y0017269D02*
X0097300Y0017269D01*
X0097300Y0016670D02*
X0096700Y0016670D01*
X0096700Y0016072D02*
X0097300Y0016072D01*
X0101300Y0014276D02*
X0112347Y0014276D01*
X0112693Y0013678D02*
X0101300Y0013678D01*
X0101300Y0013079D02*
X0113188Y0013079D01*
X0113787Y0012481D02*
X0101300Y0012481D01*
X0101300Y0011882D02*
X0114385Y0011882D01*
X0115167Y0011284D02*
X0101288Y0011284D01*
X0101192Y0010685D02*
X0116203Y0010685D01*
X0117447Y0010087D02*
X0100997Y0010087D01*
X0100699Y0009488D02*
X0145401Y0009488D01*
X0145401Y0010087D02*
X0124553Y0010087D01*
X0125797Y0010685D02*
X0145401Y0010685D01*
X0145401Y0011284D02*
X0126833Y0011284D01*
X0127615Y0011882D02*
X0145401Y0011882D01*
X0145401Y0012481D02*
X0128213Y0012481D01*
X0128812Y0013079D02*
X0145401Y0013079D01*
X0145401Y0013678D02*
X0129307Y0013678D01*
X0129653Y0014276D02*
X0145401Y0014276D01*
X0145401Y0014875D02*
X0129998Y0014875D01*
X0130344Y0015473D02*
X0145401Y0015473D01*
X0145401Y0016072D02*
X0130593Y0016072D01*
X0130754Y0016670D02*
X0145401Y0016670D01*
X0145401Y0017269D02*
X0130914Y0017269D01*
X0131074Y0017867D02*
X0145401Y0017867D01*
X0145401Y0018466D02*
X0131205Y0018466D01*
X0131205Y0019064D02*
X0145401Y0019064D01*
X0145401Y0019663D02*
X0131205Y0019663D01*
X0131205Y0020261D02*
X0145401Y0020261D01*
X0145401Y0020860D02*
X0131205Y0020860D01*
X0131094Y0021458D02*
X0145401Y0021458D01*
X0145401Y0022057D02*
X0130934Y0022057D01*
X0130774Y0022655D02*
X0145401Y0022655D01*
X0145401Y0023254D02*
X0130613Y0023254D01*
X0130387Y0023852D02*
X0145401Y0023852D01*
X0145401Y0024451D02*
X0143160Y0024451D01*
X0144791Y0025049D02*
X0145401Y0025049D01*
X0139800Y0025049D02*
X0139200Y0025049D01*
X0139200Y0024451D02*
X0139800Y0024451D01*
X0139200Y0024400D02*
X0139200Y0028400D01*
X0132200Y0028400D01*
X0132200Y0028362D01*
X0132306Y0027693D01*
X0132515Y0027049D01*
X0132822Y0026446D01*
X0133220Y0025899D01*
X0133699Y0025420D01*
X0134246Y0025022D01*
X0134849Y0024715D01*
X0135493Y0024506D01*
X0136162Y0024400D01*
X0139200Y0024400D01*
X0139200Y0025648D02*
X0139800Y0025648D01*
X0139800Y0026246D02*
X0139200Y0026246D01*
X0139200Y0026845D02*
X0139800Y0026845D01*
X0139800Y0027443D02*
X0139200Y0027443D01*
X0139200Y0028042D02*
X0139800Y0028042D01*
X0139200Y0028640D02*
X0125926Y0028640D01*
X0126962Y0028042D02*
X0132251Y0028042D01*
X0132387Y0027443D02*
X0127689Y0027443D01*
X0128288Y0026845D02*
X0132619Y0026845D01*
X0132968Y0026246D02*
X0128886Y0026246D01*
X0129350Y0025648D02*
X0133471Y0025648D01*
X0134209Y0025049D02*
X0129696Y0025049D01*
X0130041Y0024451D02*
X0135840Y0024451D01*
X0132232Y0029239D02*
X0124831Y0029239D01*
X0122597Y0029837D02*
X0132348Y0029837D01*
X0132559Y0030436D02*
X0090560Y0030436D01*
X0090690Y0030305D02*
X0090355Y0030640D01*
X0089945Y0030877D01*
X0089487Y0031000D01*
X0087300Y0031000D01*
X0087300Y0028000D01*
X0091050Y0028000D01*
X0091050Y0029437D01*
X0090927Y0029895D01*
X0090690Y0030305D01*
X0090943Y0029837D02*
X0119403Y0029837D01*
X0117169Y0029239D02*
X0091050Y0029239D01*
X0091050Y0028640D02*
X0116074Y0028640D01*
X0115038Y0028042D02*
X0091050Y0028042D01*
X0091050Y0027400D02*
X0091050Y0025963D01*
X0090927Y0025505D01*
X0090690Y0025095D01*
X0090355Y0024760D01*
X0089945Y0024523D01*
X0089487Y0024400D01*
X0087300Y0024400D01*
X0087300Y0027400D01*
X0091050Y0027400D01*
X0091050Y0026845D02*
X0113712Y0026845D01*
X0113114Y0026246D02*
X0091050Y0026246D01*
X0090966Y0025648D02*
X0112650Y0025648D01*
X0112304Y0025049D02*
X0090645Y0025049D01*
X0089677Y0024451D02*
X0111959Y0024451D01*
X0111613Y0023852D02*
X0083500Y0023852D01*
X0083500Y0023254D02*
X0111387Y0023254D01*
X0111226Y0022655D02*
X0083500Y0022655D01*
X0083500Y0022057D02*
X0111066Y0022057D01*
X0114311Y0027443D02*
X0087300Y0027443D01*
X0087300Y0026845D02*
X0086700Y0026845D01*
X0086700Y0026246D02*
X0087300Y0026246D01*
X0087300Y0025648D02*
X0086700Y0025648D01*
X0086700Y0025049D02*
X0087300Y0025049D01*
X0087300Y0024451D02*
X0086700Y0024451D01*
X0084323Y0024451D02*
X0083500Y0024451D01*
X0083500Y0021458D02*
X0084905Y0021458D01*
X0084079Y0020860D02*
X0083500Y0020860D01*
X0083500Y0020261D02*
X0083546Y0020261D01*
X0086700Y0020261D02*
X0087300Y0020261D01*
X0087300Y0019663D02*
X0086700Y0019663D01*
X0086700Y0019064D02*
X0087300Y0019064D01*
X0087300Y0018466D02*
X0086700Y0018466D01*
X0086700Y0017867D02*
X0087300Y0017867D01*
X0087300Y0017269D02*
X0086700Y0017269D01*
X0086700Y0016670D02*
X0087300Y0016670D01*
X0087300Y0016072D02*
X0086700Y0016072D01*
X0086700Y0015473D02*
X0087300Y0015473D01*
X0087300Y0015000D02*
X0087300Y0022000D01*
X0087338Y0022000D01*
X0088007Y0021894D01*
X0088651Y0021685D01*
X0089254Y0021378D01*
X0089801Y0020980D01*
X0090280Y0020501D01*
X0090678Y0019954D01*
X0090985Y0019351D01*
X0091194Y0018707D01*
X0091300Y0018038D01*
X0091300Y0015000D01*
X0087300Y0015000D01*
X0091300Y0015473D02*
X0092700Y0015473D01*
X0092700Y0016072D02*
X0091300Y0016072D01*
X0091300Y0016670D02*
X0092700Y0016670D01*
X0092700Y0017269D02*
X0091300Y0017269D01*
X0091300Y0017867D02*
X0092700Y0017867D01*
X0092768Y0018466D02*
X0091232Y0018466D01*
X0091078Y0019064D02*
X0092922Y0019064D01*
X0093174Y0019663D02*
X0090826Y0019663D01*
X0090454Y0020261D02*
X0093546Y0020261D01*
X0094079Y0020860D02*
X0089921Y0020860D01*
X0089095Y0021458D02*
X0094905Y0021458D01*
X0092700Y0014276D02*
X0091300Y0014276D01*
X0091300Y0013678D02*
X0092700Y0013678D01*
X0092700Y0013079D02*
X0091300Y0013079D01*
X0091300Y0012481D02*
X0092700Y0012481D01*
X0092700Y0011882D02*
X0091300Y0011882D01*
X0091288Y0011284D02*
X0092712Y0011284D01*
X0092808Y0010685D02*
X0091192Y0010685D01*
X0090997Y0010087D02*
X0093003Y0010087D01*
X0093301Y0009488D02*
X0090699Y0009488D01*
X0087300Y0020860D02*
X0086700Y0020860D01*
X0086700Y0021458D02*
X0087300Y0021458D01*
X0087300Y0028042D02*
X0086700Y0028042D01*
X0086700Y0028640D02*
X0087300Y0028640D01*
X0087300Y0029239D02*
X0086700Y0029239D01*
X0086700Y0029837D02*
X0087300Y0029837D01*
X0087300Y0030436D02*
X0086700Y0030436D01*
X0083500Y0031034D02*
X0132881Y0031034D01*
X0133352Y0031633D02*
X0083500Y0031633D01*
X0082000Y0031633D02*
X0060136Y0031633D01*
X0059945Y0031523D02*
X0060355Y0031760D01*
X0060690Y0032095D01*
X0060927Y0032505D01*
X0061050Y0032963D01*
X0061050Y0034400D01*
X0057300Y0034400D01*
X0057300Y0035000D01*
X0056700Y0035000D01*
X0056700Y0038000D01*
X0054513Y0038000D01*
X0054055Y0037877D01*
X0053645Y0037640D01*
X0053310Y0037305D01*
X0053073Y0036895D01*
X0052950Y0036437D01*
X0052950Y0035000D01*
X0056700Y0035000D01*
X0056700Y0034400D01*
X0057300Y0034400D01*
X0057300Y0031400D01*
X0059487Y0031400D01*
X0059945Y0031523D01*
X0060769Y0032232D02*
X0082000Y0032232D01*
X0082000Y0032830D02*
X0061014Y0032830D01*
X0061050Y0033429D02*
X0082950Y0033429D01*
X0082950Y0034027D02*
X0061050Y0034027D01*
X0061050Y0035000D02*
X0061050Y0036437D01*
X0060927Y0036895D01*
X0060690Y0037305D01*
X0060355Y0037640D01*
X0059945Y0037877D01*
X0059487Y0038000D01*
X0057300Y0038000D01*
X0057300Y0035000D01*
X0061050Y0035000D01*
X0061050Y0035224D02*
X0082950Y0035224D01*
X0082950Y0035823D02*
X0061050Y0035823D01*
X0061050Y0036421D02*
X0082950Y0036421D01*
X0083145Y0037020D02*
X0060855Y0037020D01*
X0060377Y0037618D02*
X0083623Y0037618D01*
X0086700Y0037618D02*
X0087300Y0037618D01*
X0087300Y0038000D02*
X0087300Y0035000D01*
X0091050Y0035000D01*
X0091050Y0036437D01*
X0090927Y0036895D01*
X0090690Y0037305D01*
X0090355Y0037640D01*
X0089945Y0037877D01*
X0089487Y0038000D01*
X0087300Y0038000D01*
X0087300Y0037020D02*
X0086700Y0037020D01*
X0086700Y0036421D02*
X0087300Y0036421D01*
X0087300Y0035823D02*
X0086700Y0035823D01*
X0086700Y0035224D02*
X0087300Y0035224D01*
X0087300Y0034626D02*
X0130983Y0034626D01*
X0130976Y0035224D02*
X0091050Y0035224D01*
X0091050Y0035823D02*
X0130969Y0035823D01*
X0130962Y0036421D02*
X0102635Y0036421D01*
X0102439Y0036225D02*
X0104475Y0038261D01*
X0104475Y0041139D01*
X0102439Y0043175D01*
X0099561Y0043175D01*
X0097525Y0041139D01*
X0097525Y0038261D01*
X0099561Y0036225D01*
X0102439Y0036225D01*
X0103234Y0037020D02*
X0130276Y0037020D01*
X0129678Y0037618D02*
X0103832Y0037618D01*
X0104431Y0038217D02*
X0129079Y0038217D01*
X0128481Y0038815D02*
X0120138Y0038815D01*
X0120150Y0038827D02*
X0120150Y0043573D01*
X0119623Y0044100D01*
X0115797Y0044100D01*
X0114997Y0044900D01*
X0116700Y0044900D01*
X0116700Y0047900D01*
X0117300Y0047900D01*
X0117300Y0048500D01*
X0120550Y0048500D01*
X0120550Y0050371D01*
X0120461Y0050702D01*
X0120290Y0050998D01*
X0120056Y0051233D01*
X0120150Y0051327D01*
X0120150Y0056073D01*
X0119623Y0056600D01*
X0114377Y0056600D01*
X0113850Y0056073D01*
X0113850Y0054900D01*
X0109497Y0054900D01*
X0106972Y0057425D01*
X0103639Y0057425D01*
X0104475Y0058261D01*
X0104475Y0061139D01*
X0102439Y0063175D01*
X0099561Y0063175D01*
X0097525Y0061139D01*
X0097525Y0058261D01*
X0098361Y0057425D01*
X0082748Y0057425D01*
X0083150Y0057827D01*
X0083150Y0062573D01*
X0082623Y0063100D01*
X0077377Y0063100D01*
X0076850Y0062573D01*
X0076850Y0062047D01*
X0067700Y0071197D01*
X0067700Y0074500D01*
X0076850Y0074500D01*
X0076850Y0073327D01*
X0077377Y0072800D01*
X0082623Y0072800D01*
X0083150Y0073327D01*
X0083150Y0078073D01*
X0082623Y0078600D01*
X0077377Y0078600D01*
X0076850Y0078073D01*
X0076850Y0076900D01*
X0067497Y0076900D01*
X0064200Y0080197D01*
X0055397Y0089000D01*
X0076850Y0089000D01*
X0076850Y0087827D01*
X0077377Y0087300D01*
X0082623Y0087300D01*
X0083150Y0087827D01*
X0083150Y0092573D01*
X0082623Y0093100D01*
X0077377Y0093100D01*
X0076850Y0092573D01*
X0076850Y0091400D01*
X0014214Y0091400D01*
X0012439Y0093175D01*
X0009561Y0093175D01*
X0007525Y0091139D01*
X0007525Y0088261D01*
X0009561Y0086225D01*
X0012439Y0086225D01*
X0014475Y0088261D01*
X0014475Y0089000D01*
X0018803Y0089000D01*
X0012709Y0082906D01*
X0012439Y0083175D01*
X0009561Y0083175D01*
X0007525Y0081139D01*
X0007525Y0078261D01*
X0009561Y0076225D01*
X0012439Y0076225D01*
X0014475Y0078261D01*
X0014475Y0081139D01*
X0014406Y0081209D01*
X0016300Y0083103D01*
X0016300Y0076697D01*
X0012609Y0073006D01*
X0012439Y0073175D01*
X0009561Y0073175D01*
X0007525Y0071139D01*
X0007525Y0068261D01*
X0009561Y0066225D01*
X0012439Y0066225D01*
X0014475Y0068261D01*
X0014475Y0071139D01*
X0014306Y0071309D01*
X0017500Y0074503D01*
X0017500Y0067897D01*
X0012609Y0063006D01*
X0012439Y0063175D01*
X0009561Y0063175D01*
X0007525Y0061139D01*
X0007525Y0058261D01*
X0009561Y0056225D01*
X0012439Y0056225D01*
X0014475Y0058261D01*
X0014475Y0061139D01*
X0014306Y0061309D01*
X0018700Y0065703D01*
X0018700Y0059097D01*
X0012609Y0053006D01*
X0012439Y0053175D01*
X0009561Y0053175D01*
X0007525Y0051139D01*
X0007525Y0048261D01*
X0009561Y0046225D01*
X0012439Y0046225D01*
X0014475Y0048261D01*
X0014475Y0051139D01*
X0014306Y0051309D01*
X0021100Y0058103D01*
X0021100Y0082812D01*
X0022488Y0084200D01*
X0051712Y0084200D01*
X0062900Y0073012D01*
X0062900Y0068383D01*
X0063603Y0067680D01*
X0076755Y0054528D01*
X0077458Y0053825D01*
X0105481Y0053825D01*
X0108006Y0051300D01*
X0108203Y0051300D01*
X0108300Y0051203D01*
X0108300Y0048203D01*
X0109003Y0047500D01*
X0113850Y0042653D01*
X0113850Y0038827D01*
X0114377Y0038300D01*
X0119623Y0038300D01*
X0120150Y0038827D01*
X0120150Y0039414D02*
X0127882Y0039414D01*
X0127284Y0040012D02*
X0120150Y0040012D01*
X0120150Y0040611D02*
X0126685Y0040611D01*
X0126087Y0041209D02*
X0120150Y0041209D01*
X0120150Y0041808D02*
X0122370Y0041808D01*
X0121850Y0042406D02*
X0120150Y0042406D01*
X0120150Y0043005D02*
X0121850Y0043005D01*
X0121850Y0043603D02*
X0120120Y0043603D01*
X0119752Y0044989D02*
X0120048Y0045160D01*
X0120290Y0045402D01*
X0120461Y0045698D01*
X0120550Y0046029D01*
X0120550Y0047900D01*
X0117300Y0047900D01*
X0117300Y0044900D01*
X0119421Y0044900D01*
X0119752Y0044989D01*
X0120287Y0045399D02*
X0121850Y0045399D01*
X0121850Y0045997D02*
X0120542Y0045997D01*
X0120550Y0046596D02*
X0121850Y0046596D01*
X0121972Y0047194D02*
X0120550Y0047194D01*
X0120550Y0047793D02*
X0130829Y0047793D01*
X0130822Y0048391D02*
X0117300Y0048391D01*
X0117300Y0047793D02*
X0116700Y0047793D01*
X0116700Y0047900D02*
X0113450Y0047900D01*
X0113450Y0046447D01*
X0110700Y0049197D01*
X0110700Y0052197D01*
X0110397Y0052500D01*
X0113850Y0052500D01*
X0113850Y0051327D01*
X0113944Y0051233D01*
X0113710Y0050998D01*
X0113539Y0050702D01*
X0113450Y0050371D01*
X0113450Y0048500D01*
X0116700Y0048500D01*
X0116700Y0047900D01*
X0116700Y0048391D02*
X0111506Y0048391D01*
X0112104Y0047793D02*
X0113450Y0047793D01*
X0113450Y0047194D02*
X0112703Y0047194D01*
X0113301Y0046596D02*
X0113450Y0046596D01*
X0115097Y0044800D02*
X0121850Y0044800D01*
X0121850Y0044202D02*
X0115695Y0044202D01*
X0116700Y0045399D02*
X0117300Y0045399D01*
X0117300Y0045997D02*
X0116700Y0045997D01*
X0116700Y0046596D02*
X0117300Y0046596D01*
X0117300Y0047194D02*
X0116700Y0047194D01*
X0113450Y0048990D02*
X0110907Y0048990D01*
X0110700Y0049588D02*
X0113450Y0049588D01*
X0113450Y0050187D02*
X0110700Y0050187D01*
X0110700Y0050785D02*
X0113587Y0050785D01*
X0113850Y0051384D02*
X0110700Y0051384D01*
X0110700Y0051982D02*
X0113850Y0051982D01*
X0113850Y0054975D02*
X0109422Y0054975D01*
X0108824Y0055573D02*
X0113850Y0055573D01*
X0113949Y0056172D02*
X0108225Y0056172D01*
X0107627Y0056770D02*
X0121850Y0056770D01*
X0121850Y0056172D02*
X0120051Y0056172D01*
X0120150Y0055573D02*
X0121850Y0055573D01*
X0121850Y0054975D02*
X0120150Y0054975D01*
X0120150Y0054376D02*
X0122301Y0054376D01*
X0120150Y0053778D02*
X0126018Y0053778D01*
X0126616Y0053179D02*
X0120150Y0053179D01*
X0120150Y0052581D02*
X0127215Y0052581D01*
X0127813Y0051982D02*
X0120150Y0051982D01*
X0120150Y0051384D02*
X0128412Y0051384D01*
X0129010Y0050785D02*
X0120413Y0050785D01*
X0120550Y0050187D02*
X0129609Y0050187D01*
X0130207Y0049588D02*
X0120550Y0049588D01*
X0120550Y0048990D02*
X0130806Y0048990D01*
X0130836Y0047194D02*
X0128028Y0047194D01*
X0128150Y0046596D02*
X0130843Y0046596D01*
X0130850Y0045997D02*
X0128150Y0045997D01*
X0128150Y0045399D02*
X0130857Y0045399D01*
X0130864Y0044800D02*
X0128150Y0044800D01*
X0128150Y0044202D02*
X0130871Y0044202D01*
X0130878Y0043603D02*
X0128501Y0043603D01*
X0129099Y0043005D02*
X0130885Y0043005D01*
X0130892Y0042406D02*
X0129698Y0042406D01*
X0130296Y0041808D02*
X0130899Y0041808D01*
X0130895Y0041209D02*
X0130906Y0041209D01*
X0130990Y0034027D02*
X0091050Y0034027D01*
X0091050Y0033429D02*
X0130997Y0033429D01*
X0117000Y0041200D02*
X0109500Y0048700D01*
X0109500Y0051700D01*
X0108700Y0052500D01*
X0108503Y0052500D01*
X0105978Y0055025D01*
X0077955Y0055025D01*
X0064100Y0068880D01*
X0064100Y0073509D01*
X0052209Y0085400D01*
X0021991Y0085400D01*
X0019900Y0083309D01*
X0019900Y0058600D01*
X0011000Y0049700D01*
X0013408Y0047194D02*
X0098026Y0047194D01*
X0098624Y0046596D02*
X0012810Y0046596D01*
X0014007Y0047793D02*
X0097427Y0047793D01*
X0097125Y0048095D02*
X0099395Y0045825D01*
X0100700Y0045825D01*
X0100700Y0049400D01*
X0101300Y0049400D01*
X0101300Y0050000D01*
X0104875Y0050000D01*
X0104875Y0051305D01*
X0102605Y0053575D01*
X0101300Y0053575D01*
X0101300Y0050000D01*
X0100700Y0050000D01*
X0100700Y0053575D01*
X0099395Y0053575D01*
X0097125Y0051305D01*
X0097125Y0050000D01*
X0100700Y0050000D01*
X0100700Y0049400D01*
X0097125Y0049400D01*
X0097125Y0048095D01*
X0097125Y0048391D02*
X0014475Y0048391D01*
X0014475Y0048990D02*
X0097125Y0048990D01*
X0097125Y0050187D02*
X0014475Y0050187D01*
X0014475Y0050785D02*
X0097125Y0050785D01*
X0097204Y0051384D02*
X0014381Y0051384D01*
X0014979Y0051982D02*
X0097803Y0051982D01*
X0098401Y0052581D02*
X0015578Y0052581D01*
X0016176Y0053179D02*
X0099000Y0053179D01*
X0100700Y0053179D02*
X0101300Y0053179D01*
X0101300Y0052581D02*
X0100700Y0052581D01*
X0100700Y0051982D02*
X0101300Y0051982D01*
X0101300Y0051384D02*
X0100700Y0051384D01*
X0100700Y0050785D02*
X0101300Y0050785D01*
X0101300Y0050187D02*
X0100700Y0050187D01*
X0100700Y0049588D02*
X0014475Y0049588D01*
X0012782Y0053179D02*
X0005300Y0053179D01*
X0005300Y0052581D02*
X0008967Y0052581D01*
X0008368Y0051982D02*
X0005300Y0051982D01*
X0005300Y0051384D02*
X0007770Y0051384D01*
X0007525Y0050785D02*
X0005300Y0050785D01*
X0005300Y0050187D02*
X0007525Y0050187D01*
X0007525Y0049588D02*
X0005300Y0049588D01*
X0005300Y0048990D02*
X0007525Y0048990D01*
X0007525Y0048391D02*
X0005300Y0048391D01*
X0005300Y0047793D02*
X0007993Y0047793D01*
X0008592Y0047194D02*
X0005300Y0047194D01*
X0005300Y0046596D02*
X0009190Y0046596D01*
X0009561Y0043175D02*
X0007525Y0041139D01*
X0007525Y0038261D01*
X0009561Y0036225D01*
X0012439Y0036225D01*
X0014475Y0038261D01*
X0014475Y0041139D01*
X0012439Y0043175D01*
X0009561Y0043175D01*
X0009391Y0043005D02*
X0005300Y0043005D01*
X0005300Y0043603D02*
X0112900Y0043603D01*
X0113498Y0043005D02*
X0102609Y0043005D01*
X0103208Y0042406D02*
X0113850Y0042406D01*
X0113850Y0041808D02*
X0103806Y0041808D01*
X0104405Y0041209D02*
X0113850Y0041209D01*
X0113850Y0040611D02*
X0104475Y0040611D01*
X0104475Y0040012D02*
X0113850Y0040012D01*
X0113850Y0039414D02*
X0104475Y0039414D01*
X0104475Y0038815D02*
X0113862Y0038815D01*
X0112301Y0044202D02*
X0005300Y0044202D01*
X0005300Y0044800D02*
X0111703Y0044800D01*
X0111104Y0045399D02*
X0005300Y0045399D01*
X0005300Y0045997D02*
X0099223Y0045997D01*
X0100700Y0045997D02*
X0101300Y0045997D01*
X0101300Y0045825D02*
X0102605Y0045825D01*
X0104875Y0048095D01*
X0104875Y0049400D01*
X0101300Y0049400D01*
X0101300Y0045825D01*
X0101300Y0046596D02*
X0100700Y0046596D01*
X0100700Y0047194D02*
X0101300Y0047194D01*
X0101300Y0047793D02*
X0100700Y0047793D01*
X0100700Y0048391D02*
X0101300Y0048391D01*
X0101300Y0048990D02*
X0100700Y0048990D01*
X0101300Y0049588D02*
X0108300Y0049588D01*
X0108300Y0048990D02*
X0104875Y0048990D01*
X0104875Y0048391D02*
X0108300Y0048391D01*
X0108710Y0047793D02*
X0104573Y0047793D01*
X0103974Y0047194D02*
X0109309Y0047194D01*
X0109907Y0046596D02*
X0103376Y0046596D01*
X0102777Y0045997D02*
X0110506Y0045997D01*
X0108300Y0050187D02*
X0104875Y0050187D01*
X0104875Y0050785D02*
X0108300Y0050785D01*
X0107922Y0051384D02*
X0104796Y0051384D01*
X0104197Y0051982D02*
X0107323Y0051982D01*
X0106725Y0052581D02*
X0103599Y0052581D01*
X0103000Y0053179D02*
X0106126Y0053179D01*
X0105528Y0053778D02*
X0016775Y0053778D01*
X0017373Y0054376D02*
X0076907Y0054376D01*
X0076308Y0054975D02*
X0017972Y0054975D01*
X0018571Y0055573D02*
X0075710Y0055573D01*
X0075111Y0056172D02*
X0019169Y0056172D01*
X0019768Y0056770D02*
X0074513Y0056770D01*
X0073914Y0057369D02*
X0020366Y0057369D01*
X0020965Y0057968D02*
X0073316Y0057968D01*
X0072717Y0058566D02*
X0021100Y0058566D01*
X0021100Y0059165D02*
X0072119Y0059165D01*
X0071520Y0059763D02*
X0021100Y0059763D01*
X0021100Y0060362D02*
X0070922Y0060362D01*
X0070323Y0060960D02*
X0021100Y0060960D01*
X0021100Y0061559D02*
X0069725Y0061559D01*
X0069126Y0062157D02*
X0021100Y0062157D01*
X0021100Y0062756D02*
X0068527Y0062756D01*
X0067929Y0063354D02*
X0021100Y0063354D01*
X0021100Y0063953D02*
X0067330Y0063953D01*
X0066732Y0064551D02*
X0021100Y0064551D01*
X0021100Y0065150D02*
X0066133Y0065150D01*
X0065535Y0065748D02*
X0021100Y0065748D01*
X0021100Y0066347D02*
X0064936Y0066347D01*
X0064338Y0066945D02*
X0021100Y0066945D01*
X0021100Y0067544D02*
X0063739Y0067544D01*
X0063141Y0068142D02*
X0021100Y0068142D01*
X0021100Y0068741D02*
X0062900Y0068741D01*
X0062900Y0069339D02*
X0021100Y0069339D01*
X0021100Y0069938D02*
X0062900Y0069938D01*
X0062900Y0070536D02*
X0021100Y0070536D01*
X0021100Y0071135D02*
X0062900Y0071135D01*
X0062900Y0071733D02*
X0021100Y0071733D01*
X0021100Y0072332D02*
X0062900Y0072332D01*
X0062900Y0072930D02*
X0021100Y0072930D01*
X0021100Y0073529D02*
X0062383Y0073529D01*
X0061784Y0074127D02*
X0021100Y0074127D01*
X0021100Y0074726D02*
X0061186Y0074726D01*
X0060587Y0075324D02*
X0021100Y0075324D01*
X0021100Y0075923D02*
X0059989Y0075923D01*
X0059390Y0076521D02*
X0021100Y0076521D01*
X0021100Y0077120D02*
X0058792Y0077120D01*
X0058193Y0077718D02*
X0021100Y0077718D01*
X0021100Y0078317D02*
X0057595Y0078317D01*
X0056996Y0078915D02*
X0021100Y0078915D01*
X0021100Y0079514D02*
X0056398Y0079514D01*
X0055799Y0080112D02*
X0021100Y0080112D01*
X0021100Y0080711D02*
X0055201Y0080711D01*
X0054602Y0081309D02*
X0021100Y0081309D01*
X0021100Y0081908D02*
X0054004Y0081908D01*
X0053405Y0082506D02*
X0021100Y0082506D01*
X0021393Y0083105D02*
X0052807Y0083105D01*
X0052208Y0083703D02*
X0021992Y0083703D01*
X0021494Y0086600D02*
X0018700Y0083806D01*
X0018700Y0067400D01*
X0011000Y0059700D01*
X0008543Y0062157D02*
X0005300Y0062157D01*
X0005300Y0061559D02*
X0007944Y0061559D01*
X0007525Y0060960D02*
X0005300Y0060960D01*
X0005300Y0060362D02*
X0007525Y0060362D01*
X0007525Y0059763D02*
X0005300Y0059763D01*
X0005300Y0059165D02*
X0007525Y0059165D01*
X0007525Y0058566D02*
X0005300Y0058566D01*
X0005300Y0057968D02*
X0007818Y0057968D01*
X0008417Y0057369D02*
X0005300Y0057369D01*
X0005300Y0056770D02*
X0009015Y0056770D01*
X0005300Y0056172D02*
X0015775Y0056172D01*
X0016373Y0056770D02*
X0012985Y0056770D01*
X0013583Y0057369D02*
X0016972Y0057369D01*
X0017570Y0057968D02*
X0014182Y0057968D01*
X0014475Y0058566D02*
X0018169Y0058566D01*
X0018700Y0059165D02*
X0014475Y0059165D01*
X0014475Y0059763D02*
X0018700Y0059763D01*
X0018700Y0060362D02*
X0014475Y0060362D01*
X0014475Y0060960D02*
X0018700Y0060960D01*
X0018700Y0061559D02*
X0014556Y0061559D01*
X0015154Y0062157D02*
X0018700Y0062157D01*
X0018700Y0062756D02*
X0015753Y0062756D01*
X0016351Y0063354D02*
X0018700Y0063354D01*
X0018700Y0063953D02*
X0016950Y0063953D01*
X0017548Y0064551D02*
X0018700Y0064551D01*
X0018700Y0065150D02*
X0018147Y0065150D01*
X0016548Y0066945D02*
X0013159Y0066945D01*
X0012561Y0066347D02*
X0015950Y0066347D01*
X0015351Y0065748D02*
X0005300Y0065748D01*
X0005300Y0065150D02*
X0014753Y0065150D01*
X0014154Y0064551D02*
X0005300Y0064551D01*
X0005300Y0063953D02*
X0013556Y0063953D01*
X0012957Y0063354D02*
X0005300Y0063354D01*
X0005300Y0062756D02*
X0009141Y0062756D01*
X0009439Y0066347D02*
X0005300Y0066347D01*
X0005300Y0066945D02*
X0008841Y0066945D01*
X0008242Y0067544D02*
X0005300Y0067544D01*
X0005300Y0068142D02*
X0007644Y0068142D01*
X0007525Y0068741D02*
X0005300Y0068741D01*
X0005300Y0069339D02*
X0007525Y0069339D01*
X0007525Y0069938D02*
X0005300Y0069938D01*
X0005300Y0070536D02*
X0007525Y0070536D01*
X0007525Y0071135D02*
X0005300Y0071135D01*
X0005300Y0071733D02*
X0008119Y0071733D01*
X0008718Y0072332D02*
X0005300Y0072332D01*
X0005300Y0072930D02*
X0009316Y0072930D01*
X0009265Y0076521D02*
X0005300Y0076521D01*
X0005300Y0075923D02*
X0015526Y0075923D01*
X0016124Y0076521D02*
X0012735Y0076521D01*
X0013334Y0077120D02*
X0016300Y0077120D01*
X0016300Y0077718D02*
X0013932Y0077718D01*
X0014475Y0078317D02*
X0016300Y0078317D01*
X0016300Y0078915D02*
X0014475Y0078915D01*
X0014475Y0079514D02*
X0016300Y0079514D01*
X0016300Y0080112D02*
X0014475Y0080112D01*
X0014475Y0080711D02*
X0016300Y0080711D01*
X0016300Y0081309D02*
X0014506Y0081309D01*
X0015105Y0081908D02*
X0016300Y0081908D01*
X0016300Y0082506D02*
X0015704Y0082506D01*
X0014105Y0084302D02*
X0005300Y0084302D01*
X0005300Y0084901D02*
X0014703Y0084901D01*
X0015302Y0085499D02*
X0005300Y0085499D01*
X0005300Y0086098D02*
X0015901Y0086098D01*
X0016499Y0086696D02*
X0012910Y0086696D01*
X0013509Y0087295D02*
X0017098Y0087295D01*
X0017696Y0087893D02*
X0014107Y0087893D01*
X0014475Y0088492D02*
X0018295Y0088492D01*
X0020500Y0089000D02*
X0011200Y0079700D01*
X0011000Y0079700D01*
X0008666Y0077120D02*
X0005300Y0077120D01*
X0005300Y0077718D02*
X0008068Y0077718D01*
X0007525Y0078317D02*
X0005300Y0078317D01*
X0005300Y0078915D02*
X0007525Y0078915D01*
X0007525Y0079514D02*
X0005300Y0079514D01*
X0005300Y0080112D02*
X0007525Y0080112D01*
X0007525Y0080711D02*
X0005300Y0080711D01*
X0005300Y0081309D02*
X0007695Y0081309D01*
X0008294Y0081908D02*
X0005300Y0081908D01*
X0005300Y0082506D02*
X0008892Y0082506D01*
X0009491Y0083105D02*
X0005300Y0083105D01*
X0005300Y0083703D02*
X0013506Y0083703D01*
X0012908Y0083105D02*
X0012509Y0083105D01*
X0009090Y0086696D02*
X0005300Y0086696D01*
X0005300Y0087295D02*
X0008491Y0087295D01*
X0007893Y0087893D02*
X0005300Y0087893D01*
X0005300Y0088492D02*
X0007525Y0088492D01*
X0007525Y0089090D02*
X0005300Y0089090D01*
X0005300Y0089689D02*
X0007525Y0089689D01*
X0007525Y0090287D02*
X0005300Y0090287D01*
X0005300Y0090886D02*
X0007525Y0090886D01*
X0007870Y0091484D02*
X0005300Y0091484D01*
X0005300Y0092083D02*
X0008469Y0092083D01*
X0009067Y0092681D02*
X0005300Y0092681D01*
X0005300Y0093280D02*
X0084850Y0093280D01*
X0084850Y0093878D02*
X0005300Y0093878D01*
X0005300Y0094477D02*
X0076666Y0094477D01*
X0076710Y0094402D02*
X0076952Y0094160D01*
X0077248Y0093989D01*
X0077579Y0093900D01*
X0079700Y0093900D01*
X0079700Y0096900D01*
X0080300Y0096900D01*
X0080300Y0097500D01*
X0079700Y0097500D01*
X0079700Y0100500D01*
X0077579Y0100500D01*
X0077248Y0100411D01*
X0076952Y0100240D01*
X0076710Y0099998D01*
X0076539Y0099702D01*
X0076450Y0099371D01*
X0076450Y0097500D01*
X0079700Y0097500D01*
X0079700Y0096900D01*
X0076450Y0096900D01*
X0076450Y0095029D01*
X0076539Y0094698D01*
X0076710Y0094402D01*
X0076450Y0095075D02*
X0005300Y0095075D01*
X0005300Y0095674D02*
X0076450Y0095674D01*
X0076450Y0096272D02*
X0012486Y0096272D01*
X0012439Y0096225D02*
X0014475Y0098261D01*
X0014475Y0101139D01*
X0012439Y0103175D01*
X0009561Y0103175D01*
X0007525Y0101139D01*
X0007525Y0098261D01*
X0009561Y0096225D01*
X0012439Y0096225D01*
X0013085Y0096871D02*
X0076450Y0096871D01*
X0076450Y0098068D02*
X0014282Y0098068D01*
X0014475Y0098666D02*
X0076450Y0098666D01*
X0076450Y0099265D02*
X0014475Y0099265D01*
X0014475Y0099863D02*
X0038280Y0099863D01*
X0036590Y0100462D02*
X0014475Y0100462D01*
X0014475Y0101060D02*
X0035553Y0101060D01*
X0034608Y0101659D02*
X0013955Y0101659D01*
X0013357Y0102257D02*
X0034010Y0102257D01*
X0033411Y0102856D02*
X0012758Y0102856D01*
X0009242Y0102856D02*
X0005300Y0102856D01*
X0005300Y0103454D02*
X0032822Y0103454D01*
X0032476Y0104053D02*
X0005300Y0104053D01*
X0005300Y0104651D02*
X0032130Y0104651D01*
X0031785Y0105250D02*
X0005300Y0105250D01*
X0005300Y0105848D02*
X0031466Y0105848D01*
X0031306Y0106447D02*
X0012661Y0106447D01*
X0012439Y0106225D02*
X0014475Y0108261D01*
X0014475Y0111139D01*
X0012439Y0113175D01*
X0009561Y0113175D01*
X0007525Y0111139D01*
X0007525Y0108261D01*
X0009561Y0106225D01*
X0012439Y0106225D01*
X0013260Y0107045D02*
X0031146Y0107045D01*
X0030985Y0107644D02*
X0013858Y0107644D01*
X0014457Y0108242D02*
X0030825Y0108242D01*
X0030794Y0108841D02*
X0014475Y0108841D01*
X0014475Y0109439D02*
X0030794Y0109439D01*
X0030794Y0110038D02*
X0014475Y0110038D01*
X0014475Y0110637D02*
X0030794Y0110637D01*
X0030846Y0111235D02*
X0014379Y0111235D01*
X0013781Y0111834D02*
X0031006Y0111834D01*
X0031167Y0112432D02*
X0013182Y0112432D01*
X0012584Y0113031D02*
X0031327Y0113031D01*
X0031487Y0113629D02*
X0005300Y0113629D01*
X0005300Y0113031D02*
X0009416Y0113031D01*
X0008818Y0112432D02*
X0005300Y0112432D01*
X0005300Y0111834D02*
X0008219Y0111834D01*
X0007621Y0111235D02*
X0005300Y0111235D01*
X0005300Y0110637D02*
X0007525Y0110637D01*
X0007525Y0110038D02*
X0005300Y0110038D01*
X0005300Y0109439D02*
X0007525Y0109439D01*
X0007525Y0108841D02*
X0005300Y0108841D01*
X0005300Y0108242D02*
X0007543Y0108242D01*
X0008142Y0107644D02*
X0005300Y0107644D01*
X0005300Y0107045D02*
X0008740Y0107045D01*
X0009339Y0106447D02*
X0005300Y0106447D01*
X0005300Y0102257D02*
X0008643Y0102257D01*
X0008045Y0101659D02*
X0005300Y0101659D01*
X0005300Y0101060D02*
X0007525Y0101060D01*
X0007525Y0100462D02*
X0005300Y0100462D01*
X0005300Y0099863D02*
X0007525Y0099863D01*
X0007525Y0099265D02*
X0005300Y0099265D01*
X0005300Y0098666D02*
X0007525Y0098666D01*
X0007718Y0098068D02*
X0005300Y0098068D01*
X0005300Y0097469D02*
X0008317Y0097469D01*
X0008915Y0096871D02*
X0005300Y0096871D01*
X0005300Y0096272D02*
X0009514Y0096272D01*
X0013683Y0097469D02*
X0079700Y0097469D01*
X0079700Y0096871D02*
X0080300Y0096871D01*
X0080300Y0096900D02*
X0080300Y0093900D01*
X0082421Y0093900D01*
X0082752Y0093989D01*
X0083048Y0094160D01*
X0083290Y0094402D01*
X0083461Y0094698D01*
X0083550Y0095029D01*
X0083550Y0096900D01*
X0080300Y0096900D01*
X0080300Y0097469D02*
X0098317Y0097469D01*
X0097718Y0098068D02*
X0083550Y0098068D01*
X0083550Y0097500D02*
X0083550Y0099371D01*
X0083461Y0099702D01*
X0083290Y0099998D01*
X0083048Y0100240D01*
X0082752Y0100411D01*
X0082421Y0100500D01*
X0080300Y0100500D01*
X0080300Y0097500D01*
X0083550Y0097500D01*
X0083550Y0096871D02*
X0092267Y0096871D01*
X0091668Y0096272D02*
X0090951Y0096272D01*
X0093484Y0093280D02*
X0113450Y0093280D01*
X0113450Y0093000D02*
X0113450Y0094871D01*
X0113539Y0095202D01*
X0113710Y0095498D01*
X0113952Y0095740D01*
X0114248Y0095911D01*
X0114579Y0096000D01*
X0116700Y0096000D01*
X0116700Y0093000D01*
X0117300Y0093000D01*
X0117300Y0096000D01*
X0119421Y0096000D01*
X0119752Y0095911D01*
X0120048Y0095740D01*
X0120290Y0095498D01*
X0120461Y0095202D01*
X0120550Y0094871D01*
X0120550Y0093000D01*
X0117300Y0093000D01*
X0117300Y0092400D01*
X0120550Y0092400D01*
X0120550Y0090529D01*
X0120461Y0090198D01*
X0120290Y0089902D01*
X0120048Y0089660D01*
X0119752Y0089489D01*
X0119421Y0089400D01*
X0117300Y0089400D01*
X0117300Y0092400D01*
X0116700Y0092400D01*
X0116700Y0089400D01*
X0114579Y0089400D01*
X0114248Y0089489D01*
X0113952Y0089660D01*
X0113710Y0089902D01*
X0113539Y0090198D01*
X0113450Y0090529D01*
X0113450Y0092400D01*
X0116700Y0092400D01*
X0116700Y0093000D01*
X0113450Y0093000D01*
X0113450Y0093878D02*
X0094082Y0093878D01*
X0092885Y0092681D02*
X0099067Y0092681D01*
X0099561Y0093175D02*
X0097525Y0091139D01*
X0097525Y0088261D01*
X0099561Y0086225D01*
X0102439Y0086225D01*
X0102609Y0086394D01*
X0103800Y0085203D01*
X0104503Y0084500D01*
X0113850Y0084500D01*
X0113850Y0083327D01*
X0114262Y0082915D01*
X0114248Y0082911D01*
X0113952Y0082740D01*
X0113710Y0082498D01*
X0113539Y0082202D01*
X0113450Y0081871D01*
X0113450Y0080000D01*
X0116700Y0080000D01*
X0116700Y0079400D01*
X0117300Y0079400D01*
X0117300Y0080000D01*
X0120550Y0080000D01*
X0120550Y0081871D01*
X0120461Y0082202D01*
X0120290Y0082498D01*
X0120048Y0082740D01*
X0119752Y0082911D01*
X0119738Y0082915D01*
X0120150Y0083327D01*
X0120150Y0088073D01*
X0119623Y0088600D01*
X0114377Y0088600D01*
X0113850Y0088073D01*
X0113850Y0086900D01*
X0105497Y0086900D01*
X0104306Y0088091D01*
X0104475Y0088261D01*
X0104475Y0091139D01*
X0102439Y0093175D01*
X0099561Y0093175D01*
X0098469Y0092083D02*
X0092287Y0092083D01*
X0091150Y0091484D02*
X0097870Y0091484D01*
X0097525Y0090886D02*
X0090708Y0090886D01*
X0085292Y0090886D02*
X0083150Y0090886D01*
X0083150Y0091484D02*
X0084850Y0091484D01*
X0084850Y0092083D02*
X0083150Y0092083D01*
X0083042Y0092681D02*
X0084850Y0092681D01*
X0084850Y0094477D02*
X0083333Y0094477D01*
X0083550Y0095075D02*
X0084850Y0095075D01*
X0084850Y0095674D02*
X0083550Y0095674D01*
X0083550Y0096272D02*
X0085049Y0096272D01*
X0083550Y0098666D02*
X0097525Y0098666D01*
X0097525Y0099265D02*
X0083550Y0099265D01*
X0083368Y0099863D02*
X0097525Y0099863D01*
X0097525Y0100462D02*
X0082564Y0100462D01*
X0080300Y0100462D02*
X0079700Y0100462D01*
X0079700Y0099863D02*
X0080300Y0099863D01*
X0080300Y0099265D02*
X0079700Y0099265D01*
X0079700Y0098666D02*
X0080300Y0098666D01*
X0080300Y0098068D02*
X0079700Y0098068D01*
X0079700Y0096272D02*
X0080300Y0096272D01*
X0080300Y0095674D02*
X0079700Y0095674D01*
X0079700Y0095075D02*
X0080300Y0095075D01*
X0080300Y0094477D02*
X0079700Y0094477D01*
X0076958Y0092681D02*
X0012933Y0092681D01*
X0013531Y0092083D02*
X0076850Y0092083D01*
X0076850Y0091484D02*
X0014130Y0091484D01*
X0011500Y0090200D02*
X0011000Y0089700D01*
X0011500Y0090200D02*
X0080000Y0090200D01*
X0083150Y0090287D02*
X0097525Y0090287D01*
X0097525Y0089689D02*
X0083150Y0089689D01*
X0083150Y0089090D02*
X0097525Y0089090D01*
X0097525Y0088492D02*
X0083150Y0088492D01*
X0083150Y0087893D02*
X0097893Y0087893D01*
X0098491Y0087295D02*
X0057102Y0087295D01*
X0056504Y0087893D02*
X0076850Y0087893D01*
X0076850Y0088492D02*
X0055905Y0088492D01*
X0053700Y0089000D02*
X0020500Y0089000D01*
X0020997Y0087800D02*
X0017500Y0084303D01*
X0017500Y0076200D01*
X0011000Y0069700D01*
X0014475Y0069938D02*
X0017500Y0069938D01*
X0017500Y0070536D02*
X0014475Y0070536D01*
X0014475Y0071135D02*
X0017500Y0071135D01*
X0017500Y0071733D02*
X0014730Y0071733D01*
X0015329Y0072332D02*
X0017500Y0072332D01*
X0017500Y0072930D02*
X0015927Y0072930D01*
X0016526Y0073529D02*
X0017500Y0073529D01*
X0017500Y0074127D02*
X0017124Y0074127D01*
X0014927Y0075324D02*
X0005300Y0075324D01*
X0005300Y0074726D02*
X0014329Y0074726D01*
X0013730Y0074127D02*
X0005300Y0074127D01*
X0005300Y0073529D02*
X0013132Y0073529D01*
X0014475Y0069339D02*
X0017500Y0069339D01*
X0017500Y0068741D02*
X0014475Y0068741D01*
X0014356Y0068142D02*
X0017500Y0068142D01*
X0017147Y0067544D02*
X0013758Y0067544D01*
X0015176Y0055573D02*
X0005300Y0055573D01*
X0005300Y0054975D02*
X0014578Y0054975D01*
X0013979Y0054376D02*
X0005300Y0054376D01*
X0005300Y0053778D02*
X0013381Y0053778D01*
X0012609Y0043005D02*
X0099391Y0043005D01*
X0098792Y0042406D02*
X0013208Y0042406D01*
X0013806Y0041808D02*
X0098194Y0041808D01*
X0097595Y0041209D02*
X0014405Y0041209D01*
X0014475Y0040611D02*
X0097525Y0040611D01*
X0097525Y0040012D02*
X0014475Y0040012D01*
X0014475Y0039414D02*
X0097525Y0039414D01*
X0097525Y0038815D02*
X0014475Y0038815D01*
X0014431Y0038217D02*
X0097569Y0038217D01*
X0098168Y0037618D02*
X0090377Y0037618D01*
X0090855Y0037020D02*
X0098766Y0037020D01*
X0099365Y0036421D02*
X0091050Y0036421D01*
X0086700Y0034626D02*
X0057300Y0034626D01*
X0057300Y0035224D02*
X0056700Y0035224D01*
X0056700Y0034626D02*
X0047300Y0034626D01*
X0047300Y0034400D02*
X0047300Y0035000D01*
X0046700Y0035000D01*
X0046700Y0038000D01*
X0044513Y0038000D01*
X0044055Y0037877D01*
X0043645Y0037640D01*
X0043310Y0037305D01*
X0043073Y0036895D01*
X0042950Y0036437D01*
X0042950Y0035000D01*
X0046700Y0035000D01*
X0046700Y0034400D01*
X0047300Y0034400D01*
X0051050Y0034400D01*
X0051050Y0032963D01*
X0050927Y0032505D01*
X0050690Y0032095D01*
X0050355Y0031760D01*
X0049945Y0031523D01*
X0049487Y0031400D01*
X0047300Y0031400D01*
X0047300Y0034400D01*
X0047300Y0034027D02*
X0046700Y0034027D01*
X0046700Y0034400D02*
X0046700Y0031400D01*
X0044513Y0031400D01*
X0044055Y0031523D01*
X0043645Y0031760D01*
X0043310Y0032095D01*
X0043073Y0032505D01*
X0042950Y0032963D01*
X0042950Y0034400D01*
X0046700Y0034400D01*
X0046700Y0034626D02*
X0005300Y0034626D01*
X0005300Y0035224D02*
X0042950Y0035224D01*
X0042950Y0035823D02*
X0005300Y0035823D01*
X0005300Y0036421D02*
X0009365Y0036421D01*
X0008766Y0037020D02*
X0005300Y0037020D01*
X0005300Y0037618D02*
X0008168Y0037618D01*
X0007569Y0038217D02*
X0005300Y0038217D01*
X0005300Y0038815D02*
X0007525Y0038815D01*
X0007525Y0039414D02*
X0005300Y0039414D01*
X0005300Y0040012D02*
X0007525Y0040012D01*
X0007525Y0040611D02*
X0005300Y0040611D01*
X0005300Y0041209D02*
X0007595Y0041209D01*
X0008194Y0041808D02*
X0005300Y0041808D01*
X0005300Y0042406D02*
X0008792Y0042406D01*
X0013832Y0037618D02*
X0043623Y0037618D01*
X0043145Y0037020D02*
X0013234Y0037020D01*
X0012635Y0036421D02*
X0042950Y0036421D01*
X0042950Y0034027D02*
X0005300Y0034027D01*
X0005300Y0033429D02*
X0042950Y0033429D01*
X0042986Y0032830D02*
X0005300Y0032830D01*
X0005300Y0032232D02*
X0043231Y0032232D01*
X0043864Y0031633D02*
X0005300Y0031633D01*
X0005300Y0029837D02*
X0019403Y0029837D01*
X0017169Y0029239D02*
X0005300Y0029239D01*
X0005300Y0028640D02*
X0016074Y0028640D01*
X0015038Y0028042D02*
X0005300Y0028042D01*
X0005300Y0027443D02*
X0014311Y0027443D01*
X0013712Y0026845D02*
X0005300Y0026845D01*
X0005300Y0026246D02*
X0013114Y0026246D01*
X0012650Y0025648D02*
X0005300Y0025648D01*
X0005300Y0025049D02*
X0012304Y0025049D01*
X0011959Y0024451D02*
X0005300Y0024451D01*
X0005300Y0023852D02*
X0011613Y0023852D01*
X0011387Y0023254D02*
X0005300Y0023254D01*
X0005300Y0022655D02*
X0011226Y0022655D01*
X0011066Y0022057D02*
X0005300Y0022057D01*
X0005300Y0021458D02*
X0010906Y0021458D01*
X0010794Y0020860D02*
X0005300Y0020860D01*
X0005300Y0020261D02*
X0010794Y0020261D01*
X0010794Y0019663D02*
X0005300Y0019663D01*
X0005300Y0019064D02*
X0010794Y0019064D01*
X0010794Y0018466D02*
X0005300Y0018466D01*
X0005300Y0017867D02*
X0010926Y0017867D01*
X0011086Y0017269D02*
X0005300Y0017269D01*
X0005300Y0016670D02*
X0011246Y0016670D01*
X0011407Y0016072D02*
X0005300Y0016072D01*
X0005300Y0015473D02*
X0011656Y0015473D01*
X0012002Y0014875D02*
X0005300Y0014875D01*
X0005300Y0014276D02*
X0012347Y0014276D01*
X0012693Y0013678D02*
X0005300Y0013678D01*
X0005300Y0013079D02*
X0013188Y0013079D01*
X0013787Y0012481D02*
X0005300Y0012481D01*
X0005300Y0011882D02*
X0014385Y0011882D01*
X0015167Y0011284D02*
X0005300Y0011284D01*
X0005300Y0010685D02*
X0016203Y0010685D01*
X0017447Y0010087D02*
X0005300Y0010087D01*
X0046700Y0031633D02*
X0047300Y0031633D01*
X0047300Y0032232D02*
X0046700Y0032232D01*
X0046700Y0032830D02*
X0047300Y0032830D01*
X0047300Y0033429D02*
X0046700Y0033429D01*
X0047300Y0035000D02*
X0051050Y0035000D01*
X0051050Y0036437D01*
X0050927Y0036895D01*
X0050690Y0037305D01*
X0050355Y0037640D01*
X0049945Y0037877D01*
X0049487Y0038000D01*
X0047300Y0038000D01*
X0047300Y0035000D01*
X0047300Y0035224D02*
X0046700Y0035224D01*
X0046700Y0035823D02*
X0047300Y0035823D01*
X0047300Y0036421D02*
X0046700Y0036421D01*
X0046700Y0037020D02*
X0047300Y0037020D01*
X0047300Y0037618D02*
X0046700Y0037618D01*
X0050377Y0037618D02*
X0053623Y0037618D01*
X0053145Y0037020D02*
X0050855Y0037020D01*
X0051050Y0036421D02*
X0052950Y0036421D01*
X0052950Y0035823D02*
X0051050Y0035823D01*
X0051050Y0035224D02*
X0052950Y0035224D01*
X0052950Y0034400D02*
X0052950Y0032963D01*
X0053073Y0032505D01*
X0053310Y0032095D01*
X0053645Y0031760D01*
X0054055Y0031523D01*
X0054513Y0031400D01*
X0056700Y0031400D01*
X0056700Y0034400D01*
X0052950Y0034400D01*
X0052950Y0034027D02*
X0051050Y0034027D01*
X0051050Y0033429D02*
X0052950Y0033429D01*
X0052986Y0032830D02*
X0051014Y0032830D01*
X0050769Y0032232D02*
X0053231Y0032232D01*
X0053864Y0031633D02*
X0050136Y0031633D01*
X0049994Y0030436D02*
X0054006Y0030436D01*
X0053408Y0029837D02*
X0050592Y0029837D01*
X0050650Y0029239D02*
X0053350Y0029239D01*
X0053350Y0028640D02*
X0050650Y0028640D01*
X0050650Y0028042D02*
X0053350Y0028042D01*
X0053350Y0027443D02*
X0050650Y0027443D01*
X0050650Y0026845D02*
X0053350Y0026845D01*
X0053350Y0026246D02*
X0050650Y0026246D01*
X0050650Y0025648D02*
X0053350Y0025648D01*
X0053921Y0025049D02*
X0050079Y0025049D01*
X0049100Y0024451D02*
X0054900Y0024451D01*
X0054900Y0023852D02*
X0049100Y0023852D01*
X0049100Y0023254D02*
X0054900Y0023254D01*
X0054900Y0022655D02*
X0049100Y0022655D01*
X0049100Y0022057D02*
X0054900Y0022057D01*
X0054900Y0021458D02*
X0049100Y0021458D01*
X0049356Y0020860D02*
X0054644Y0020860D01*
X0054046Y0020261D02*
X0049954Y0020261D01*
X0050408Y0019663D02*
X0053592Y0019663D01*
X0053344Y0019064D02*
X0050656Y0019064D01*
X0050900Y0018466D02*
X0053100Y0018466D01*
X0053100Y0017867D02*
X0050900Y0017867D01*
X0050900Y0017269D02*
X0053100Y0017269D01*
X0053100Y0016670D02*
X0050900Y0016670D01*
X0050900Y0016072D02*
X0053100Y0016072D01*
X0053100Y0015473D02*
X0050900Y0015473D01*
X0050900Y0014875D02*
X0053100Y0014875D01*
X0053100Y0014276D02*
X0050900Y0014276D01*
X0050900Y0013678D02*
X0053100Y0013678D01*
X0053100Y0013079D02*
X0050900Y0013079D01*
X0050900Y0012481D02*
X0053100Y0012481D01*
X0053100Y0011882D02*
X0050900Y0011882D01*
X0050900Y0011284D02*
X0053100Y0011284D01*
X0053199Y0010685D02*
X0050801Y0010685D01*
X0050553Y0010087D02*
X0053447Y0010087D01*
X0053696Y0009488D02*
X0050304Y0009488D01*
X0066700Y0016072D02*
X0067300Y0016072D01*
X0067300Y0016670D02*
X0066700Y0016670D01*
X0066700Y0017269D02*
X0067300Y0017269D01*
X0067300Y0017867D02*
X0066700Y0017867D01*
X0066700Y0018466D02*
X0067300Y0018466D01*
X0067300Y0019064D02*
X0066700Y0019064D01*
X0066700Y0019663D02*
X0067300Y0019663D01*
X0067300Y0020261D02*
X0066700Y0020261D01*
X0066700Y0020860D02*
X0067300Y0020860D01*
X0067300Y0021458D02*
X0066700Y0021458D01*
X0069095Y0021458D02*
X0074905Y0021458D01*
X0074079Y0020860D02*
X0069921Y0020860D01*
X0070454Y0020261D02*
X0073546Y0020261D01*
X0073174Y0019663D02*
X0070826Y0019663D01*
X0071078Y0019064D02*
X0072922Y0019064D01*
X0072768Y0018466D02*
X0071232Y0018466D01*
X0071300Y0017867D02*
X0072700Y0017867D01*
X0072700Y0017269D02*
X0071300Y0017269D01*
X0071300Y0016670D02*
X0072700Y0016670D01*
X0072700Y0016072D02*
X0071300Y0016072D01*
X0071300Y0015473D02*
X0072700Y0015473D01*
X0072700Y0014276D02*
X0071300Y0014276D01*
X0071300Y0013678D02*
X0072700Y0013678D01*
X0072700Y0013079D02*
X0071300Y0013079D01*
X0071300Y0012481D02*
X0072700Y0012481D01*
X0072700Y0011882D02*
X0071300Y0011882D01*
X0071288Y0011284D02*
X0072712Y0011284D01*
X0072808Y0010685D02*
X0071192Y0010685D01*
X0070997Y0010087D02*
X0073003Y0010087D01*
X0073301Y0009488D02*
X0070699Y0009488D01*
X0057300Y0031633D02*
X0056700Y0031633D01*
X0056700Y0032232D02*
X0057300Y0032232D01*
X0057300Y0032830D02*
X0056700Y0032830D01*
X0056700Y0033429D02*
X0057300Y0033429D01*
X0057300Y0034027D02*
X0056700Y0034027D01*
X0056700Y0035823D02*
X0057300Y0035823D01*
X0057300Y0036421D02*
X0056700Y0036421D01*
X0056700Y0037020D02*
X0057300Y0037020D01*
X0057300Y0037618D02*
X0056700Y0037618D01*
X0078452Y0056225D02*
X0065300Y0069377D01*
X0065300Y0074006D01*
X0052706Y0086600D01*
X0021494Y0086600D01*
X0020997Y0087800D02*
X0053203Y0087800D01*
X0066500Y0074503D01*
X0066500Y0070700D01*
X0077000Y0060200D01*
X0080000Y0060200D01*
X0083150Y0060362D02*
X0097525Y0060362D01*
X0097525Y0060960D02*
X0090783Y0060960D01*
X0091150Y0061559D02*
X0097944Y0061559D01*
X0098543Y0062157D02*
X0091861Y0062157D01*
X0092460Y0062756D02*
X0099141Y0062756D01*
X0097525Y0059763D02*
X0083150Y0059763D01*
X0083150Y0059165D02*
X0097525Y0059165D01*
X0097525Y0058566D02*
X0083150Y0058566D01*
X0083150Y0057968D02*
X0097818Y0057968D01*
X0102858Y0062756D02*
X0113450Y0062756D01*
X0113450Y0062871D02*
X0113450Y0061000D01*
X0116700Y0061000D01*
X0116700Y0064000D01*
X0114579Y0064000D01*
X0114248Y0063911D01*
X0113952Y0063740D01*
X0113710Y0063498D01*
X0113539Y0063202D01*
X0113450Y0062871D01*
X0113627Y0063354D02*
X0093058Y0063354D01*
X0093657Y0063953D02*
X0114402Y0063953D01*
X0113450Y0062157D02*
X0103457Y0062157D01*
X0104056Y0061559D02*
X0113450Y0061559D01*
X0113450Y0060400D02*
X0113450Y0058529D01*
X0113539Y0058198D01*
X0113710Y0057902D01*
X0113952Y0057660D01*
X0114248Y0057489D01*
X0114579Y0057400D01*
X0116700Y0057400D01*
X0116700Y0060400D01*
X0117300Y0060400D01*
X0117300Y0061000D01*
X0116700Y0061000D01*
X0116700Y0060400D01*
X0113450Y0060400D01*
X0113450Y0060362D02*
X0104475Y0060362D01*
X0104475Y0060960D02*
X0116700Y0060960D01*
X0116700Y0060362D02*
X0117300Y0060362D01*
X0117300Y0060400D02*
X0117300Y0057400D01*
X0119421Y0057400D01*
X0119752Y0057489D01*
X0120048Y0057660D01*
X0120290Y0057902D01*
X0120461Y0058198D01*
X0120550Y0058529D01*
X0120550Y0060400D01*
X0117300Y0060400D01*
X0117300Y0060960D02*
X0130675Y0060960D01*
X0130682Y0060362D02*
X0120550Y0060362D01*
X0120550Y0059763D02*
X0122040Y0059763D01*
X0121850Y0059165D02*
X0120550Y0059165D01*
X0120550Y0058566D02*
X0121850Y0058566D01*
X0121850Y0057968D02*
X0120328Y0057968D01*
X0121850Y0057369D02*
X0107028Y0057369D01*
X0106475Y0056225D02*
X0109000Y0053700D01*
X0117000Y0053700D01*
X0116700Y0057968D02*
X0117300Y0057968D01*
X0117300Y0058566D02*
X0116700Y0058566D01*
X0116700Y0059165D02*
X0117300Y0059165D01*
X0117300Y0059763D02*
X0116700Y0059763D01*
X0117300Y0061000D02*
X0120550Y0061000D01*
X0120550Y0062871D01*
X0120461Y0063202D01*
X0120290Y0063498D01*
X0120048Y0063740D01*
X0119752Y0063911D01*
X0119421Y0064000D01*
X0117300Y0064000D01*
X0117300Y0061000D01*
X0117300Y0061559D02*
X0116700Y0061559D01*
X0116700Y0062157D02*
X0117300Y0062157D01*
X0117300Y0062756D02*
X0116700Y0062756D01*
X0116700Y0063354D02*
X0117300Y0063354D01*
X0117300Y0063953D02*
X0116700Y0063953D01*
X0119598Y0063953D02*
X0127843Y0063953D01*
X0127245Y0064551D02*
X0112255Y0064551D01*
X0110440Y0067544D02*
X0103758Y0067544D01*
X0104356Y0068142D02*
X0110154Y0068142D01*
X0109555Y0068741D02*
X0104475Y0068741D01*
X0104475Y0069339D02*
X0108957Y0069339D01*
X0108358Y0069938D02*
X0104475Y0069938D01*
X0104475Y0070536D02*
X0107760Y0070536D01*
X0107161Y0071135D02*
X0104475Y0071135D01*
X0103881Y0071733D02*
X0106563Y0071733D01*
X0105964Y0072332D02*
X0103282Y0072332D01*
X0102684Y0072930D02*
X0105366Y0072930D01*
X0104767Y0073529D02*
X0083150Y0073529D01*
X0083150Y0074127D02*
X0098547Y0074127D01*
X0097949Y0074726D02*
X0083150Y0074726D01*
X0083150Y0075324D02*
X0097350Y0075324D01*
X0096752Y0075923D02*
X0083150Y0075923D01*
X0083150Y0076521D02*
X0085156Y0076521D01*
X0084850Y0077120D02*
X0083150Y0077120D01*
X0083150Y0077718D02*
X0084850Y0077718D01*
X0084850Y0078317D02*
X0082906Y0078317D01*
X0082752Y0079489D02*
X0083048Y0079660D01*
X0083290Y0079902D01*
X0083461Y0080198D01*
X0083550Y0080529D01*
X0083550Y0082400D01*
X0080300Y0082400D01*
X0080300Y0083000D01*
X0079700Y0083000D01*
X0079700Y0086000D01*
X0077579Y0086000D01*
X0077248Y0085911D01*
X0076952Y0085740D01*
X0076710Y0085498D01*
X0076539Y0085202D01*
X0076450Y0084871D01*
X0076450Y0083000D01*
X0079700Y0083000D01*
X0079700Y0082400D01*
X0080300Y0082400D01*
X0080300Y0079400D01*
X0082421Y0079400D01*
X0082752Y0079489D01*
X0082796Y0079514D02*
X0084850Y0079514D01*
X0084850Y0080112D02*
X0083412Y0080112D01*
X0083550Y0080711D02*
X0084850Y0080711D01*
X0084850Y0081309D02*
X0083550Y0081309D01*
X0083550Y0081908D02*
X0085185Y0081908D01*
X0083550Y0083000D02*
X0083550Y0084871D01*
X0083461Y0085202D01*
X0083290Y0085498D01*
X0083048Y0085740D01*
X0082752Y0085911D01*
X0082421Y0086000D01*
X0080300Y0086000D01*
X0080300Y0083000D01*
X0083550Y0083000D01*
X0083550Y0083105D02*
X0099491Y0083105D01*
X0098892Y0082506D02*
X0080300Y0082506D01*
X0080300Y0081908D02*
X0079700Y0081908D01*
X0079700Y0082400D02*
X0079700Y0079400D01*
X0077579Y0079400D01*
X0077248Y0079489D01*
X0076952Y0079660D01*
X0076710Y0079902D01*
X0076539Y0080198D01*
X0076450Y0080529D01*
X0076450Y0082400D01*
X0079700Y0082400D01*
X0079700Y0082506D02*
X0061891Y0082506D01*
X0062489Y0081908D02*
X0076450Y0081908D01*
X0076450Y0081309D02*
X0063088Y0081309D01*
X0063686Y0080711D02*
X0076450Y0080711D01*
X0076588Y0080112D02*
X0064285Y0080112D01*
X0064883Y0079514D02*
X0077204Y0079514D01*
X0077094Y0078317D02*
X0066080Y0078317D01*
X0065482Y0078915D02*
X0084850Y0078915D01*
X0080300Y0079514D02*
X0079700Y0079514D01*
X0079700Y0080112D02*
X0080300Y0080112D01*
X0080300Y0080711D02*
X0079700Y0080711D01*
X0079700Y0081309D02*
X0080300Y0081309D01*
X0080300Y0083105D02*
X0079700Y0083105D01*
X0079700Y0083703D02*
X0080300Y0083703D01*
X0080300Y0084302D02*
X0079700Y0084302D01*
X0079700Y0084901D02*
X0080300Y0084901D01*
X0080300Y0085499D02*
X0079700Y0085499D01*
X0076711Y0085499D02*
X0058898Y0085499D01*
X0059497Y0084901D02*
X0076458Y0084901D01*
X0076450Y0084302D02*
X0060095Y0084302D01*
X0060694Y0083703D02*
X0076450Y0083703D01*
X0076450Y0083105D02*
X0061292Y0083105D01*
X0063000Y0079700D02*
X0053700Y0089000D01*
X0057701Y0086696D02*
X0099090Y0086696D01*
X0101000Y0089700D02*
X0105000Y0085700D01*
X0117000Y0085700D01*
X0113850Y0084302D02*
X0083550Y0084302D01*
X0083550Y0083703D02*
X0113850Y0083703D01*
X0114072Y0083105D02*
X0102509Y0083105D01*
X0103108Y0082506D02*
X0113718Y0082506D01*
X0113460Y0081908D02*
X0103706Y0081908D01*
X0104305Y0081309D02*
X0113450Y0081309D01*
X0113450Y0080711D02*
X0104475Y0080711D01*
X0104475Y0080112D02*
X0113450Y0080112D01*
X0113450Y0079400D02*
X0113450Y0077529D01*
X0113539Y0077198D01*
X0113710Y0076902D01*
X0113952Y0076660D01*
X0114248Y0076489D01*
X0114579Y0076400D01*
X0116700Y0076400D01*
X0116700Y0079400D01*
X0113450Y0079400D01*
X0113450Y0078915D02*
X0104475Y0078915D01*
X0104475Y0079514D02*
X0116700Y0079514D01*
X0116700Y0078915D02*
X0117300Y0078915D01*
X0117300Y0079400D02*
X0117300Y0076400D01*
X0119421Y0076400D01*
X0119752Y0076489D01*
X0120048Y0076660D01*
X0120290Y0076902D01*
X0120461Y0077198D01*
X0120550Y0077529D01*
X0120550Y0079400D01*
X0117300Y0079400D01*
X0117300Y0079514D02*
X0126910Y0079514D01*
X0127508Y0080112D02*
X0120550Y0080112D01*
X0120550Y0080711D02*
X0130444Y0080711D01*
X0130437Y0081309D02*
X0120550Y0081309D01*
X0120540Y0081908D02*
X0130430Y0081908D01*
X0130423Y0082506D02*
X0120282Y0082506D01*
X0119928Y0083105D02*
X0130416Y0083105D01*
X0130409Y0083703D02*
X0120150Y0083703D01*
X0120150Y0084302D02*
X0130402Y0084302D01*
X0130395Y0084901D02*
X0120150Y0084901D01*
X0120150Y0085499D02*
X0130388Y0085499D01*
X0130381Y0086098D02*
X0120150Y0086098D01*
X0120150Y0086696D02*
X0121981Y0086696D01*
X0121850Y0087295D02*
X0120150Y0087295D01*
X0120150Y0087893D02*
X0121850Y0087893D01*
X0121850Y0088492D02*
X0119731Y0088492D01*
X0120077Y0089689D02*
X0121850Y0089689D01*
X0121850Y0090287D02*
X0120485Y0090287D01*
X0120550Y0090886D02*
X0121850Y0090886D01*
X0121850Y0091484D02*
X0120550Y0091484D01*
X0120550Y0092083D02*
X0122360Y0092083D01*
X0120550Y0093280D02*
X0130297Y0093280D01*
X0130290Y0093878D02*
X0120550Y0093878D01*
X0120550Y0094477D02*
X0130283Y0094477D01*
X0130276Y0095075D02*
X0120495Y0095075D01*
X0120115Y0095674D02*
X0130269Y0095674D01*
X0130262Y0096272D02*
X0105598Y0096272D01*
X0106196Y0096871D02*
X0130255Y0096871D01*
X0130304Y0092681D02*
X0117300Y0092681D01*
X0117300Y0092083D02*
X0116700Y0092083D01*
X0116700Y0092681D02*
X0102933Y0092681D01*
X0103531Y0092083D02*
X0113450Y0092083D01*
X0113450Y0091484D02*
X0104130Y0091484D01*
X0104475Y0090886D02*
X0113450Y0090886D01*
X0113515Y0090287D02*
X0104475Y0090287D01*
X0104475Y0089689D02*
X0113923Y0089689D01*
X0114269Y0088492D02*
X0104475Y0088492D01*
X0104475Y0089090D02*
X0121850Y0089090D01*
X0117300Y0089689D02*
X0116700Y0089689D01*
X0116700Y0090287D02*
X0117300Y0090287D01*
X0117300Y0090886D02*
X0116700Y0090886D01*
X0116700Y0091484D02*
X0117300Y0091484D01*
X0117300Y0093280D02*
X0116700Y0093280D01*
X0116700Y0093878D02*
X0117300Y0093878D01*
X0117300Y0094477D02*
X0116700Y0094477D01*
X0116700Y0095075D02*
X0117300Y0095075D01*
X0117300Y0095674D02*
X0116700Y0095674D01*
X0113885Y0095674D02*
X0104999Y0095674D01*
X0104401Y0095075D02*
X0113505Y0095075D01*
X0113450Y0094477D02*
X0103802Y0094477D01*
X0104475Y0100462D02*
X0116590Y0100462D01*
X0115553Y0101060D02*
X0104475Y0101060D01*
X0103955Y0101659D02*
X0114608Y0101659D01*
X0114010Y0102257D02*
X0103357Y0102257D01*
X0102758Y0102856D02*
X0113411Y0102856D01*
X0112822Y0103454D02*
X0049178Y0103454D01*
X0049524Y0104053D02*
X0112476Y0104053D01*
X0112130Y0104651D02*
X0049869Y0104651D01*
X0050215Y0105250D02*
X0111785Y0105250D01*
X0111466Y0105848D02*
X0050533Y0105848D01*
X0050694Y0106447D02*
X0099339Y0106447D01*
X0099561Y0106225D02*
X0102439Y0106225D01*
X0104475Y0108261D01*
X0104475Y0111139D01*
X0102439Y0113175D01*
X0099561Y0113175D01*
X0097525Y0111139D01*
X0097525Y0108261D01*
X0099561Y0106225D01*
X0098740Y0107045D02*
X0050854Y0107045D01*
X0051015Y0107644D02*
X0098142Y0107644D01*
X0097543Y0108242D02*
X0051175Y0108242D01*
X0051205Y0108841D02*
X0097525Y0108841D01*
X0097525Y0109439D02*
X0051205Y0109439D01*
X0051205Y0110038D02*
X0097525Y0110038D01*
X0097525Y0110637D02*
X0051205Y0110637D01*
X0051154Y0111235D02*
X0097621Y0111235D01*
X0098219Y0111834D02*
X0050994Y0111834D01*
X0050833Y0112432D02*
X0098818Y0112432D01*
X0099416Y0113031D02*
X0050673Y0113031D01*
X0050513Y0113629D02*
X0111487Y0113629D01*
X0111327Y0113031D02*
X0102584Y0113031D01*
X0103182Y0112432D02*
X0111167Y0112432D01*
X0111006Y0111834D02*
X0103781Y0111834D01*
X0104379Y0111235D02*
X0110846Y0111235D01*
X0110794Y0110637D02*
X0104475Y0110637D01*
X0104475Y0110038D02*
X0110794Y0110038D01*
X0110794Y0109439D02*
X0104475Y0109439D01*
X0104475Y0108841D02*
X0110794Y0108841D01*
X0110825Y0108242D02*
X0104457Y0108242D01*
X0103858Y0107644D02*
X0110985Y0107644D01*
X0111146Y0107045D02*
X0103260Y0107045D01*
X0102661Y0106447D02*
X0111306Y0106447D01*
X0111830Y0114228D02*
X0050170Y0114228D01*
X0049825Y0114826D02*
X0112175Y0114826D01*
X0099242Y0102856D02*
X0048589Y0102856D01*
X0047990Y0102257D02*
X0098643Y0102257D01*
X0098045Y0101659D02*
X0047392Y0101659D01*
X0046447Y0101060D02*
X0097525Y0101060D01*
X0104504Y0087893D02*
X0113850Y0087893D01*
X0113850Y0087295D02*
X0105102Y0087295D01*
X0103504Y0085499D02*
X0083289Y0085499D01*
X0083542Y0084901D02*
X0104102Y0084901D01*
X0102905Y0086098D02*
X0058299Y0086098D01*
X0063000Y0079700D02*
X0067000Y0075700D01*
X0080000Y0075700D01*
X0076850Y0077120D02*
X0067277Y0077120D01*
X0066679Y0077718D02*
X0076850Y0077718D01*
X0076850Y0074127D02*
X0067700Y0074127D01*
X0067700Y0073529D02*
X0076850Y0073529D01*
X0077247Y0072930D02*
X0067700Y0072930D01*
X0067700Y0072332D02*
X0098718Y0072332D01*
X0099316Y0072930D02*
X0082753Y0072930D01*
X0082421Y0070500D02*
X0080300Y0070500D01*
X0080300Y0067500D01*
X0079700Y0067500D01*
X0079700Y0070500D01*
X0077579Y0070500D01*
X0077248Y0070411D01*
X0076952Y0070240D01*
X0076710Y0069998D01*
X0076539Y0069702D01*
X0076450Y0069371D01*
X0076450Y0067500D01*
X0079700Y0067500D01*
X0079700Y0066900D01*
X0080300Y0066900D01*
X0080300Y0067500D01*
X0083550Y0067500D01*
X0083550Y0069371D01*
X0083461Y0069702D01*
X0083290Y0069998D01*
X0083048Y0070240D01*
X0082752Y0070411D01*
X0082421Y0070500D01*
X0083325Y0069938D02*
X0097525Y0069938D01*
X0097525Y0070536D02*
X0068361Y0070536D01*
X0068959Y0069938D02*
X0076675Y0069938D01*
X0076450Y0069339D02*
X0069558Y0069339D01*
X0070156Y0068741D02*
X0076450Y0068741D01*
X0076450Y0068142D02*
X0070755Y0068142D01*
X0071353Y0067544D02*
X0076450Y0067544D01*
X0076450Y0066900D02*
X0076450Y0065029D01*
X0076539Y0064698D01*
X0076710Y0064402D01*
X0076952Y0064160D01*
X0077248Y0063989D01*
X0077579Y0063900D01*
X0079700Y0063900D01*
X0079700Y0066900D01*
X0076450Y0066900D01*
X0076450Y0066347D02*
X0072550Y0066347D01*
X0071952Y0066945D02*
X0079700Y0066945D01*
X0079700Y0066347D02*
X0080300Y0066347D01*
X0080300Y0066900D02*
X0080300Y0063900D01*
X0082421Y0063900D01*
X0082752Y0063989D01*
X0083048Y0064160D01*
X0083290Y0064402D01*
X0083461Y0064698D01*
X0083550Y0065029D01*
X0083550Y0066900D01*
X0080300Y0066900D01*
X0080300Y0066945D02*
X0091841Y0066945D01*
X0091243Y0066347D02*
X0090876Y0066347D01*
X0085124Y0066347D02*
X0083550Y0066347D01*
X0083550Y0065748D02*
X0084850Y0065748D01*
X0084850Y0065150D02*
X0083550Y0065150D01*
X0083376Y0064551D02*
X0084850Y0064551D01*
X0084850Y0063953D02*
X0082618Y0063953D01*
X0082967Y0062756D02*
X0084850Y0062756D01*
X0084850Y0063354D02*
X0075543Y0063354D01*
X0076141Y0062756D02*
X0077033Y0062756D01*
X0076850Y0062157D02*
X0076740Y0062157D01*
X0077382Y0063953D02*
X0074944Y0063953D01*
X0074346Y0064551D02*
X0076624Y0064551D01*
X0076450Y0065150D02*
X0073747Y0065150D01*
X0073149Y0065748D02*
X0076450Y0065748D01*
X0079700Y0065748D02*
X0080300Y0065748D01*
X0080300Y0065150D02*
X0079700Y0065150D01*
X0079700Y0064551D02*
X0080300Y0064551D01*
X0080300Y0063953D02*
X0079700Y0063953D01*
X0079700Y0067544D02*
X0080300Y0067544D01*
X0080300Y0068142D02*
X0079700Y0068142D01*
X0079700Y0068741D02*
X0080300Y0068741D01*
X0080300Y0069339D02*
X0079700Y0069339D01*
X0079700Y0069938D02*
X0080300Y0069938D01*
X0083550Y0069339D02*
X0097525Y0069339D01*
X0097525Y0068741D02*
X0083550Y0068741D01*
X0083550Y0068142D02*
X0097644Y0068142D01*
X0098242Y0067544D02*
X0083550Y0067544D01*
X0083150Y0062157D02*
X0084850Y0062157D01*
X0084850Y0061559D02*
X0083150Y0061559D01*
X0083150Y0060960D02*
X0085217Y0060960D01*
X0078452Y0056225D02*
X0106475Y0056225D01*
X0104182Y0057968D02*
X0113672Y0057968D01*
X0113450Y0058566D02*
X0104475Y0058566D01*
X0104475Y0059165D02*
X0113450Y0059165D01*
X0113450Y0059763D02*
X0104475Y0059763D01*
X0097525Y0071135D02*
X0067762Y0071135D01*
X0067700Y0071733D02*
X0098119Y0071733D01*
X0096153Y0076521D02*
X0090844Y0076521D01*
X0091150Y0077120D02*
X0095555Y0077120D01*
X0097492Y0080112D02*
X0097525Y0080112D01*
X0097525Y0080711D02*
X0096893Y0080711D01*
X0097695Y0081309D02*
X0091150Y0081309D01*
X0090815Y0081908D02*
X0098294Y0081908D01*
X0101000Y0079700D02*
X0103275Y0077425D01*
X0105679Y0077425D01*
X0110404Y0072700D01*
X0117000Y0072700D01*
X0113850Y0074127D02*
X0110674Y0074127D01*
X0110075Y0074726D02*
X0113850Y0074726D01*
X0114102Y0075324D02*
X0109477Y0075324D01*
X0108878Y0075923D02*
X0121850Y0075923D01*
X0121850Y0076521D02*
X0119809Y0076521D01*
X0120416Y0077120D02*
X0121850Y0077120D01*
X0121850Y0077718D02*
X0120550Y0077718D01*
X0120550Y0078317D02*
X0121850Y0078317D01*
X0122193Y0078915D02*
X0120550Y0078915D01*
X0117300Y0078317D02*
X0116700Y0078317D01*
X0116700Y0077718D02*
X0117300Y0077718D01*
X0117300Y0077120D02*
X0116700Y0077120D01*
X0116700Y0076521D02*
X0117300Y0076521D01*
X0119898Y0075324D02*
X0121850Y0075324D01*
X0121850Y0074726D02*
X0120150Y0074726D01*
X0120150Y0074127D02*
X0121850Y0074127D01*
X0122148Y0073529D02*
X0120150Y0073529D01*
X0120150Y0072930D02*
X0130535Y0072930D01*
X0130542Y0072332D02*
X0120150Y0072332D01*
X0120150Y0071733D02*
X0130549Y0071733D01*
X0130556Y0071135D02*
X0120150Y0071135D01*
X0120150Y0070536D02*
X0130563Y0070536D01*
X0130528Y0073529D02*
X0127852Y0073529D01*
X0128150Y0074127D02*
X0130521Y0074127D01*
X0130514Y0074726D02*
X0128150Y0074726D01*
X0128150Y0075324D02*
X0130507Y0075324D01*
X0130500Y0075923D02*
X0128150Y0075923D01*
X0128726Y0076521D02*
X0130493Y0076521D01*
X0130374Y0086696D02*
X0128019Y0086696D01*
X0128150Y0087295D02*
X0130367Y0087295D01*
X0130318Y0091484D02*
X0128150Y0091484D01*
X0127640Y0092083D02*
X0130311Y0092083D01*
X0113450Y0078317D02*
X0106484Y0078317D01*
X0107083Y0077718D02*
X0113450Y0077718D01*
X0113584Y0077120D02*
X0107681Y0077120D01*
X0108280Y0076521D02*
X0114191Y0076521D01*
X0120373Y0063354D02*
X0128442Y0063354D01*
X0129040Y0062756D02*
X0120550Y0062756D01*
X0120550Y0062157D02*
X0129639Y0062157D01*
X0130237Y0061559D02*
X0120550Y0061559D01*
X0127960Y0059763D02*
X0130689Y0059763D01*
X0130696Y0059165D02*
X0128150Y0059165D01*
X0128150Y0058566D02*
X0130703Y0058566D01*
X0130710Y0057968D02*
X0128150Y0057968D01*
X0128150Y0057369D02*
X0130717Y0057369D01*
X0130724Y0056770D02*
X0128150Y0056770D01*
X0128432Y0056172D02*
X0130731Y0056172D01*
X0130738Y0055573D02*
X0129031Y0055573D01*
X0129629Y0054975D02*
X0130745Y0054975D01*
X0130752Y0054376D02*
X0130228Y0054376D01*
X0077436Y0100462D02*
X0045410Y0100462D01*
X0043720Y0099863D02*
X0076632Y0099863D01*
X0032175Y0114826D02*
X0005300Y0114826D01*
X0005300Y0114228D02*
X0031830Y0114228D01*
D16*
X0089000Y0071200D03*
X0089500Y0086200D03*
X0089500Y0102200D03*
X0108500Y0092700D03*
X0108500Y0081200D03*
X0109000Y0060200D03*
X0126000Y0050700D03*
D17*
X0125000Y0044700D02*
X0131000Y0038700D01*
X0139500Y0038700D01*
X0139500Y0048700D02*
X0133500Y0048700D01*
X0125000Y0057200D01*
X0127700Y0066500D02*
X0135500Y0058700D01*
X0139500Y0058700D01*
X0139500Y0068700D02*
X0112000Y0068700D01*
X0104975Y0075725D01*
X0099354Y0075725D01*
X0097025Y0078054D01*
X0097025Y0078175D01*
X0096000Y0079200D01*
X0088000Y0079200D01*
X0093025Y0065725D02*
X0111025Y0065725D01*
X0111800Y0066500D01*
X0127700Y0066500D01*
X0126000Y0076200D02*
X0128500Y0078700D01*
X0139500Y0078700D01*
X0139500Y0088700D02*
X0139000Y0089200D01*
X0125000Y0089200D01*
X0125000Y0076200D02*
X0126000Y0076200D01*
X0105621Y0098700D02*
X0102646Y0095725D01*
X0099525Y0095725D01*
X0099500Y0095700D01*
X0093500Y0095700D01*
X0091500Y0093700D01*
X0088000Y0093700D01*
X0105621Y0098700D02*
X0139500Y0098700D01*
X0093025Y0065725D02*
X0091000Y0063700D01*
X0088000Y0063700D01*
M02*
